<svg xmlns="http://www.w3.org/2000/svg" version="1.1" xmlns:xlink="http://www.w3.org/1999/xlink" xmlns:svgjs="http://svgjs.dev/svgjs" viewBox="0 0 800 800"><defs><linearGradient x1="50%" y1="0%" x2="50%" y2="100%" id="uundulate-grad"><stop stop-color="hsl(37, 99%, 67%)" stop-opacity="1" offset="45%"></stop><stop stop-color="hsl(316, 73%, 52%)" stop-opacity="1" offset="100%"></stop></linearGradient></defs><g stroke-width="2" stroke="url(#uundulate-grad)" fill="none"><path d="M1083.9892935156745 369.5791139107357C1086.4413616053962 519.183813611307 669.4563657282142 655.0364092697137 459.70741421663524 753.877107335019C249.9584627050557 852.7178054003248 221.48852070094586 875.5299435445363 77.19432626009234 844.0144646242024C-67.09986818076095 812.498985703869 -166.95900925350617 734.7587895164838 -232.90471909946262 602.6028085174166C-298.8504289454191 470.4468275183493 -300.924376018972 343.91191177342284 -239.34508100049743 209.66575582867858C-177.76578598202286 75.41959988393432 -80.50797142463443 -5.55140521393912 62.675896989213584 -41.77874001735614C205.8597654030616 -78.00607482077316 235.16386310962548 -49.925004129406545 447.93748738597196 35.77454877227899C660.7111116623184 121.47410167396447 1081.5372254259528 219.97441421016458 1083.9892935156745 369.5791139107357C1086.4413616053962 519.183813611307 669.4563657282142 655.0364092697137 459.70741421663524 753.877107335019 "></path><path d="M1074.989433988921 369.97934174669126C1077.409238024831 517.6155585564654 665.9108868302433 651.6806200614719 458.9217899438165 749.2207826259182C251.93269305738954 846.7609451903645 223.83735555333374 869.2729236221523 81.44176893407041 838.1721220560335C-60.9538176851928 807.0713204899148 -159.49902269119133 730.3540216207848 -224.57702582864835 599.9369351085473C-289.6550289661054 469.5198485963099 -291.7016872623747 344.6498659532904 -230.93264612572221 212.17010679729287C-170.16360498906965 79.69034764129515 -74.18549851796263 -0.21524949476412303 67.11437162728203 -35.96590884024147C208.4142417725268 -71.71656818571876 237.33275924610962 -44.00498526660698 447.3067305714517 40.5669419390037C657.2807018967935 125.13886914461432 1072.5696299530116 222.3431249369171 1074.989433988921 369.97934174669126C1077.409238024831 517.6155585564654 665.9108868302433 651.6806200614719 458.9217899438165 749.2207826259182 "></path><path d="M1065.9895134270116 370.3796611353812C1068.377053409109 516.0473950543585 662.3653468971161 648.324922405965 458.13610463584155 744.5645494695518C253.90686237456703 840.8041765331391 226.18612937056514 863.0159952525028 85.68915057289223 832.3298710405988C-54.807828224780906 801.6437468286952 -152.03909716403274 725.9493452778202 -216.24939359299032 597.2711532524127C-280.45969002194795 468.59296122700493 -282.4790595409337 345.3879116858924 -222.5202722861032 214.6745493186413C-162.5614850312727 83.96118695139035 -67.86308664644707 5.120997777145249 71.55278523019433 -30.15298611039242C210.96865710683585 -65.42696999793003 239.5015943474375 -38.08487485107304 446.6759127217747 45.35942665846284C653.8502310961121 128.80372816799866 1063.6019734449142 224.7119272164041 1065.9895134270116 370.3796611353812C1068.377053409109 516.0473950543585 662.3653468971161 648.324922405965 458.13610463584155 744.5645494695518 "></path><path d="M1056.9896539002584 370.77988897133673C1059.3449298285439 514.479139999517 658.8198679991451 644.9691331977233 457.35048036302305 739.908224760451C255.88109272690076 834.8473163231788 228.53496422295302 856.7589753301188 89.93659324687019 826.4875284724299C-48.661777729212645 796.2160816147409 -144.5791106017179 721.5445773821211 -207.9217003221761 594.6052798435435C-271.26429004263423 467.6659823049656 -273.2563707843364 346.12586586576003 -214.10783741132792 217.1789002872556C-154.9593040383195 88.23193470875123 -61.54061373977527 10.457153496320188 75.99125986826289 -24.340154933277745C213.52313347630115 -59.13746336287562 241.67049048392175 -32.16485598827347 446.0451559072544 50.151819825187545C650.4198213305872 132.46849563864862 1054.634377971973 227.0806379431566 1056.9896539002584 370.77988897133673C1059.3449298285439 514.479139999517 658.8198679991451 644.9691331977233 457.35048036302305 739.908224760451 "></path><path d="M1047.989794373505 371.18017784244876C1050.3128062479782 512.9109459798319 655.2743891011742 641.613405024638 456.56485609020456 735.2519610865065C257.8553230792345 828.8905171483752 230.8837990753409 850.5020164428911 94.18403592084826 820.6452469394171C-42.5157272336445 790.7884774359432 -137.119124039403 717.1398705215784 -199.5940070513618 591.9394674698306C-262.06889006332057 466.73906441808253 -264.03368202773913 346.8638810807838 -205.6954025365527 219.68331229102614C-147.35712304536622 92.50274350126836 -55.21814083310346 15.793370250651435 80.42973450633144 -18.527262721006764C216.07760984576635 -52.84789569266502 243.8393866204059 -26.244776090317714 445.41439909273413 54.94427402706856C646.9894115650623 136.13332414445483 1045.6667824990318 229.44940970506536 1047.989794373505 371.18017784244876C1050.3128062479782 512.9109459798319 655.2743891011742 641.613405024638 456.56485609020456 735.2519610865065 "></path><path d="M1038.9899958819078 371.58046671356055C1041.2807437025692 511.34275196014676 651.7289712383595 638.2576768515528 455.7792928525421 730.595697412562C259.8296144667245 822.9337179735714 233.23269496288503 844.2450575556636 98.43153962998247 814.8029654064046C-36.3696157029201 785.3608732571454 -129.65907644193192 712.735163661036 -191.26625274539128 589.2736550961176C-252.8734290488506 465.81214653119946 -254.8109322359856 347.6018962958077 -197.28290662662118 222.18772429479657C-139.75488101725676 96.77355229378543 -48.89560689127552 21.12958700498268 84.86827017955625 -12.71437050873584C218.63214725038802 -46.55832802245442 246.00834379204628 -20.3246961923619 444.7837033133701 59.73672822894957C643.5590628346936 139.79815265026104 1036.6992480612466 231.81818146697424 1038.9899958819078 371.58046671356055C1041.2807437025692 511.34275196014676 651.7289712383595 638.2576768515528 455.7792928525421 730.595697412562 "></path><path d="M1029.9901668727327 371.98075558467235C1032.2486506395817 509.7745579404616 648.1835228579666 634.9019486784675 454.9936990973015 725.9394337386175C261.80387533663645 816.9769187987674 235.58156033285093 837.9880986684359 102.67901282153866 808.9606838733916C-30.223534689773714 779.9332690783476 -122.19905936203895 708.3304568004933 -182.93852895699888 586.6078427224047C-243.6779985519588 464.8852286443164 -245.58821296181014 348.3399115108316 -188.8704412342678 224.692136298567C-132.15266950672543 101.04436108630256 -42.57310346702559 26.46580375931387 89.30677533520293 -6.901478296464916C221.18665413743133 -40.26876035224376 248.17727044610854 -14.404616294406082 444.1529770164277 64.52918243083053C640.1286835867468 143.46298115606714 1027.7316831058838 234.1869532288831 1029.9901668727327 371.98075558467235C1032.2486506395817 509.7745579404616 648.1835228579666 634.9019486784675 454.9936990973015 725.9394337386175 "></path><path d="M1020.9902768284014 372.38104445578415C1023.2164965414383 508.2063639207764 644.6380134424176 631.5462205053824 454.20804430690487 721.283170064673C263.7780751713922 811.0201196239636 237.93036466766068 831.7311397812082 106.9264249779385 803.1184023403789C-24.07751471178358 774.5056648995496 -114.73910331730224 703.9257499399505 -174.61086620376273 583.9420303486918C-234.4826290902232 463.9583107574333 -236.365554722791 349.0779267258554 -180.4580368770707 227.19654830233753C-124.55051903135035 105.31516987881969 -36.25066107793191 31.802020513645118 93.74521945569336 -1.0885860841939916C223.7410999893184 -33.97919268203316 250.34613606501466 -8.484536396450267 443.5221896843291 69.32163663271155C636.6982433036437 147.12780966187336 1018.7640571153643 236.55572499079187 1020.9902768284014 372.38104445578415C1023.2164965414383 508.2063639207764 644.6380134424176 631.5462205053824 454.20804430690487 721.283170064673 "></path><path d="M1011.990417301648 372.78133332689595C1014.1843729608727 506.63816990109126 641.0925345444466 628.1904923322971 453.4224200340864 716.6269063907284C265.7523055237259 805.0633204491598 240.27919952004845 825.4741808939807 111.17386765191657 797.2761208073662C-17.93146421621543 769.0780607207521 -107.2791167549874 699.5210430794077 -166.28317293294845 581.2762179749789C-225.2872291109095 463.03139287055023 -227.1428659661937 349.81594194087916 -172.04560200229542 229.70096030610796C-116.94833803839708 109.58597867133676 -29.928188171260103 37.138237267976365 98.1836940937618 4.7243061280769325C226.2955763587837 -27.6896250118225 252.5150322014988 -2.5644564984945077 442.8914328698088 74.1140908345925C633.2678335381188 150.79263816767957 1009.7964616424233 238.92449675270063 1011.990417301648 372.78133332689595C1014.1843729608727 506.63816990109126 641.0925345444466 628.1904923322971 453.4224200340864 716.6269063907284 "></path><path d="M1002.9904967397383 373.18153064527337C1005.152188345151 505.0698843286716 637.5469946113194 624.8346726064775 452.6367347261114 711.9705511640495C267.7264748409034 799.1064297216217 242.62797333728008 819.2171304540186 115.42124929073827 791.433747721619C-11.785474755803534 763.6503649892197 -99.81919122782881 695.1162446661306 -157.95554069729047 578.6103140485316C-216.09189016675208 462.1043834309328 -217.92023824475268 350.55386560316856 -163.6332281626764 232.205280757144C-109.34621808060012 113.85669591111952 -23.605776299744548 42.47436246957324 102.6221076966741 10.537106787613482C228.84999169309276 -21.400148894346273 254.68386730282668 3.355531846726933 442.26061502013215 78.90645348373914C629.8373627374376 154.4573751207513 1000.8288051343256 241.29317696187513 1002.9904967397383 373.18153064527337C1005.152188345151 505.0698843286716 637.5469946113194 624.8346726064775 452.6367347261114 711.9705511640495 "></path><path d="M993.9906372129851 373.5818500339633C996.1200647645855 503.5017208265647 634.0015157133485 621.4789749509704 451.8511104532928 707.3143180076831C269.7007051932371 793.149661064396 244.97680818966796 812.960202084369 119.66869196471634 785.5914967061844C-5.639424260235273 758.2227913279999 -92.35920466551397 690.7115683231659 -149.6278474264762 575.9445321923968C-206.89649018743836 461.1774960616277 -208.6975494881554 351.2919113357706 -155.2207932879012 234.70972327849267C-101.74403708764692 118.12753522121471 -17.283303393072742 47.81060974148255 107.06058233474255 16.35002951746253C231.40446806255795 -15.11055070655749 256.8527634393108 9.275642262260874 441.62985820561175 83.69893820319828C626.4069529719127 158.12223414413563 991.8612096613845 243.66197924136202 993.9906372129851 373.5818500339633C996.1200647645855 503.5017208265647 634.0015157133485 621.4789749509704 451.8511104532928 707.3143180076831 "></path><path d="M984.9908387213882 373.98210838749696C987.0880022191764 501.9334962893014 630.4560978505338 618.1232162603069 451.06554721563043 702.6580238161605C271.6749965807271 787.1928313720141 247.3257040772121 806.7032126795634 123.91619567385055 779.7491846555936C0.5066872704891239 752.7951566316242 -84.89915706804288 686.306830945045 -141.30009312050566 573.2786893011057C-197.70102917296845 460.2505476571665 -199.47479969640187 352.02989603321635 -146.80829737796967 237.21410476468498C-94.14179505953746 122.39831349615372 -10.960769451244687 53.14679597823567 111.49911800796735 22.16289121215533C233.9590054671795 -8.821013553925013 259.0217206109512 15.195691642638565 440.9991624262476 88.49136188750111C622.976604241544 161.78703213236372 982.8936752235995 246.03072048569277 984.9908387213882 373.98210838749696C987.0880022191764 501.9334962893014 630.4560978505338 618.1232162603069 451.06554721563043 702.6580238161605 "></path><path d="M975.9909791946347 374.3823362234526C978.0558786386109 500.36524123446 626.9106189525628 614.7674270520655 450.27992294281194 698.0016991070597C273.64922693306096 781.2359711620538 249.67453892959998 800.4461927571792 128.16363834782862 773.9068420874246C6.652737766057385 747.36749141767 -77.43917050572804 681.902063049346 -132.97239984969139 570.6128158922365C-188.50562919365473 459.3235687351273 -190.25211093980454 352.7678502130839 -138.3958625031944 239.71845573329927C-86.53961406658425 126.6690612535146 -4.638296544572881 58.48295169741067 115.93759264603591 27.975722389270004C236.51348183664481 -2.5315069188706616 261.19061674743534 21.115710505438074 440.3684056117272 93.28375505422588C619.5461944760191 165.45179960301368 973.9260797506583 248.39943121244528 975.9909791946347 374.3823362234526C978.0558786386109 500.36524123446 626.9106189525628 614.7674270520655 450.27992294281194 698.0016991070597 "></path><path d="M966.9911196678813 374.7826861297208C969.0237550580455 498.79710824993106 623.3651400545918 611.4117599141365 449.4942986699933 693.3454964682714C275.6234572853947 775.2792330224065 252.02337378198774 794.189294905108 132.4110810218067 768.0646215895681C12.798788261625532 741.9399482740284 -69.9791839434132 677.4974172239595 -124.6447065788771 567.9470645536799C-179.310229214341 458.39671188340037 -181.02942218320726 353.505926463264 -129.98342762841912 242.22292877222594C-78.93743307363104 130.93993108118792 1.684176362098924 63.81922948689811 120.37606728410447 33.78867563669718C239.06795820611 3.758121786496247 263.3595128839196 27.03585143855014 439.7376487972068 98.07627029126309C616.1157847104939 169.11668914397603 964.9584842777174 250.7682640095104 966.9911196678813 374.7826861297208C969.0237550580455 498.79710824993106 623.3651400545918 611.4117599141365 449.4942986699933 693.3454964682714 "></path><path d="M957.9912601411279 375.18291396567633C959.99163147748 497.22885319508964 619.8196611566209 608.055970705895 448.7086743971747 688.6891717591707C277.59768763772854 769.3223728124462 254.3722086343755 787.9322749827243 136.65852369578465 762.2222790213991C18.944838757193793 736.5122830600744 -62.519197381098365 673.0926493282604 -116.31701330806283 565.2811911448107C-170.11482923502734 457.46973296136093 -171.80673342660998 354.24388064313166 -121.5709927536439 244.72727974084023C-71.33525208067783 135.2106788385488 8.006649268770616 69.1553852060731 124.81454192217302 39.60150681381185C241.62243457557543 10.047628421550598 265.5284090204037 32.955870301349705 439.1068919826864 102.86866345798785C612.6853749449692 172.781456614626 955.990888804776 253.1369747362629 957.9912601411279 375.18291396567633C959.99163147748 497.22885319508964 619.8196611566209 608.055970705895 448.7086743971747 688.6891717591707 "></path><path d="M948.9913395792184 375.58320283678813C950.9594468617581 495.66065917540436 616.2741212234937 604.7002425328097 447.92298908919986 684.0329080852262C279.571856954906 763.3655736376425 256.72098245160714 781.6753160954963 140.90590533460636 756.3799974883864C25.09082821760569 731.0846788812764 -55.05927185393978 668.6879424677176 -107.98938107240485 562.6153787710978C-160.91949029086987 456.54281507447786 -162.58410570516895 354.98189585815544 -113.15861891402488 247.23169174461066C-63.73313212288082 139.48148763106587 14.329061140286285 74.49160196040435 129.25295552508533 45.414399026082776C244.17684990988437 16.337196091761257 267.6972441217316 38.87595019930552 438.4760741330098 107.66111765986886C609.2549041442878 176.4462851204322 947.0232322966785 255.50574649817167 948.9913395792184 375.58320283678813C950.9594468617581 495.66065917540436 616.2741212234937 604.7002425328097 447.92298908919986 684.0329080852262 "></path><path d="M939.991480052465 375.98349170789993C941.9273232811929 494.0924651557193 612.7286423255227 601.3445143597245 447.13736481638125 679.3766444112815C281.54608730723976 757.4087744628387 259.069817303995 775.4183572082688 145.15334800858443 750.5377159553736C31.236878713173837 725.6570747024787 -47.59928529162494 664.2832356071749 -99.66168780159057 559.9495663973848C-151.7240903115562 455.6158971875948 -153.36141694857167 355.7199110731792 -104.74618403924961 249.73610374838108C-56.13095112992761 143.752296423583 20.651534046957977 79.8278187147356 133.69143016315388 51.2272912383537C246.73132627934956 22.62676376197186 269.86614025821586 44.79603009726128 437.8453173184894 112.45357186174982C605.8244943787631 180.11111362623836 938.0556368237374 257.87451826008055 939.991480052465 375.98349170789993C941.9273232811929 494.0924651557193 612.7286423255227 601.3445143597245 447.13736481638125 679.3766444112815 "></path><path d="M930.9916815608678 376.3837805790117C932.8952607357835 492.52427113603414 609.183224462708 597.9887861866392 446.351801578719 674.720380737337C283.52037869472974 751.4519752880346 261.41871319153915 769.1613983210409 149.40085171771875 744.6954344223609C37.38299024389835 720.2294705236809 -40.13923769415385 659.8785287466321 -91.33393349562004 557.2837540236719C-142.52862929708624 454.6889793007117 -144.13866715681814 356.457926288203 -96.33368812931815 252.24051575215162C-48.52870910181815 148.02310521610008 26.974067988786032 85.16403546906679 138.12996583637857 57.040183450624625C249.28586368397112 28.91633143218246 272.03509742985625 50.716109995217096 437.21462153912523 117.24602606363084C602.3941456483942 183.77594213204452 929.0881023859524 260.2432900219894 930.9916815608678 376.3837805790117C932.8952607357835 492.52427113603414 609.183224462708 597.9887861866392 446.351801578719 674.720380737337 "></path><path d="M921.9918220341146 376.7840084149673C923.8631371552183 490.95601608119273 605.6377455647371 594.6329969783976 445.5661773059003 670.0640560282362C285.4946090470635 745.4951150780748 263.76754804392704 762.9043783986572 153.6482943916967 738.8530918541919C43.529040739466495 714.8018053097267 -32.67925113183901 655.4737608509331 -83.00624022480577 554.6178806148027C-133.33322931777252 453.7620003786724 -134.9159784002208 357.19588046807064 -87.92125325454288 254.7448667207658C-40.926528108864886 152.29385297346096 33.29654089545784 90.50019118824179 142.56844047444713 62.8530146277393C251.84034005343642 35.20583806723687 274.2039935663404 56.63612885801666 436.58386472460484 122.03841923035554C598.9637358828691 187.44070960269448 920.1205069130112 262.61200074874193 921.9918220341146 376.7840084149673C923.8631371552183 490.95601608119273 605.6377455647371 594.6329969783976 445.5661773059003 670.0640560282362 "></path><path d="M912.9919625073614 377.1842972860791C914.8310135746526 489.38782206150745 602.0922666667661 591.2772688053124 444.7805530330817 665.4077923542917C287.4688393993973 739.5383159032708 266.1163828963148 756.6474195114295 157.89573706567478 733.0108103211792C49.675091235034756 709.3742011309289 -25.21926456952417 651.0690539903903 -74.67854695399149 551.9520682410898C-124.13782933845886 452.8350824917893 -125.69328964362353 357.9338956830944 -79.5088183797676 257.2492787245362C-33.32434711591168 156.56466176597803 39.61901380212964 95.83640794257303 147.00691511251557 68.66590684001022C254.3948164229016 41.49540573744747 276.3728897028245 62.55620875597248 435.95310791008444 126.83087343223656C595.5333261173441 191.1055381085007 911.15291144007 264.9807725106507 912.9919625073614 377.1842972860791C914.8310135746526 489.38782206150745 602.0922666667661 591.2772688053124 444.7805530330817 665.4077923542917 "></path><path d="M903.9921334981861 377.58458615719087C905.7989205116655 487.8196280418224 598.5468182863733 587.9215406322272 443.9949592778412 660.7515286803472C289.4431002693092 733.581516728467 268.4652482662808 750.3904606242018 162.14321025723086 727.1685287881664C55.82117224818103 703.9465969521311 -17.759247489631207 646.6643471298476 -66.35082316559908 549.2862558673769C-114.94239884156701 451.90816460490623 -116.47057036944813 358.6719108981183 -71.09635298741426 259.75369072830676C-25.722135605380345 160.83547055849516 45.941517226379574 101.17262469690422 151.44542026816225 74.4787990522812C256.94932330994504 47.78497340765813 278.5418163568868 68.47628865392824 435.32238161314217 131.62332763411757C592.1029468693973 194.77036661430685 902.1853464847068 267.34954427255957 903.9921334981861 377.58458615719087C905.7989205116655 487.8196280418224 598.5468182863733 587.9215406322272 443.9949592778412 660.7515286803472 "></path><path d="M894.9922739714327 377.9848750283029C896.7667969310999 486.25143402213723 595.0013393884024 584.565812459142 443.2093350050227 656.0952650064028C291.41733062164303 727.6247175536632 270.8140831186686 744.1335017369743 166.39065293120893 721.3262472551538C61.96722274374929 698.5189927733334 -10.299260927316368 642.2596402693049 -58.02312989478486 546.620443493664C-105.74699886225335 450.98124671802316 -107.24788161285085 359.4099261131422 -62.68391811263899 262.2581027320772C-18.119954612427136 165.1062793510123 52.26399013305138 106.50884145123547 155.8838949062308 80.29169126455213C259.50379967941035 54.07454107786873 280.7107124933709 74.39636855188405 434.6916247986218 136.4157818359986C588.6725371038724 198.43519512011306 893.2177510117658 269.71831603446844 894.9922739714327 377.9848750283029C896.7667969310999 486.25143402213723 595.0013393884024 584.565812459142 443.2093350050227 656.0952650064028 "></path><path d="M885.9923534095233 378.38513338183657C887.7346123153784 484.68320948487394 591.4557994552752 581.2100537684785 442.42364969704784 651.4389708148799C293.3914999388205 721.6678878612813 273.1628569359002 737.8765123321684 170.63803457003064 715.4839352045628C68.11321220416119 693.0913580769574 -2.8393354001577222 637.8549028911839 -49.69549765912683 543.9546006023729C-96.55165991809588 450.05429831356196 -98.02525389140982 360.14791081058786 -54.27154427301997 264.7624842182696C-10.517834654630178 169.37705762595124 58.586402004566935 111.84502768798859 160.3223085091431 86.10455295924493C262.0582150137193 60.36407823050126 282.87954759469903 80.31641793226174 434.0608069489451 141.20820552030142C585.2420663031912 202.0999931083411 884.2500945036682 272.0870572787991 885.9923534095233 378.38513338183657C887.7346123153784 484.68320948487394 591.4557994552752 581.2100537684785 442.42364969704784 651.4389708148799 "></path><path d="M876.9924938827701 378.7853612177921C878.7024887348127 483.1149544300325 587.9103205573042 577.8542645602372 441.6380254242292 646.7826461057791C295.36573029115425 715.7110276513214 275.5116917882881 731.6194924097846 174.8854772440087 709.641592636394C74.25926269972933 687.6636928630033 4.62065116215706 633.450134995485 -41.36780438831255 541.2887271935037C-87.35625993878222 449.12731939152263 -88.80256513481254 360.8858649904555 -45.859109398244755 267.2668351868838C-2.91565366167697 173.64780538331212 64.90887491123874 117.18118340716353 164.76078314721167 91.9173841363596C264.6126913831846 66.65358486555562 285.04844373118306 86.23643679506131 433.4300501344246 146.00059868702613C581.8116565376663 205.76476057899106 875.2824990307272 274.4557680055516 876.9924938827701 378.7853612177921C878.7024887348127 483.1149544300325 587.9103205573042 577.8542645602372 441.6380254242292 646.7826461057791 "></path><path d="M867.9926953911729 379.18568060648204C869.6704261894038 481.5467909279255 584.3649026944895 574.49856690473 440.85246218656687 642.1264129494127C297.34002167864423 709.7542589940955 277.8605876758322 725.362564040135 179.13298095314303 703.7993416209592C80.40537423045384 682.2361192017836 12.080698759628206 629.0454586525202 -33.04005008234202 538.622945337369C-78.16079892431225 448.20043202221757 -79.57981534305895 361.6239107230574 -37.44661348831323 269.77127770823245C4.686588366432545 177.91864469340737 71.23140885306674 122.5174306790729 169.19931882043647 97.73030686620865C267.16722878780615 72.94318305334434 287.21740090282356 92.15654721059519 432.7993543550606 150.79308340648527C578.3813078072976 209.42961960237534 866.314964592942 276.8245702850386 867.9926953911729 379.18568060648204C869.6704261894038 481.5467909279255 584.3649026944895 574.49856690473 440.85246218656687 642.1264129494127 "></path><path d="M858.9928358644195 379.58596947759384C860.6383026088381 479.9785969082403 580.8194237965185 571.1428387316447 440.06683791374826 637.4701492754682C299.31425203097797 703.7974598192917 280.20942252822 719.1056051529073 183.380423627121 697.9570600879466C86.55142472602199 676.8085150229858 19.540685321943045 624.6407517919776 -24.71235681152774 535.957132963656C-68.96539894499853 447.2735141353345 -70.35712658646167 362.3619259380812 -29.03417861353796 272.2756897120029C12.288769359385753 182.18945348592445 77.55388175973849 127.85364743340415 173.63779345850492 103.54319907847957C269.72170515727134 79.232750723555 289.3862970393077 98.07662710855101 432.1685975405401 155.58553760836628C574.9508980417727 213.0944481081815 857.3473691200011 279.19334204694746 858.9928358644195 379.58596947759384C860.6383026088381 479.9785969082403 580.8194237965185 571.1428387316447 440.06683791374826 637.4701492754682 "></path><path d="M849.9929763376663 379.98625834870563C851.6061790282729 478.41040288855515 577.2739448985476 567.7871105585593 439.28121364092976 632.8138856015237C301.2884823833117 697.8406606444879 282.55825738060787 712.8486462656796 187.62786630109906 692.1147785549338C92.69747522159025 671.380910844188 27.000671884257883 620.2360449314347 -16.384663540713518 533.2913205899431C-59.76999896568486 446.3465962484513 -61.134437829864396 363.0999411531051 -20.62174373876269 274.7801017157733C19.89095035233896 186.46026227844158 83.8763546664103 133.1898641877354 178.07626809657347 109.3560912907505C272.27618152673665 85.5223183937656 291.5551931757918 103.99670700650682 431.5378407260198 160.37799181024724C571.5204882762476 216.7592766139877 848.3797736470597 281.5621138088561 849.9929763376663 379.98625834870563C851.6061790282729 478.41040288855515 577.2739448985476 567.7871105585593 439.28121364092976 632.8138856015237 "></path><path d="M840.9931168109129 380.38645566708306C842.5740554477072 476.8421173161355 573.7284660005768 564.4312908327398 438.49558936811115 628.1575303748448C303.26271273564555 691.8837699169497 284.90709223299564 706.5915958257176 191.87530897507702 686.2724054691867C98.8435257171584 665.9532151126558 34.46065844657272 615.8312465181576 -8.056970269899239 530.6254166634958C-50.57459898637114 445.41958680883397 -51.91174907326712 363.8378648153946 -12.209308863987474 277.28442216680946C27.49313134529217 190.73097951822427 90.1988275730821 138.5259893893322 182.51474273464203 115.16889195028705C274.83065789620196 91.81179451124189 293.72408931227596 109.91669535172821 430.9070839114993 165.17035445939388C568.0900785107227 220.42401356705955 839.4121781741187 283.9307940180306 840.9931168109129 380.38645566708306C842.5740554477072 476.8421173161355 573.7284660005768 564.4312908327398 438.49558936811115 628.1575303748448 "></path><path d="M831.9931962490032 380.78674453819497C833.5418708319858 475.27392329645045 570.1829260674496 561.0755626596546 437.7099040601363 623.5012667009003C305.23688205282303 685.9269707421461 287.25586605022727 700.33463693849 196.12269061389884 680.430123936174C104.98951517757035 660.525610933858 41.92058397373131 611.426539657615 0.27066196575879076 527.9596042897829C-41.37926004221373 444.4926689219509 -42.68912135182609 364.5758800304184 -3.7969350243684516 279.7888341705799C35.095251303089185 195.0017883107414 96.52123944459765 143.86220614366346 186.95315633755433 120.98178416255797C277.3850732305109 98.10136218145249 295.89292441360385 115.83677524968402 430.27626606182275 169.9628086612749C564.6596077100415 224.0888420728657 830.444521666021 286.2995657799395 831.9931962490032 380.78674453819497C833.5418708319858 475.27392329645045 570.1829260674496 561.0755626596546 437.7099040601363 623.5012667009003 "></path><path d="M822.99333672225 381.18703340930676C824.5097472514201 473.7057292767653 566.6374471694785 557.7198344865693 436.9242797873176 618.8450030269557C307.2111124051569 679.970171567342 289.60470090261515 694.0776780512624 200.3701332878768 674.5878424031613C111.13556567313856 655.09800675506 49.38057053604615 607.0218327970721 8.59835523657307 525.29379191607C-32.18386006290001 443.5657510350677 -33.46643259522881 365.31389524544227 4.61549985040682 282.2932461743503C42.69743229604239 199.27259710325848 102.84371235126946 149.1984228979947 191.39163097562277 126.7946763748289C279.9395495999762 104.39092985166309 298.061820550088 121.75685514763984 429.64550924730224 174.75526286315585C561.2291979445166 227.75367057867186 821.4769261930801 288.66833754184825 822.99333672225 381.18703340930676C824.5097472514201 473.7057292767653 566.6374471694785 557.7198344865693 436.9242797873176 618.8450030269557 "></path><path d="M813.993538230653 381.5873222804187C815.4776847060107 472.1375352570801 563.0920293066638 554.3641063134842 436.1387165496553 614.1887393530112C309.18540379264687 674.0133723925383 291.95359679015917 687.8207191640347 204.61763699701112 668.7455608701486C117.28167720386301 649.6704025762623 56.84061813351724 602.6171259365294 16.9261095425436 522.627979542357C-22.98839904843004 442.63883314818463 -24.24368280347528 366.05191046046605 13.027995760338285 284.79765817812086C50.29967432415185 203.5434058957756 109.16624629309752 154.53463965232595 195.83016664884758 132.60756858709982C282.49408700459776 110.68049752187375 300.2307777217285 127.67693504559566 429.0148134679382 179.54771706503686C557.7988492141479 231.41849908447807 812.5093917552949 291.037109303757 813.993538230653 381.5873222804187C815.4776847060107 472.1375352570801 563.0920293066638 554.3641063134842 436.1387165496553 614.1887393530112 "></path><path d="M804.9936787038996 381.98761115153036C806.4455611254455 470.56934123739484 559.5465504086928 551.0083781403988 435.3530922768367 609.5324756790667C311.1596341449806 668.0565732177345 294.30243164254705 681.563760276807 208.8650796709892 662.9032793371357C123.42772769943122 644.2427983974644 64.30060469583208 598.2124190759866 25.25380281335788 519.9621671686441C-13.792999069116377 441.71191526130156 -15.020994046877945 366.78992567548994 21.440430635113557 287.3020701818913C57.90185531710506 207.81421468829274 115.48871919976932 159.87085640665714 200.26864128691614 138.42046079937074C285.04856337406295 116.97006519208435 302.39967385821274 133.59701494355141 428.3840566534178 184.34017126691782C554.3684394486229 235.08332759028423 803.5417962823537 293.4058810656659 804.9936787038996 381.98761115153036C806.4455611254455 470.56934123739484 559.5465504086928 551.0083781403988 435.3530922768367 609.5324756790667 "></path><path d="M795.9938191771462 382.38790002264227C797.4134375448798 469.0011472177098 556.0010715107219 547.6526499673136 434.5674680040181 604.8762120051222C313.13386449731433 662.0997740429307 296.6512664949348 675.3068013895794 213.11252234496715 657.0609978041231C129.57377819499936 638.8151942186666 71.76059125814692 593.8077122154439 33.58149608417216 517.2963547949312C-4.597599089802657 440.7849973744185 -5.798305290280666 367.5279408905137 29.85286550988883 289.8064821856618C65.50403631005827 212.0850234808098 121.81119210644107 165.2070731609884 204.7071159249847 144.23335301164167C287.60303974352826 123.259632862295 304.5685699946969 139.51709484150723 427.7532998388974 189.13262546879884C550.938029683098 238.74815609609044 794.5742008094126 295.77465282757476 795.9938191771462 382.38790002264227C797.4134375448798 469.0011472177098 556.0010715107219 547.6526499673136 434.5674680040181 604.8762120051222 "></path><path d="M786.9939596503928 382.78815837617594C788.3813139643146 467.4329226804464 552.4555926127509 544.2968912766501 433.7818437311996 600.2199178135994C315.10809484964807 656.1429443505486 299.0001013473227 669.0498119847736 217.3599650189451 651.2186857535321C135.71982869056757 633.3875595222906 79.22057782046176 589.402974837323 41.90918935498638 514.6305119036401C4.5978008895110065 439.8580489699573 3.4243834663166126 368.2659255879594 38.265300384664044 292.3108636718541C73.10621730301153 216.35580175574881 128.13366501311287 170.5432593977415 209.14559056305325 150.04621470633447C290.15751611299356 129.54917001492748 306.737466131181 145.43714422188492 427.122543024377 193.92504915310172C547.507619917573 242.41295408431847 785.6066053364714 298.1433940719054 786.9939596503928 382.78815837617594C788.3813139643146 467.4329226804464 552.4555926127509 544.2968912766501 433.7818437311996 600.2199178135994 "></path><path d="M777.9941001236398 383.1884167297096C779.3491903837489 465.8646981431832 548.9101137147801 540.9411325859868 432.9962194583809 595.5636236220769C317.0823252019819 650.1861146581667 301.3489361997106 662.7928225799678 221.60740769292318 645.3763737029412C141.86587918613577 627.9599248259148 86.6805643827766 584.9982374592021 50.23688262580066 511.9646690123491C13.793200868824727 438.9311005654961 12.647072222913891 369.00391028540514 46.67773525943932 294.81524515804654C80.70839829596474 220.62658003068776 134.45613791978468 175.87944563449457 213.5840652011217 155.85907640102727C292.71199248245875 135.83870716755996 308.90636226766514 151.3571936022626 426.4917862098566 198.71747283740456C544.077210152048 246.07775207254656 776.6390098635302 300.512135316236 777.9941001236398 383.1884167297096C779.3491903837489 465.8646981431832 548.9101137147801 540.9411325859868 432.9962194583809 595.5636236220769 "></path><path d="M768.9941795617301 383.5887056008214C770.3170057680272 464.2965041234979 545.3645737816528 537.5854044129017 432.21053415040615 590.9073599481322C319.0564945191594 644.2293154833629 303.6977100169422 656.5358636927401 225.854789331745 639.5340921699285C148.01186864654773 622.5323206471169 94.14048990993518 580.5935305986593 58.56451486145869 509.29885663863615C22.988539812982197 438.004182678613 21.86969994435492 369.74192550042903 55.09010909905834 297.31965716181696C88.3105182537617 224.8973888232049 140.77854979130024 181.21566238882582 218.022478804034 161.6719686132982C295.2664078167677 142.12827483777062 311.07519736899303 157.27727350021837 425.86096836018 203.50992703928557C540.6467393513669 249.74258057835272 767.6713533554328 302.8809070781449 768.9941795617301 383.5887056008214C770.3170057680272 464.2965041234979 545.3645737816528 537.5854044129017 432.21053415040615 590.9073599481322 "></path><path d="M759.9943810701329 383.9889944719333C761.284943222618 462.7283101038129 541.8191559188381 534.2296762398163 431.4249709127438 586.2510962741876C321.0307859066494 638.272516308559 306.04660590448634 650.2789048055124 230.1022930408792 633.6918106369158C154.15798017727218 617.1047164683191 101.60053750740633 576.1888237381165 66.89226916742922 506.6330442649232C32.18400082745211 437.07726479172993 31.09244973610845 370.4799407154528 63.5026050089898 299.8240691655874C95.91276028187116 229.16819761572197 147.10108373312823 186.55187914315707 222.4610144772588 167.48486082556917C297.82094522138937 148.41784250798122 313.2441545406334 163.1973533981742 425.23027258081584 208.3023812411666C537.2163906209983 253.40740908415887 758.7038189176478 305.24967884005366 759.9943810701329 383.9889944719333C761.284943222618 462.7283101038129 541.8191559188381 534.2296762398163 431.4249709127438 586.2510962741876 "></path><path d="M750.9945215433795 384.389252825467C752.2528196420526 461.1600855665496 538.2736770208671 530.873917549153 430.6393466399252 581.5948020826652C323.00501625898323 632.3156866161771 308.3954407568741 644.0219154007067 234.34973571485727 627.8494985863249C160.30403067284038 611.6770817719432 109.06052406972117 571.7840863599956 75.2199624382435 503.9672013736322C41.37940080676583 436.15031638726873 40.315138492705785 371.2179254128986 71.91503988376508 302.3284506517798C103.51494127482442 233.43897589066097 153.42355663980004 191.88806537991013 226.89948911532736 173.29772252026197C300.37542159085456 154.70737966061375 315.41305067711767 169.11740277855188 424.59951576629544 213.09480492546942C533.7859808554732 257.07220707238696 749.7362234447066 307.6184200843844 750.9945215433795 384.389252825467C752.2528196420526 461.1600855665496 538.2736770208671 530.873917549153 430.6393466399252 581.5948020826652 "></path><path d="M741.9946620166263 384.78952643778973C743.2206960614872 459.59187628807535 534.7281981228962 527.5181741172787 429.8537223671067 576.9385231499314C324.97924661131697 626.3588721825843 310.744275609262 637.76494125469 238.59717838883523 622.0072017945231C166.4500811684086 606.2494623343564 116.52051063203601 567.3793642406638 83.54765570905772 501.3013737411302C50.57480078607949 435.2233832415966 49.537827249303064 371.9559253691333 80.32747475854035 304.83284739676117C111.11712226777763 237.70976942438904 159.74602954647185 197.22426687545232 231.3379637533958 179.11059947374383C302.92989796031986 160.9969320720353 317.5819468136018 175.03746741771863 423.96875895177504 217.88724386856137C530.3555710899483 260.7370203194041 740.7686279717655 309.98717658750417 741.9946620166263 384.78952643778973C743.2206960614872 459.59187628807535 534.7281981228962 527.5181741172787 429.8537223671067 576.9385231499314 "></path><path d="M732.9948024898731 385.18981530890153C734.1885724809217 458.0236822683902 531.1827192249252 524.1624459441935 429.06809809428796 572.2822594759868C326.9534769636507 620.4020730077805 313.09311046164976 631.5079823674623 242.8446210628133 616.1649202615104C172.59613166397673 600.8218581555585 123.98049719435085 562.974657380121 91.875348979872 498.63556136741727C59.77020076539321 434.2964653547134 58.76051600590034 372.6939405841572 88.73990963331556 307.3372594005316C118.71930326073084 241.9805782169061 166.06850245314365 202.56048362978356 235.77643839146435 184.92349168601476C305.48437432978517 167.28649974224595 319.75084295008594 180.9575473156744 423.33800213725453 222.67969807044233C526.9251613244232 264.40184882521027 731.8010324988243 312.355948349413 732.9948024898731 385.18981530890153C734.1885724809217 458.0236822683902 531.1827192249252 524.1624459441935 429.06809809428796 572.2822594759868 "></path><path d="M723.9948514103853 385.5900736624353C725.1563573476219 456.4554577311269 527.6371487742199 520.80668725353 428.2823822687351 567.6259652844642C328.92761576325006 614.4452433153986 315.44185376130326 625.2509929626565 247.09197218405689 610.3226082109195C178.74209060681056 595.3942234591825 131.4403922039313 558.5699200020001 100.2029506979519 495.9697184761262C68.96550919197256 433.3695169502522 67.98311320976325 373.43192528160284 97.15225295535646 309.841640886724C126.32139270094967 246.25135649184512 172.39088380708108 207.89666986653668 240.21482147679853 190.73635338070756C308.038759146516 173.57603689487843 321.9196475338358 186.87759669605208 422.7071537699999 227.47212175474522C523.4946600061639 268.06664681343835 722.8333454731487 314.7246895937436 723.9948514103853 385.5900736624353C725.1563573476219 456.4554577311269 527.6371487742199 520.80668725353 428.2823822687351 567.6259652844642 "></path><path d="M714.9950834363664 385.9903625335471C716.1243253197908 454.88726371144173 524.0917614289833 517.4509590804447 427.49684954865074 562.9697016105197C330.90193766831817 608.4884441405947 317.7907801664255 618.9940340754289 251.33950641076933 604.4803266779068C184.88823265511314 589.9666192803847 138.90047031898052 554.1652131414576 108.53073552150056 493.3039061024133C78.1610007240206 432.44259906336913 77.2058935190949 374.16994049662674 105.5647793828661 312.34605289049443C133.92366524663726 250.52216528436225 178.7134482664872 213.23288662086787 244.65338766760146 196.54924559297848C310.59332706871567 179.86560456508903 324.0886352230543 192.7976765940079 422.07648850821386 232.26457595662623C520.0643417933734 271.7314753192445 713.8658415529419 317.0934613556525 714.9950834363664 385.9903625335471C716.1243253197908 454.88726371144173 524.0917614289833 517.4509590804447 427.49684954865074 562.9697016105197 "></path><path d="M705.9952239096131 386.3906514046589C707.0922017392254 453.31906969175657 520.5462825310124 514.0952309073596 426.71122527583225 558.3134379365752C332.876168020652 602.5316449657909 320.1396150188133 612.7370751882013 255.5869490847474 598.638045144894C191.03428315068135 584.539015101587 146.36045688129536 549.7605062809148 116.85842879231484 490.63809372870037C87.35640070333432 431.51568117648605 86.42858227569218 374.9079557116505 113.97721425764138 314.8504648942649C141.52584623959052 254.79297407687932 185.035921173159 218.56910337519912 249.09186230567002 202.3621378052494C313.147803438181 186.1551722352997 326.25753135953846 198.7177564919637 421.44573169369346 237.0570301585072C516.6339320278485 275.3963038250507 704.8982460800007 319.46223311756125 705.9952239096131 386.3906514046589C707.0922017392254 453.31906969175657 520.5462825310124 514.0952309073596 426.71122527583225 558.3134379365752 "></path><path d="M696.9953338652816 386.7909402757707C698.0600476410818 451.7508756720714 517.0007731154633 510.7395027342743 425.9255704854354 553.6571742626306C334.8503678554076 596.5748457909871 322.48841935362304 606.4801163009736 259.83436124114723 592.7957636118813C197.18030312867143 579.111410922789 153.82041292603208 545.355799420372 125.186091545551 487.97228135498744C96.55177016506985 430.58876328960287 95.65124051471139 375.6459709266744 122.38961861483847 317.3548768980354C149.1279967149656 259.06378286939645 191.3583635622527 223.90532012953037 253.53030642616034 208.17503001752033C315.70224929006804 192.4447399055103 328.4263969784445 204.63783638991947 420.81494436159494 241.8494843603882C513.2034917447454 279.0611323308569 695.9306200894813 321.8310048794701 696.9953338652816 386.7909402757707C698.0600476410818 451.7508756720714 517.0007731154633 510.7395027342743 425.9255704854354 553.6571742626306 "></path><path d="M687.9955048561064 387.1911986293044C689.0279545780945 450.1826511348081 513.4553247350705 507.38374404361093 425.13997673019503 549.000880071108C336.8246287253196 590.618016098605 324.83728472358905 600.2231268961677 264.0818344327033 586.9534515612904C203.32638414181775 573.6837762264131 161.28043000592504 540.9510620422511 133.51381533394334 485.3064384636964C105.7472006619617 429.6618148851418 104.8739597888868 376.38395562412006 130.80208400719187 319.85925838422776C156.73020822549694 263.3345611443354 197.68086698650262 229.24150636628343 257.968811581807 213.98789171221313C318.25675617711147 198.73427705814282 330.59532363250673 210.55788577029716 420.18421806465267 246.64190804469104C509.7731124967986 282.72593031908497 686.9630551341182 324.19974612380076 687.9955048561064 387.1911986293044C689.0279545780945 450.1826511348081 513.4553247350705 507.38374404361093 425.13997673019503 549.000880071108 "></path><path d="M678.995645329353 387.59147224162723C679.9958309975291 448.6144418563339 509.9098458370995 504.0280006117366 424.3543524573764 544.3446011383744C338.79885907765333 584.6612016650122 327.1861195759768 593.9661527501512 268.3292771066814 581.1111547694886C209.47243463738596 568.2561567888263 168.74041656823988 536.5463399229193 141.84150860475762 482.6406108311944C114.94260064127542 428.73488173946953 114.09664854548407 377.1219555803549 139.21451888196714 322.3636551292092C164.33238921845015 267.60535467806346 204.00333989317437 234.57770786182562 262.4072862198756 219.800768665695C320.8112325465768 205.02382946956436 332.76421976899087 216.47795040946392 419.5534612501323 251.434346987783C506.3427027312737 286.39074356610206 677.995459661177 326.5685026269205 678.995645329353 387.59147224162723C679.9958309975291 448.6144418563339 509.9098458370995 504.0280006117366 424.3543524573764 544.3446011383744 "></path><path d="M669.9957858025997 387.991761112739C670.9637074169636 447.0462478366487 506.36436693912856 500.67227243865136 423.5687281845578 539.6883374644299C340.77308942998707 578.7044024902084 329.5349544283647 587.7091938629235 272.57671978065946 575.2688732364759C215.6184851329541 562.8285526100284 176.20040313055472 532.1416330623765 150.1692018755719 479.9747984574815C124.13800062058908 427.80796385258645 123.31933730208135 377.8599707953787 147.62695375674235 324.8680671329796C171.9345702114034 271.87616347058054 210.32581279984618 239.91392461615686 266.84576085794413 225.6136608779659C323.36570891604197 211.31339713977502 334.9331159054751 222.39803030741973 418.9227044356119 256.226801189664C502.91229296574875 290.0555720719083 669.0278641882359 328.93727438882934 669.9957858025997 387.991761112739C670.9637074169636 447.0462478366487 506.36436693912856 500.67227243865136 423.5687281845578 539.6883374644299 "></path><path d="M660.9959262758464 388.3920194662727C661.9315838363982 445.4780232993854 502.8188880411576 497.31651374798787 422.7831039117392 535.0320432729072C342.7473197823208 572.7475727978265 331.8837892807526 581.4522044581176 276.8241624546374 569.426561185885C221.7645356285223 557.4009179136524 183.66038969286956 527.7368956842556 158.49689514638618 477.30895556619043C133.3334005999028 426.88101544812525 132.54202605867863 378.59795549282444 156.03938863151762 327.37244861917196C179.53675120435662 276.14694174551954 216.64828570651798 245.25011085290998 271.2842354960126 231.4265225726587C325.9201852855073 217.6029342924075 337.10201204195926 228.31807968779736 418.2919476210915 261.01922487396683C499.4818832002236 293.7203700601363 660.0602687152947 331.30601563316003 660.9959262758464 388.3920194662727C661.9315838363982 445.4780232993854 502.8188880411576 497.31651374798787 422.7831039117392 535.0320432729072 "></path><path d="M651.9960667490931 388.7923083373845C652.8994602558328 443.90982927970026 499.27340914318665 493.96078557490273 421.9974796389206 530.3757795989627C344.72155013465454 566.7907736230226 334.23262413314046 575.1952455708899 281.07160512861543 563.5842796528723C227.9105861240905 551.9733137348546 191.1203762551844 523.3321888237128 166.82458841720046 474.6431431924775C142.52880057921647 425.9540975612422 141.7647148152759 379.3359707078482 164.4518235062929 329.87686062294244C187.13893219730983 280.41775053803667 222.9707586131898 250.58632760724117 275.7227101340811 237.23941478492964C328.4746616549726 223.8925019626181 339.2709081784434 234.23815958575318 417.6611908065711 265.81167907584785C496.05147343469866 297.38519856594246 651.0926732423534 333.67478739506885 651.9960667490931 388.7923083373845C652.8994602558328 443.90982927970026 499.27340914318665 493.96078557490273 421.9974796389206 530.3757795989627 "></path><path d="M642.9961919635507 389.1925972084964C643.8673214164783 442.3416352600151 495.72791498642664 490.60505740181736 421.21184010731304 525.7195159250181C346.6957652281993 560.8339744482188 336.58144372673917 568.9382866836623 285.3190325438044 557.7419981198595C234.05662136086966 546.5457095560569 198.58034755871017 518.9274819631701 175.15226642922568 471.9773308187646C151.72418529974112 425.0271796743591 150.98738831308418 380.073985922872 172.86424312227905 332.3812726267129C194.74109793147397 284.68855933055374 229.29321626107253 255.92254436157242 280.1611695133606 243.05230699720056C331.0291227656487 230.18206963282876 341.4397890561386 240.158239483709 417.0304187332616 270.6041332777288C492.6210484103847 301.0500270717487 642.1250625106231 336.04355915697766 642.9961919635507 389.1925972084964C643.8673214164783 442.3416352600151 495.72791498642664 490.60505740181736 421.21184010731304 525.7195159250181 "></path><path d="M633.9963476955865 389.5928555620301C634.8352130947019 440.7734107227518 492.18245134724475 487.2492987111541 420.4262310932834 521.0632217334954C348.6700108393221 554.8771447558368 338.9302938379161 562.6812972788566 289.5664904765715 551.8996860692687C240.20268711522692 541.1180748596809 206.04034937981407 514.5227445850492 183.47997495882896 469.31148792747354C160.9196005378439 424.1002312698979 160.21009232847052 380.81197062031777 181.27669325584338 334.8856541129053C202.34329418321624 288.95933760549275 235.6157044265334 261.25873059832554 284.59965941021824 248.86516869189336C333.5836143939031 236.47160678546123 343.6087004514118 246.0782888640867 416.3996771775303 275.3965569620317C489.1906539036488 304.71482505997676 633.157482296471 338.41230040130836 633.9963476955865 389.5928555620301C634.8352130947019 440.7734107227518 492.18245134724475 487.2492987111541 420.4262310932834 521.0632217334954 "></path><path d="M624.9964881688331 389.9930986567747C625.8030895141364 439.20517092669945 488.6369724492738 483.89352476170154 419.6406068204649 516.4069122831837C350.64424119165585 548.9202998046658 341.2791286903039 556.4242926152617 293.81393315054953 546.0573587598888C246.34873761079513 535.6904249045158 213.5003359421289 510.1179919481392 191.80766822964324 466.6456297773934C170.11500051715757 423.1732676066475 169.4327810850678 381.5499400589744 189.68912813061866 337.3900203403085C209.9454751761695 293.23010062164263 241.93817733320515 266.59490157628954 289.03813404828674 254.6780151277971C336.1380907633684 242.7611286793047 345.7775965878959 251.99832298567526 415.7689203630099 280.1889653875455C485.7602441381239 308.37960778941573 624.1898868235298 340.78102638684993 624.9964881688331 389.9930986567747C625.8030895141364 439.20517092669945 488.6369724492738 483.89352476170154 419.6406068204649 516.4069122831837 "></path><path d="M615.9966286420797 390.39338752788655C616.770965933571 437.6369769070143 485.09149355130285 480.5377965886164 418.8549825476463 511.7506486092392C352.6184715439897 542.9635006298621 343.62796354269176 550.167333728034 298.06137582452754 540.215077226876C252.49478810636333 530.262820725718 220.96032250444375 505.71328508759655 200.13536150045752 463.9798174036805C179.3104004964713 422.24634971976457 178.65546984166508 382.28795527399825 198.10156300539387 339.894432344079C217.54765616912272 297.50090941415976 248.26065023987695 271.9311183306208 293.4766086863553 260.4909073400681C338.6925671328336 249.0506963495153 347.94649272438005 257.9184028836311 415.1381635484895 284.9814195894265C482.32983437259895 312.0444362952219 615.2222913505886 343.1497981487588 615.9966286420797 390.39338752788655C616.770965933571 437.6369769070143 485.09149355130285 480.5377965886164 418.8549825476463 511.7506486092392 "></path><path d="M606.9967691153265 390.79369165778746C607.7388423530053 436.0687981461182 481.5460146533319 477.1820836743202 418.06935827482766 507.09440019408373C354.59270189632343 537.0067167138473 345.97679839507964 543.9103900995955 302.30881849850556 534.3728109526523C258.6408386019315 524.8352318057093 228.42030906675865 501.30859348584283 208.4630547712718 461.31402028875664C188.50580047578495 421.31944709167044 187.87815859826236 383.02598574781115 206.51399788016914 342.39885960663855C225.14983716207593 301.7717334654659 254.58312314654876 277.2673503437411 297.9150833244238 266.30381481112806C341.2470435022989 255.34027927851497 350.1153888608642 263.83849804037595 414.5074067339691 289.77388905009656C478.899424607074 315.70928005981716 606.2546958776475 345.5185851694566 606.9967691153265 390.79369165778746C607.7388423530053 436.0687981461182 481.5460146533319 477.1820836743202 418.06935827482766 507.09440019408373 "></path><path d="M597.996894329784 391.1939347525321C598.7067035136508 434.50055835006583 478.0005204965719 473.82630972486777 417.28371874322 502.438090743772C356.5669169898681 531.0498717626763 348.32561798867835 537.6533854360007 306.5562459136945 528.5304836432724C264.7868738387106 519.4075818505443 235.88028037028442 496.9038408489329 216.79073278329702 458.6481621386765C197.7011851963096 420.3924834284202 197.10083209607058 383.7639551864678 214.92641749615535 344.90322583404185C232.75200289624007 306.04249648161584 260.9055807944315 282.6035213217051 302.3535427037033 272.1166612470318C343.80150461297507 261.62980117235844 352.2842697385594 269.7585321619646 413.87663466065965 294.5662974756104C475.4689995827599 319.37406278925613 597.2870851459172 347.8873111549983 597.996894329784 391.1939347525321C598.7067035136508 434.50055835006583 478.0005204965719 473.82630972486777 417.28371874322 502.438090743772 "></path><path d="M588.9970348030308 391.59422362364387C589.6745799330854 432.93236433038066 474.4550415986009 470.4705815517825 416.4980944704014 497.7818270698275C358.54114734220184 525.0930725878725 350.6744528410662 531.396426548773 310.8036885876725 522.6882021102597C270.9329243342788 513.9799776717464 243.34026693259926 492.4991339883901 225.1184260541113 455.9823497649636C206.89658517562327 419.4655655415371 206.3235208526679 384.50197040149163 223.33885237093057 347.40763783781233C240.35418388919334 310.313305274133 267.22805370110325 287.93973807603635 306.7920173417718 277.9295534593027C346.3559809824403 267.91936884256904 354.4531658750435 275.67861205992034 413.24587784613925 299.35875167749134C472.0385898172349 323.03889129506234 588.319489672976 350.2560829169071 588.9970348030308 391.59422362364387C589.6745799330854 432.93236433038066 474.4550415986009 470.4705815517825 416.4980944704014 497.7818270698275 "></path><path d="M579.9972057938555 391.9945124947557C580.6424868700981 431.3641703106955 470.9095932182081 467.11485337869726 415.712500715161 493.12556339588286C360.51540821211375 519.1362734130686 353.02331821103223 525.1394676615453 315.05116177922866 516.8459205772469C277.07900534742515 508.5523734929486 250.80028401249223 488.0944271278473 233.44614984250364 453.3165373912507C216.09201567251512 418.538647654654 215.54624012684332 385.23998561651547 231.75131776328396 349.91204984158276C247.95639539972467 314.58411406665005 273.5505571253532 293.2759548303676 311.23052249741846 283.74244567157365C348.91048786948375 274.2089365127797 356.62209252910577 281.59869195787616 412.615151549197 304.15120587937236C468.6082105692882 326.7037198008685 579.351924717613 352.6248546788159 579.9972057938555 391.9945124947557C580.6424868700981 431.3641703106955 470.9095932182081 467.11485337869726 415.712500715161 493.12556339588286 "></path><path d="M570.9973157495241 392.3947708482894C571.6103327719545 429.7959457734322 467.364083802659 463.7590946880339 414.9268459247643 488.4692692043602C362.4896080468694 513.1794437206867 355.37212254584193 518.8824782567395 319.29857393562855 511.0036085266561C283.22502532541523 503.12473879657273 258.26024005722894 483.6896897497264 241.7738125957398 450.6506944999596C225.2873851342507 417.6116992501928 224.76889836586247 385.9779703139612 240.1637221204811 352.4164313277751C255.55854587509975 318.85489234158905 279.87299951444686 298.6121410671207 315.66896661790884 289.55530736626645C351.46493372137087 280.4984736654122 358.79095814801184 287.51874133825385 411.98436421709846 308.9436295636752C465.177770286185 330.3685177890966 570.3842987270937 354.9935959231466 570.9973157495241 392.3947708482894C571.6103327719545 429.7959457734322 467.364083802659 463.7590946880339 414.9268459247643 488.4692692043602 "></path><path d="M561.9974562227708 392.7950444606122C562.5782091913891 428.227736494958 463.8186049046881 460.40335125615957 414.14122165194567 483.81299027162663C364.46383839920315 507.2226292870938 357.72095739822976 512.6255041107228 323.54601660960657 505.1613117348543C289.37107582098344 497.6971193589858 265.7202266195438 479.2849676303946 250.10150586655408 447.98486686745764C234.48278511356438 416.68476610452063 233.99158712245975 386.71597027019595 248.57615699525638 354.92082807275654C263.16072686805296 323.12568587531706 286.19547242111867 303.94834256266284 320.1074412559774 295.3681843197483C354.0194100908361 286.7880260768337 360.95985428449603 293.4388059774206 411.35360740257806 313.73606850676714C461.7473605206601 334.0333310361137 561.4167032541525 357.36235242626634 561.9974562227708 392.7950444606122C562.5782091913891 428.227736494958 463.8186049046881 460.40335125615957 414.14122165194567 483.81299027162663 "></path><path d="M552.9976272135956 393.195333331724C553.5461161284018 426.6595424752728 460.27315652429525 457.0476230830743 413.3556278967052 479.1567265976821C366.43809926911507 501.2658301122899 360.0698227681957 506.3685452234952 327.79348980116276 499.31903020184154C295.51715683412976 492.269515180188 273.18024369943674 474.88026076985193 258.4292296549465 445.3190544937447C243.67821561045622 415.75784821763756 243.21430639663515 387.4539854852198 256.9886223876097 357.42524007652696C270.7629383785843 327.3964946678342 292.5179758453686 309.2845593169941 324.5459464116241 301.18107653201923C356.57391697787955 293.0775937470444 363.1287809385583 299.35888587537636 410.7228811056358 318.52852270864815C458.3169812727133 337.6981595419199 552.4491382987894 359.73112418817516 552.9976272135956 393.195333331724C553.5461161284018 426.6595424752728 460.27315652429525 457.0476230830743 413.3556278967052 479.1567265976821 "></path><path d="M543.9977371692642 393.59559168525766C544.5139620302582 425.0913179380095 456.72764710874617 453.69186439241093 412.56997310630845 474.50043240615946C368.41229910387074 495.309000419908 362.41862710300546 500.11155581868934 332.0409019575626 493.4767181512507C301.6631768121198 486.841880483812 280.64019974417346 470.47552339173103 266.75689240818264 442.65321160245367C252.87358507219176 414.83089981317636 252.4369646356543 388.1919701826655 265.40102674480687 359.9296215627194C278.36508885395943 331.6672729427732 298.8404182344622 314.6207455537472 328.98439053211445 306.99393822671203C359.1283628297667 299.36713089967685 365.2976465574643 305.27893525575405 410.0920937735373 323.320946392951C454.88654098961024 341.3629575301479 543.4815123082701 362.09986543250585 543.9977371692642 393.59559168525766C544.5139620302582 425.0913179380095 456.72764710874617 453.69186439241093 412.56997310630845 474.50043240615946 "></path><path d="M534.9978776425107 393.9958805563695C535.4818384496928 423.52312391832436 453.1821682107752 450.3361362193257 411.78434883348984 469.84416873221494C370.38652945620447 489.3522012451042 364.7674619553933 493.85459693146174 336.28834463154067 487.63443661823794C307.809227307688 481.41427630501425 288.1001863064883 466.07081653118826 275.0845856789969 439.98739922874074C262.0689850515055 413.9039819262932 261.65965339225164 388.92998539768934 273.81346161958214 362.4340335664898C285.96726984691264 335.93808173529027 305.162891141134 319.9569623080784 333.422865170183 312.80683043898296C361.6828391992319 305.6566985698875 367.4665426939485 311.19901515370987 409.4613369590169 328.113400594832C451.4561312240853 345.02778603595414 534.5139168353289 364.46863719441467 534.9978776425107 393.9958805563695C535.4818384496928 423.52312391832436 453.1821682107752 450.3361362193257 411.78434883348984 469.84416873221494 "></path><path d="M525.9980486333357 394.3961389099032C526.4497453867054 421.95489938106107 449.6367198303824 446.9803775286623 410.99875507824936 465.1878745406923C372.36079032611633 483.3953715527223 367.1163273253593 487.5976075266559 340.53581782309675 481.7921245676471C313.9553083208343 475.98664160863825 295.56020338638126 461.66607915306736 283.41230946738926 437.3215563374497C271.2644155483973 412.977033521832 270.88237266642705 389.66797009513505 282.2259270119355 364.93841505268216C293.569481357444 340.2088600102293 311.48539456538396 325.2931485448315 337.8613703258296 318.61969213367576C364.23734608627535 311.94623572252 369.63546934801076 317.11906453408756 408.8306106620746 332.90582427913483C448.0257519761384 348.69258402418217 525.5463518799658 366.83737843874536 525.9980486333357 394.3961389099032C526.4497453867054 421.95489938106107 449.6367198303824 446.9803775286623 410.99875507824936 465.1878745406923 "></path><path d="M516.9981585890041 394.79642778101504C517.4175912885619 420.3867053613759 446.0912104148333 443.62464935557705 410.2131002878526 460.5316108667477C374.334990160872 477.4385723779184 369.465131660169 481.3406486394283 344.7832299794967 475.94984303463434C320.1013282988244 470.5590374298404 303.020159431118 457.2613722925246 291.7399722206254 434.65574396373677C280.45978501013286 412.05011563494895 280.1050309054462 390.4059853101589 290.63833136913263 367.44282705645264C301.17163183281906 344.47966880274635 317.80783695447764 330.62936529916277 342.29981444632006 324.4325843459467C366.7917919381625 318.23580339273065 371.8043349669168 323.0391444320433 408.1998233299761 337.69827848101585C444.59531169303534 352.3574125299884 516.5787258894464 369.2061502006542 516.9981585890041 394.79642778101504C517.4175912885619 420.3867053613759 446.0912104148333 443.62464935557705 410.2131002878526 460.5316108667477 "></path><path d="M507.9982990622508 395.19671665212684C508.38546770799644 418.81851134169074 442.54573151686236 440.2689211824918 409.4274760150341 455.8753471928032C376.3092205132058 471.4817732031147 371.8139665125568 475.0836897522006 349.0306726534747 470.1075615016216C326.2473787943926 465.1314332510426 310.4801459934328 452.85666543198187 300.0676654914397 431.98993159002384C289.6551849894466 411.1231977480659 289.3277196620435 391.1440005251827 299.0507662439079 369.9472390602231C308.77381282577227 348.7504775952635 324.1303098611494 335.965582053494 346.73828908438855 330.2454765582176C369.3462683076277 324.52537106294125 373.97323110340096 328.95922432999913 407.5690665154557 342.49073268289686C441.1649019275104 356.02224103579454 507.61113041650526 371.574921962563 507.9982990622508 395.19671665212684C508.38546770799644 418.81851134169074 442.54573151686236 440.2689211824918 409.4274760150341 455.8753471928032 "></path><path d="M498.9984395354975 395.5969597468715C499.3533441274309 417.2502715456384 439.0002526188914 436.91314723303935 408.64185174221547 451.2190377424915C378.2834508655395 465.5249282519436 374.16280136494464 468.8266850886058 353.2781153274527 464.2652341922417C332.3934292899608 459.7037832958776 317.94013255574765 448.4519127950719 308.395358762254 429.32407343994373C298.85058496876024 410.19623408481556 298.55040841864076 391.88196996383937 307.4632011186831 372.45160528762636C316.37599381872553 353.0212406114134 330.4527827678212 341.301753031458 351.1767637224571 336.05832299412134C371.90074467709303 330.81489295678466 376.14212723988516 334.87925845158776 406.9383097009353 347.28314110841063C437.73449216198543 359.68702376523356 498.6435349435641 373.9436479481046 498.9984395354975 395.5969597468715C499.3533441274309 417.2502715456384 439.0002526188914 436.91314723303935 408.64185174221547 451.2190377424915 "></path><path d="M489.99862578511136 395.99726387677237C490.32126632323263 415.6820927847423 435.45481949728764 433.55743431874316 407.8562732457641 446.56278932733596C380.25772699424044 459.5681443359288 376.5116819936997 462.56974146016717 357.5256037777979 458.422967918018C338.53952556189614 454.27619437586884 325.4001648944297 444.0472211933182 316.72309780943544 426.65827632501987C308.04603072444115 409.26933145672155 307.7731429516052 392.62000043765227 315.8756817698256 374.9560325501859C323.97822058804593 357.29206466271955 336.7753014508602 346.63798504457833 355.6152841368928 341.8712304651813C374.45526682292547 337.1044758857844 378.3110691527365 340.79935360833264 406.3075986627821 352.0756105690807C434.3041281728277 363.3518675298288 489.6759852469901 376.3124349688025 489.99862578511136 395.99726387677237C490.32126632323263 415.6820927847423 435.45481949728764 433.55743431874316 407.8562732457641 446.56278932733596 "></path><path d="M480.99872048199086 396.3975222303061C481.2890969663 414.113868247479 431.9092948229495 430.2016756280798 407.0706031965783 441.9064951358133C382.23191157020705 453.6113146435469 378.86047106972035 456.3127520553614 361.77300067540875 452.58065586742714C344.68553028109716 448.8485596794929 332.86010568037733 439.6424838151973 325.05074530388254 423.9924334337288C317.2413849273877 408.34238305226035 316.99578593183537 393.357985135098 324.28807086823366 377.46041403637827C331.58035580463195 361.56284293765856 343.0977285811648 351.97417128133145 360.05371299859416 347.6840921598741C377.0096974160235 343.39401303841686 380.4799195128535 346.71940298871027 405.6767960718945 356.8680342533836C430.8736726309355 367.01666551805687 480.7083439976817 378.6811762131332 480.99872048199086 396.3975222303061C481.2890969663 414.113868247479 431.9092948229495 430.2016756280798 407.0706031965783 441.9064951358133 "></path><path d="M471.99886095523755 396.79779584262883C472.25697338573457 412.54565896900476 428.36381592497855 426.84593219620547 406.2849789237597 437.25021620307973C384.20614192254084 447.654500209954 381.2093059221082 450.05577790934467 366.02044334938677 446.73835907562534C350.83158077666536 443.420940241906 340.3200922426922 435.2377616958655 333.37843857469676 421.32660580122683C326.43678490670135 407.41544990658815 326.21847468843265 394.09598509133275 332.7005057430089 379.9648107813597C339.18253679758516 365.83363647138657 349.4202014878366 357.3103727768736 364.4921876366627 353.49696911335604C379.5641737854888 349.68356544983845 382.6488156493376 352.639467627877 405.0460392573741 361.6604731964755C427.4432628654106 370.68147876507396 471.7407485247405 381.04993271625295 471.99886095523755 396.79779584262883C472.25697338573457 412.54565896900476 428.36381592497855 426.84593219620547 406.2849789237597 437.25021620307973 "></path><path d="M462.9990166872733 397.1980694549516C463.2248650639582 410.97744969053053 424.81835228579666 423.49018876433115 405.49936990973015 432.59393727034615C386.18038753366363 441.69768577636114 383.5581560332851 443.79880376332795 370.26790128215384 440.89606228382354C356.97764653102263 437.9933208043191 347.7800940637961 430.8330395765337 341.7061471043001 418.66077816872485C335.63220014480413 406.488516760916 335.441178703819 394.8339850475675 341.1129558765732 382.46920752634105C346.78473304932743 370.10443000511464 355.7426896532975 362.64657427241576 368.9306775335203 359.3098460668379C382.11866541374314 355.97311786126 384.8177270446109 358.5595322670438 404.41529770164277 366.45291213956745C424.01286835867467 374.3462920120911 462.77316831058835 383.4186892193727 462.9990166872733 397.1980694549516C463.2248650639582 410.97744969053053 424.81835228579666 423.49018876433115 405.49936990973015 432.59393727034615 "></path><path d="M453.9991571605199 397.5983583260634C454.19274148339275 409.40925567084537 421.2728733878257 420.1344605912459 404.71374563691154 427.9376735964016C388.1546178859974 435.74088660155735 385.90699088567294 437.5418448761003 374.51534395613186 435.0537807508108C363.12369702659083 432.5657166255213 355.24008062611097 426.4283327159909 350.0338403751144 415.9949657950119C344.8276001241178 405.56159887403294 344.66386746041627 395.57200026259136 349.5253907513485 384.97361953011153C354.3869140422807 374.3752387976317 362.0651625599692 367.982791026747 373.36915217158884 365.12273827910883C384.6731417832084 362.26268553147065 386.986623181095 364.4796121649996 403.7845408871224 371.2453663414484C420.58245859314974 378.01112051789727 453.80557283764716 385.78746098128147 453.9991571605199 397.5983583260634C454.19274148339275 409.40925567084537 421.2728733878257 420.1344605912459 404.71374563691154 427.9376735964016 "></path><path d="M444.9992976337666 397.9986319383862C445.16061790282725 407.84104639237114 417.72739448985476 416.7787171593716 403.928121364093 423.281394663668C390.12884823833116 429.78407216796444 388.25582573806076 431.2848707300836 378.76278663010993 429.211483959009C369.26974752215904 427.1380971879344 362.7000671884258 422.02361059665907 358.36153364592866 413.32913816250993C354.0230001034315 404.63466572836074 353.88655621701355 396.31000021882613 357.93782562612375 387.47801627509295C361.9890950352339 378.6460323313598 368.38763546664103 373.31899252228914 377.80762680965734 370.9356152325907C387.22761815267364 368.5522379428922 389.1555193175792 370.3996768041663 403.153784072602 376.03780528454035C417.15204882762475 381.6759337649144 444.837977364706 388.1562174844012 444.9992976337666 397.9986319383862C445.16061790282725 407.84104639237114 417.72739448985476 416.7787171593716 403.928121364093 423.281394663668 "></path><path d="M435.99942284822424 398.3988902919199C436.12847906347275 406.27282185510785 414.18190033309475 413.4229584687082 403.1424818324853 418.62510047214533C392.1030633318759 423.82724247558247 390.6046453316596 425.0278813252778 383.0102140452989 423.36917190841814C375.4157827589382 421.7104624915585 370.1600384919516 417.6188732185382 366.6892116579539 410.6632952712189C363.21838482395617 403.70771732389954 363.10922971482177 397.04798491627184 366.3502452421099 389.9823977612853C369.59126076939805 382.9168106062988 374.7100931145238 378.65517875904226 382.24608618893683 376.7484769272835C389.7820792633499 374.84177509552467 391.3244001952743 376.319726184544 402.5230119992925 380.83022896884324C413.72162380331076 385.34073175314245 435.87036663297573 390.5249587287319 435.99942284822424 398.3988902919199C436.12847906347275 406.27282185510785 414.18190033309475 413.4229584687082 403.1424818324853 418.62510047214533 "></path><path d="M426.99957858026 398.79917916303174C427.0963707416964 404.7046278354227 410.63643669391286 410.06723029562295 402.35687281845577 413.9688367982008C394.0773089429987 417.8704433007787 392.95349544283647 418.77092243805015 387.25767197806596 417.5268903754054C381.5618485132954 416.28285831276065 377.6200403130555 413.21416635799545 375.0169201875572 407.99748289750596C372.4138000620589 402.78079943701647 372.33193373020816 397.7860001312957 374.76269537567424 392.4868097650558C377.1934570211403 387.18761939881585 381.03258127998464 383.9913955133735 386.6845760857944 382.5613691395544C392.3365708916042 381.1313427657353 393.49331159054753 382.2398060824998 401.8922704435612 385.6226831707242C410.29122929657484 389.00556025894866 426.90278641882355 392.89373049064073 426.99957858026 398.79917916303174C427.0963707416964 404.7046278354227 410.63643669391286 410.06723029562295 402.35687281845577 413.9688367982008 "></path><path d="M417.9997190535066 399.1994375165654C418.0642471611309 403.1364032981594 407.0909577959419 406.71147160495957 401.5712485456372 409.3125426066781C396.0515392953325 411.9136136083967 395.3023302952243 412.51393303324437 391.50511465204397 411.68457832481454C387.7078990088636 410.8552236163847 385.0800268753703 408.8094289798746 383.34461345837144 405.3316400062149C381.6092000413726 401.85385103255527 381.55462248680544 398.5239848287414 383.1751302504495 394.9911912512481C384.7956380140936 391.45839767375486 387.3550541866564 389.3275817501266 391.12305072386295 388.3742308342472C394.89104726106945 387.4208799183678 395.66220772703167 388.1598554628775 401.2615136290408 390.4151068550271C406.8608195310499 392.6703582471767 417.93519094588237 395.2624717349714 417.9997190535066 399.1994375165654C418.0642471611309 403.1364032981594 407.0909577959419 406.71147160495957 401.5712485456372 409.3125426066781 "></path><path d="M408.9998595267533 399.59972638767726C409.03212358056544 401.5682092784742 403.54547889797095 403.3557434318743 400.7856242728186 404.6562789327336C398.0257696476662 405.9568144335929 397.6511651476122 406.2569741460167 395.752557326022 405.8422967918018C393.8539495044318 405.4276194375869 392.54001343768516 404.40472211933184 391.6723067291857 402.665827632502C390.8046000206863 400.92693314567214 390.7773112434027 399.2620000437652 391.5875651252247 397.4956032550186C392.3978190070468 395.72920646627193 393.6775270933282 394.6637985044578 395.56152536193144 394.18712304651814C397.44552363053475 393.71044758857846 397.83110386351586 394.07993536083325 400.6307568145204 395.20756105690805C403.4304097655249 396.3351867529829 408.9675954729412 397.63124349688024 408.9998595267533 399.59972638767726C409.03212358056544 401.5682092784742 403.54547889797095 403.3557434318743 400.7856242728186 404.6562789327336 "></path></g></svg>