<svg xmlns="http://www.w3.org/2000/svg" version="1.1" xmlns:xlink="http://www.w3.org/1999/xlink" xmlns:svgjs="http://svgjs.dev/svgjs" viewBox="0 0 800 800"><defs><linearGradient x1="50%" y1="0%" x2="50%" y2="100%" id="uundulate-grad"><stop stop-color="hsl(105, 69%, 40%)" stop-opacity="1" offset="45%"></stop><stop stop-color="hsl(105, 69%, 60%)" stop-opacity="1" offset="100%"></stop></linearGradient></defs><g stroke-width="2" stroke="url(#uundulate-grad)" fill="none"><path d="M1267.5698101919993 28.93171973161884C1384.5750418371408 387.467130952361 645.6440413926373 1093.4320134847906 306.13270124724613 1257.657210224635C-33.37863889814548 1421.8824069644797 -245.07939086073588 1175.7480753036139 -362.08462250587746 817.2126640828717C-479.089854151019 458.67725286212954 -595.0037507948257 -299.087566895083 -255.4924106494343 -463.3127636349276C84.01892949595708 -627.5379603747722 1150.5645785468575 -329.60369148912355 1267.5698101919993 28.93171973161884C1384.5750418371408 387.467130952361 645.6440413926373 1093.4320134847906 306.13270124724613 1257.657210224635 "></path><path d="M1240.458276511683 40.527673108230715C1353.8070946679136 387.8588527283248 637.9676879873009 1071.762332681616 309.06607722145304 1230.85549202334C-19.83553354439482 1389.9486513650645 -224.92063700815436 1151.506017568601 -338.2694551643852 804.174837948507C-451.618273320616 456.84365832841286 -563.9098606943038 -277.24101081138656 -235.00824992845594 -436.33417015311096C93.89336083739192 -595.4273294948355 1127.109458355452 -306.80350651186325 1240.458276511683 40.527673108230715C1353.8070946679136 387.8588527283248 637.9676879873009 1071.762332681616 309.06607722145304 1230.85549202334 "></path><path d="M1213.3467428313663 52.123504414530316C1323.0391474986864 388.2504524339761 630.2913345819647 1050.0925298081288 311.9994531956602 1204.0536517517328C-6.292428190644159 1358.0147736953372 -204.76188315557272 1127.263837763276 -314.4542878228929 791.1368897438299C-424.1466924902131 455.00994172438413 -532.8159705937819 -255.39457679800262 -214.52408920747757 -409.3556987416069C103.767792178827 -563.3168206852113 1103.6543381640463 -284.00344360491556 1213.3467428313663 52.123504414530316C1323.0391474986864 388.2504524339761 630.2913345819647 1050.0925298081288 311.9994531956602 1204.0536517517328 "></path><path d="M1186.2351481158937 63.719396755986054C1292.2711392943033 388.64211317478384 622.6149201414721 1028.422787969798 314.9327681347113 1177.2518725152822C7.250616127950252 1326.0809570607662 -184.60319033814744 1103.021718993107 -290.6391815165569 778.099002574309C-396.6751726949664 453.17628615551143 -501.7221415284163 -233.54808174946243 -194.03998952165534 -382.37716629494656C113.64216248510559 -531.2062508404308 1080.1991569374843 -261.2033196628116 1186.2351481158937 63.719396755986054C1292.2711392943033 388.64211317478384 622.6149201414721 1028.422787969798 314.9327681347113 1177.2518725152822 "></path><path d="M1159.1236144355773 75.31522806228554C1261.503192125076 389.0337128804349 614.9385667361357 1006.7529850963108 317.86614410891843 1150.4500322436747C20.793721481700914 1294.1470793910387 -164.4444364855658 1078.7795391877814 -266.82401417506463 765.0610543696318C-369.20359186456346 451.3425695514825 -470.6282514278944 -211.70164773607848 -173.55582880067698 -355.3986948834425C123.51659382654066 -499.0957420308065 1056.7440367460786 -238.40325675586394 1159.1236144355773 75.31522806228554C1261.503192125076 389.0337128804349 614.9385667361357 1006.7529850963108 317.86614410891843 1150.4500322436747 "></path><path d="M1132.0120502376828 86.91112040374128C1230.735214438271 389.42537362124267 607.2621828132214 985.0832432579798 320.79948956554745 1123.6482530072237C34.33679631787345 1262.2132627564677 -144.2857131505623 1054.5374204176123 -243.0088773511505 752.023167200111C-341.7320415517387 449.50891398260956 -439.5343918449506 -189.8551526875383 -153.07169859727662 -328.42016243678216C133.39099465039726 -466.98517218602603 1033.2888860370947 -215.60313281376 1132.0120502376828 86.91112040374128C1230.735214438271 389.42537362124267 607.2621828132214 985.0832432579798 320.79948956554745 1123.6482530072237 "></path><path d="M1104.9004860397883 98.50707378035327C1199.967236751466 389.81709539720623 599.5857988903069 963.4135624548053 323.73283502217646 1096.846534805929C47.879871154045986 1230.2795071570526 -124.12698981555889 1030.2953626825993 -219.1937405272364 738.9853410657463C-314.26049123891386 447.6753194488931 -408.44053226200685 -168.00859660384185 -132.58756839387638 -301.44156895496553C143.2653954742542 -434.87454130608927 1009.8337353281108 -192.80294783649975 1104.9004860397883 98.50707378035327C1199.967236751466 389.81709539720623 599.5857988903069 963.4135624548053 323.73283502217646 1096.846534805929 "></path><path d="M1077.7889218418939 110.10290508665287C1169.1992590646605 390.20869510285775 591.9094149673924 941.7437595813183 326.66618047880536 1070.044694534322C61.42294599021841 1198.3456294873256 -103.96826648055537 1006.0531828772741 -195.37860370332226 725.9473928610691C-286.788940926089 445.84160284486416 -377.3466726790631 -146.1621625904579 -112.10343819047603 -274.46309754346146C153.13979629811092 -402.76403249646506 986.378584619127 -170.002884929552 1077.7889218418939 110.10290508665287C1169.1992590646605 390.20869510285775 591.9094149673924 941.7437595813183 326.66618047880536 1070.044694534322 "></path><path d="M1050.6773576439994 121.6987974281086C1138.4312813778556 390.6003558436653 584.2330310444781 920.0740177429873 329.5995259354345 1043.242915297871C74.96602082639095 1166.4118128527543 -83.80954314555197 981.811064107105 -171.5634668794081 712.9095056915485C-259.31739061326425 444.0079472759917 -346.25281309611927 -124.31566754191772 -91.61930798707579 -247.48456509680113C163.01419712196775 -370.6534626516846 962.9234339101431 -147.20276098744807 1050.6773576439994 121.6987974281086C1138.4312813778556 390.6003558436653 584.2330310444781 920.0740177429873 329.5995259354345 1043.242915297871 "></path><path d="M1023.5657324109486 133.29468976956423C1107.663242655894 390.9920165844728 576.5565860864074 898.4042759046565 332.53281035690725 1016.4411360614197C88.50903462740723 1134.477996218183 -63.650880845704705 957.5689453369359 -147.74839109065022 699.8716185220273C-231.84590133559567 442.17429170711875 -315.15901454833175 -102.46917249337753 -71.13523881883168 -220.5060326501408C172.88853691066834 -338.5428928069041 939.468222166003 -124.40263704534414 1023.5657324109486 133.29468976956423C1107.663242655894 390.9920165844728 576.5565860864074 898.4042759046565 332.53281035690725 1016.4411360614197 "></path><path d="M996.4541987306322 144.89052107586394C1076.895295486667 391.3836162901242 568.880232681071 876.7344730311695 335.4661863311144 989.6392957898126C102.05213998115778 1102.5441185484558 -43.492126993123065 933.3267655316106 -123.93322374915795 686.8336703173504C-204.3743205051927 440.34057510309003 -284.06512444780986 -80.62273847999359 -50.651078097853315 -193.52756123863674C182.7629682521033 -306.4323839972799 916.0131019745975 -101.60257413839639 996.4541987306322 144.89052107586394C1076.895295486667 391.3836162901242 568.880232681071 876.7344730311695 335.4661863311144 989.6392957898126 "></path><path d="M969.3426345327377 156.48641341731968C1046.1273177998617 391.77527703093176 561.2038487581565 855.0647311928385 338.3995317877435 962.8375165533616C115.59521481733032 1070.6103019138845 -23.333403658119664 909.0846467614415 -100.1180869252438 673.7957831478295C-176.90277019236794 438.50691953421733 -252.9712648648661 -58.776243431453395 -30.16694789445296 -166.5490287919764C192.63736907596012 -274.3218141524994 892.5579512656136 -78.80245019629245 969.3426345327377 156.48641341731968C1046.1273177998617 391.77527703093176 561.2038487581565 855.0647311928385 338.3995317877435 962.8375165533616 "></path><path d="M942.231070334843 168.08236679393167C1015.3593401130568 392.16699880689555 553.527464835242 833.395050389664 341.3328772443724 936.0357983520669C129.13828965350285 1038.6765463144698 -3.174680323116263 884.8425890264286 -76.30295010132966 660.7579570134649C-149.4312198795431 436.67332500050077 -221.87740528192234 -36.92968734775695 -9.682817691052719 -139.57043531015978C202.51176989981695 -242.21118327256266 869.1028005566297 -56.00226521903227 942.231070334843 168.08236679393167C1015.3593401130568 392.16699880689555 553.527464835242 833.395050389664 341.3328772443724 936.0357983520669 "></path><path d="M915.1195061369488 179.67819810023116C984.5913624262514 392.55859851254684 545.8510809123277 811.7252475161768 344.26622270100154 909.2339580804596C142.6813644896754 1006.7426686447423 16.984043011887252 860.6004092211033 -52.48781327741551 647.7200088087875C-121.95966956671828 434.8396083964718 -190.78354569897851 -15.083253334373012 10.801312512347579 -112.5919638986557C212.38617072367367 -210.10067446293846 845.6476498476459 -33.20220231208452 915.1195061369488 179.67819810023116C984.5913624262514 392.55859851254684 545.8510809123277 811.7252475161768 344.26622270100154 909.2339580804596 "></path><path d="M888.0080334917884 191.2740904416869C953.8234762921807 392.9502592533544 538.1747885421476 790.055505677846 347.1996597103648 882.4321788440084C156.2245308785823 974.8088520101712 37.14285789962514 836.3582904509342 -28.672584900766992 634.6821216392668C-94.48802770115913 433.0059528275991 -159.68959456330037 6.7632417141671795 31.28553426848225 -85.61343145199538C222.26066310026488 -177.99010461815794 822.1925906913966 -10.402078369980586 888.0080334917884 191.2740904416869C953.8234762921807 392.9502592533544 538.1747885421476 790.055505677846 347.1996597103648 882.4321788440084 "></path><path d="M860.8964692938941 202.86998278314263C923.0554986053753 393.341919994162 530.498404619233 768.3857638395152 350.13300516699394 855.6303996075576C169.76760571475472 942.8750353756 57.3015812346286 812.1161716807651 -4.857448076852847 621.6442344697457C-67.0164773883343 431.17229725872653 -128.5957349803566 28.60973676270737 51.76966447188255 -58.63489900533506C232.1350639241217 -145.8795347733775 798.7374399824125 12.398045572123351 860.8964692938941 202.86998278314263C923.0554986053753 393.341919994162 530.498404619233 768.3857638395152 350.13300516699394 855.6303996075576 "></path><path d="M833.7849050959996 214.46587512459848C892.2875209185704 393.73358073496956 522.8220206963186 746.7160220011842 353.06635062362307 828.8286203711066C183.31068055092726 910.9412187410289 77.46030456963206 787.874052910596 18.957688747061297 608.6063473002249C-39.54492707550946 429.33864168985383 -97.50187539741285 50.45623181124756 72.25379467528285 -31.656366558674733C242.00946474797854 -113.76896492859703 775.2822892734289 35.19816951422729 833.7849050959996 214.46587512459848C892.2875209185704 393.73358073496956 522.8220206963186 746.7160220011842 353.06635062362307 828.8286203711066 "></path><path d="M806.6733408981049 226.06170643089797C861.519543231765 394.12518044062085 515.1456367734042 725.0462191276972 355.99969608025197 802.0267800994993C196.8537553870998 879.0073410713014 97.61902790463552 763.6318731052706 42.77282557097544 595.5683990955478C-12.073376762684688 427.5049250858249 -66.40801581446908 72.3026658246315 92.73792487868309 -4.677895147170659C251.88386557183537 -81.65845611897282 751.827138564445 57.99823242117503 806.6733408981049 226.06170643089797C861.519543231765 394.12518044062085 515.1456367734042 725.0462191276972 355.99969608025197 802.0267800994993 "></path><path d="M779.5618072177886 237.65765980750996C830.751596062538 394.51690221658464 507.46928336806786 703.3765383245227 358.9330720544592 775.2250618982046C210.39686074085046 847.0735854718864 117.7777817572171 739.389815370258 66.58799291246771 582.5305729611831C15.398204067718268 425.67133055210843 -35.31412571394719 94.14922190832795 113.22208559966151 22.300698334645972C261.7582969132703 -49.54782523903606 728.3720183730393 80.79841739843522 779.5618072177886 237.65765980750996C830.751596062538 394.51690221658464 507.46928336806786 703.3765383245227 358.9330720544592 775.2250618982046 "></path><path d="M752.4502430198941 249.25349111380945C799.9836183757329 394.9085019222359 499.79289944515347 681.7067354510355 361.86641751108823 748.4232216265973C223.939935577023 815.1397078021591 137.93650509222056 715.1476355649324 90.4031297363818 569.492624756506C42.86975438054304 423.83761394807937 -4.220266131003427 115.99565592171189 133.7062158030618 49.279169746150046C271.63269773712705 -17.43731642941185 704.9168676640554 103.59848030538296 752.4502430198941 249.25349111380945C799.9836183757329 394.9085019222359 499.79289944515347 681.7067354510355 361.86641751108823 748.4232216265973 "></path><path d="M725.3386788219997 260.8494139728434C769.2156406889278 395.3001931806217 492.11651552223907 660.0370241302827 364.79976296771724 721.6214729077245C237.48301041319542 783.2059216851662 158.09522842722401 690.9055473123416 114.21826656029594 556.4547681045633C70.34130469336787 422.0039888967849 26.873593451940337 137.8421814878302 154.1903460064621 76.2577327103885C281.5070985609839 14.673283932946788 681.4617169550716 126.39863476506503 725.3386788219997 260.8494139728434C769.2156406889278 395.3001931806217 492.11651552223907 660.0370241302827 364.79976296771724 721.6214729077245 "></path><path d="M698.2271146241052 272.44530631429916C738.4476630021226 395.69185392142936 484.44013159932456 638.3672822919519 367.73310842434626 694.8196936712735C251.02608524936795 751.2721050505951 178.25395176222753 666.6634285421725 138.0334033842101 543.4168809350424C97.8128550061927 420.1703333279122 57.9674530348841 159.6886765363704 174.6744762098624 103.23626515704882C291.3814993848407 46.783853777727245 658.0065662460878 149.19875870716896 698.2271146241052 272.44530631429916C738.4476630021226 395.69185392142936 484.44013159932456 638.3672822919519 367.73310842434626 694.8196936712735 "></path><path d="M671.1155504262106 284.0411986557549C707.6796853153174 396.0835146622369 476.76374767641005 616.6975404536211 370.66645388097527 668.0179144348225C264.5691600855405 719.3382884160239 198.41267509723093 642.4213097720034 161.84854020812423 530.3789937655215C125.28440531901748 418.3366777590395 89.06131261782792 181.5351715849106 195.1586064132627 130.21479760370914C301.25590020869754 78.8944236225077 634.5514155371039 171.9988826492729 671.1155504262106 284.0411986557549C707.6796853153174 396.0835146622369 476.76374767641005 616.6975404536211 370.66645388097527 668.0179144348225 "></path><path d="M644.0039862283161 295.6370299620544C676.9117076285122 396.4751143678882 469.08736375349565 595.0277375801339 373.5997993376043 641.2160741632151C278.112234921713 687.4044107462965 218.57139843223445 618.179129966678 185.66367703203838 517.3410455608443C152.7559556318423 416.50296115501055 120.15517220077169 203.38160559829453 215.642736616663 157.19326901521322C311.13030103255437 111.00493243213197 611.0962648281202 194.79894555622064 644.0039862283161 295.6370299620544C676.9117076285122 396.4751143678882 469.08736375349565 595.0277375801339 373.5997993376043 641.2160741632151 "></path><path d="M616.8924525479998 307.2329223035102C646.1437604592852 396.8667751086957 461.4110103481594 573.357995741803 376.53317531181153 614.4142949267642C291.65534027546363 655.4705941117254 238.73015228481603 593.9370111965089 209.47884437353065 504.30315839132345C180.22753646224527 414.66930558613785 151.24906230129358 225.22810064683472 236.12689733764142 184.1718014618736C321.00473237398927 143.11550227691242 587.6411446367144 217.59906949832458 616.8924525479998 307.2329223035102C646.1437604592852 396.8667751086957 461.4110103481594 573.357995741803 376.53317531181153 614.4142949267642 "></path><path d="M589.7808883501052 318.828829903755C615.37578277248 397.2584511082923 453.73462642524487 551.6882691622613 379.46652076844055 587.6125309491023C305.19841511163617 623.5367927359432 258.8888756198195 569.694907685129 233.2939811974448 491.2652864805916C207.69908677507004 412.8356652760542 182.34292188423734 247.07461095416397 256.6110275410417 211.150349167323C330.8791331978461 175.22608738048194 564.1859939277306 240.39920869921764 589.7808883501052 318.828829903755C615.37578277248 397.2584511082923 453.73462642524487 551.6882691622613 379.46652076844055 587.6125309491023 "></path><path d="M562.6693394109998 330.42469172763265C584.6078203444639 397.6500813315218 446.05825776111953 530.0184968063522 382.3998814838586 560.8107211950733C318.7415052065977 591.602945583794 279.047614213612 545.4527583973818 257.109133280148 478.2273687934926C235.17065234668394 411.0019791896034 213.43679672597017 268.92107548512604 277.0951730032311 238.12885109640519C340.75354928049194 207.33662670768433 540.7308584775358 263.19930212374345 562.6693394109998 330.42469172763265C584.6078203444639 397.6500813315218 446.05825776111953 530.0184968063522 382.3998814838586 560.8107211950733 "></path><path d="M535.5577752131053 342.0205840690884C553.8398426576587 398.0417420723294 438.381873838205 508.34875496802147 385.33322694048763 534.0089419586222C332.28458004277024 559.6691289492229 299.20633754861547 521.2106396272127 280.9242701040621 465.1894816239717C262.64220265950877 409.1683236207307 244.53065630891393 290.76757053366623 297.5793032066314 265.1073835430655C350.62795010434877 239.4471965524648 517.2757077685519 285.9994260658474 535.5577752131053 342.0205840690884C553.8398426576587 398.0417420723294 438.381873838205 508.34875496802147 385.33322694048763 534.0089419586222 "></path><path d="M508.4462415327889 353.6164764105441C523.0718954884317 398.4334028131369 430.70552043286875 486.6790131296906 388.26660291469483 507.20716272217123C345.8276853965209 527.7353123146518 319.3650914011971 496.9685208570436 304.73943744555436 452.1515944544508C290.11378348991167 407.334668051858 275.6245464094358 312.6140655822064 318.06346392760975 292.08591598972583C360.5023814457837 271.5577663972453 493.8205875771463 308.7995500079514 508.4462415327889 353.6164764105441C523.0718954884317 398.4334028131369 430.70552043286875 486.6790131296906 388.26660291469483 507.20716272217123 "></path><path d="M481.3346468173163 365.2123687519999C492.3038872840484 398.82506355394446 423.0291059923762 465.0092712913597 391.1999178537457 480.4053834857202C359.37072971511526 495.8014956800806 339.52378421862244 472.7264020868745 328.5545437518904 439.1137072849299C317.5853032851584 405.5010124829853 306.7183754748015 334.4605606307466 338.5475636134319 319.06444843638616C370.3767517520624 303.66833624202576 470.3654063505843 331.5996739500553 481.3346468173163 365.2123687519999C492.3038872840484 398.82506355394446 423.0291059923762 465.0092712913597 391.1999178537457 480.4053834857202 "></path><path d="M454.223128395789 376.80823057587753C461.53595537361036 399.21669377717393 415.3527678458289 443.33949893545076 394.1333090867419 453.6035737316911C372.913850327655 463.86764852793135 359.6825533299931 448.48425279912726 352.3697263521717 426.07578959783086C345.0568993743504 403.66732639653446 337.81228083411247 356.3070251617087 359.0317395931994 346.0429503654684C380.2511983522864 335.7788755692281 446.9103014179677 354.39976737458113 454.223128395789 376.80823057587753C461.53595537361036 399.21669377717393 415.3527678458289 443.33949893545076 394.1333090867419 453.6035737316911 "></path><path d="M427.1115641978945 388.4041229173333C430.7679776868052 399.6083545179815 407.67638392291445 421.66975709711994 397.066654543371 426.8017944952401C386.45692516382746 431.9338318933602 379.84127666499654 424.24213402895816 376.18486317608586 413.03790242830996C372.52844968717517 401.83367082766176 368.90614041705624 378.15352021024887 379.5158697965997 373.02148281212874C390.12559917614317 367.8894454140086 423.4551507089838 377.1998913166851 427.1115641978945 388.4041229173333C430.7679776868052 399.6083545179815 407.67638392291445 421.66975709711994 397.066654543371 426.8017944952401 "></path></g></svg>