<svg xmlns="http://www.w3.org/2000/svg" version="1.1" xmlns:xlink="http://www.w3.org/1999/xlink" xmlns:svgjs="http://svgjs.dev/svgjs" viewBox="0 0 800 800"><defs><linearGradient x1="50%" y1="0%" x2="50%" y2="100%" id="ccchaos-grad"><stop stop-color="hsl(206, 75%, 49%)" stop-opacity="1" offset="0%"></stop><stop stop-color="hsl(331, 90%, 56%)" stop-opacity="1" offset="100%"></stop></linearGradient></defs><g stroke-width="2" stroke="url(#ccchaos-grad)" fill="none" stroke-linecap="round"><path d="M396.31 -0.37C402.98 -0.29 409.55 0.11 416.01 0.86 422.47 1.77 428.82 2.99 435.05 4.51 441.27 6.16 447.38 8.07 453.36 10.22 459.34 12.44 465.19 14.87 470.92 17.48 476.65 20.11 482.25 22.88 487.73 25.77 493.21 28.63 498.57 31.56 503.81 34.57 509.07 37.48 514.21 40.43 519.26 43.41 526.82 47.69 541.61 56.05 548.9 60.11 556.26 63.93 571.09 71.38 578.65 75.04 583.83 77.37 589.08 79.74 594.4 82.17 599.89 84.51 605.49 86.92 611.2 89.42 617.09 91.88 623.11 94.44 629.26 97.12 635.6 99.78 642.06 102.59 648.65 105.54 655.4 108.51 662.25 111.65 669.18 114.95 676.21 118.3 683.28 121.83 690.35 125.54 697.43 129.31 704.45 133.27 711.34 137.41 718.14 141.63 724.74 146.03 731.08 150.62 737.2 155.28 742.96 160.12 748.32 165.13 753.33 170.22 757.86 175.47 761.86 180.86 765.42 186.34 768.4 191.96 770.76 197.7 772.67 203.52 773.96 209.45 774.63 215.49 774.89 221.59 774.59 227.79 773.77 234.08 772.67 240.42 771.15 246.83 769.29 253.3 767.34 259.82 765.21 266.39 762.98 273.01 760.92 279.66 758.93 286.35 757.11 293.07 755.7 299.81 754.61 306.57 753.9 313.35 753.81 320.14 754.2 326.94 755.11 333.73 756.71 340.54 758.84 347.34 761.48 354.13 764.74 360.92 768.43 367.7 772.47 374.44 776.93 381.19 781.55 387.91 786.25 394.58 791.03 401.26 795.59 407.81 799.81 414.24 803.78 420.67 807.2 426.96 810 433.12 812.27 439.28 813.78 445.3 814.49 451.18 814.54 457.06 813.74 462.8 812.13 468.4 809.86 473.99 806.81 479.45 803.06 484.77 798.78 490.09 793.92 495.28 788.56 500.33 782.89 505.4 776.89 510.34 770.65 515.16 764.34 520 757.96 524.74 751.59 529.38 745.39 534.06 739.32 538.66 733.46 543.19 727.94 547.78 722.69 552.32 717.76 556.83 713.26 561.43 709.1 566.02 705.27 570.62 700.36 577.72 692.57 592.39 689.51 600.05 687.82 605.37 686.24 610.81 684.72 616.38 683.37 622.15 682 628.07 680.56 634.14 679.18 640.42 677.66 646.85 675.96 653.43 674.23 660.2 672.27 667.1 670.05 674.12 667.73 681.28 665.11 688.53 662.21 695.83 659.16 703.21 655.79 710.59 652.13 717.92 648.3 725.23 644.17 732.43 639.76 739.46 635.18 746.34 630.34 752.98 625.24 759.31 620 765.38 614.54 771.05 608.86 776.28 603.08 781.12 597.11 785.45 590.98 789.21 584.76 792.51 578.41 795.19 571.94 797.22 565.42 798.76 558.79 799.65 552.09 799.88 545.36 799.64 538.56 798.79 531.72 797.33 524.86 795.51 517.96 793.18 511.05 790.38 504.12 787.39 497.18 784.06 490.24 780.48 483.29 776.9 476.35 773.22 469.41 769.52 462.47 766.06 455.54 762.73 448.63 759.61 441.72 756.96 434.82 754.65 427.94 752.75 421.06 751.46 414.19 750.66 407.35 750.37 400.5 750.77 393.75 751.68 387.09 753.08 380.43 755.08 373.86 757.49 367.38 760.22 360.89 763.41 354.49 766.8 348.17 770.31 341.84 774.05 335.59 777.75 329.41 781.33 323.22 784.92 317.1 788.23 311.06 791.19 304.98 793.94 298.98 796.22 293.04 797.98 287.06 799.37 281.15 800.15 275.29 800.3 269.39 799.98 263.55 799 257.76 797.37 251.92 795.23 246.13 792.46 240.38 789.07 234.59 785.22 228.83 780.81 223.12 775.88 217.37 770.58 211.65 764.84 205.98 758.72 200.26 752.33 194.59 745.65 188.96 738.73 183.31 731.67 177.7 724.46 172.15 717.13 166.59 709.8 161.08 702.42 155.66 695.06 150.23 687.77 144.88 680.55 139.63 673.41 134.4 666.43 129.27 659.57 124.26 652.84 119.29 646.31 114.44 639.93 109.74 633.71 105.09 627.69 100.59 621.83 96.25 616.11 91.97 610.59 87.86 605.21 83.92 599.94 80.05 594.85 76.35 589.86 72.83 584.95 67.74 577.83 58.49 563.97 54.33 557.13 50.36 550.4 43.21 536.79 39.98 529.85 36.86 522.87 31.19 508.4 28.62 500.88 26.1 493.24 21.58 477.29 19.58 468.97 18.24 463.37 17.03 457.63 15.96 451.75 14.85 445.87 13.88 439.85 13.05 433.69 12.21 427.52 11.51 421.22 10.97 414.8 10.43 408.36 10.04 401.81 9.83 395.12 9.62 388.44 9.58 381.72 9.73 374.96 9.89 368.21 10.23 361.43 10.75 354.63 11.3 347.84 12.03 341.03 12.95 334.22 13.9 327.41 15.04 320.6 16.36 313.8 17.73 307.02 19.28 300.25 21.02 293.5 22.79 286.77 24.75 280.07 26.88 273.4 29.05 266.77 31.38 260.18 33.88 253.65 36.4 247.16 39.06 240.73 41.87 234.38 44.68 228.07 47.62 221.85 50.68 215.73 53.71 209.67 56.85 203.71 60.09 197.87 63.28 192.11 66.56 186.47 69.92 180.97 73.22 175.54 76.59 170.27 80.03 165.16 85.12 157.69 95.52 143.75 100.84 137.29 106.16 131.13 117.12 119.85 122.8 114.71 128.55 109.82 140.61 100.9 146.93 96.83 153.42 92.87 167.09 85.45 174.28 81.92 181.68 78.33 197.21 71.22 205.33 67.63 210.83 65.11 216.45 62.59 222.18 60.07 227.96 57.4 233.84 54.72 239.82 52.03 245.85 49.2 251.96 46.36 258.15 43.54 264.38 40.58 270.68 37.65 277.05 34.75 283.45 31.77 289.9 28.84 296.41 26 302.93 23.12 309.5 20.35 316.1 17.72 322.72 15.1 329.37 12.67 336.04 10.43 342.72 8.27 349.41 6.34 356.11 4.67 362.82 3.13 369.53 1.89 376.23 0.95 382.93 0.17 389.62 -0.26 396.3 -0.37" stroke-dasharray="5 4" transform="rotate(0, 400, 400)"></path><path d="M391.21 14.06C397.55 14.13 403.8 14.53 409.95 15.26 416.1 16.14 422.16 17.33 428.11 18.81 434.07 20.41 439.92 22.27 445.67 24.37 451.42 26.55 457.07 28.93 462.61 31.49 468.16 34.08 473.62 36.82 478.97 39.68 484.34 42.51 489.62 45.43 494.82 48.43 500.04 51.35 505.18 54.32 510.26 57.31 517.91 61.65 533.08 70.15 540.66 74.29 548.35 78.2 564 85.81 572.01 89.53 577.5 91.89 583.07 94.28 588.72 96.7 594.51 99.03 600.39 101.41 606.38 103.86 612.52 106.24 618.75 108.71 625.09 111.27 631.56 113.8 638.11 116.45 644.74 119.21 651.46 121.98 658.22 124.88 665 127.92 671.81 130.99 678.59 134.22 685.3 137.6 691.95 141.03 698.48 144.63 704.81 148.39 711 152.21 716.93 156.2 722.56 160.36 727.93 164.58 732.92 168.97 737.48 173.52 743.57 180.52 752.62 195.38 755.48 203.21 757.18 211.26 757.43 228.03 756.15 236.71 754.95 242.58 753.43 248.53 751.64 254.55 749.85 260.62 747.94 266.75 745.98 272.94 744.24 279.16 742.6 285.42 741.14 291.73 740.1 298.06 739.37 304.42 739.01 310.8 739.22 317.2 739.87 323.61 740.99 330.04 742.73 336.47 744.94 342.9 747.59 349.33 750.8 355.77 754.38 362.19 758.26 368.6 762.5 375 766.88 381.39 771.32 387.74 775.83 394.09 780.14 400.34 784.13 406.47 787.91 412.6 791.2 418.61 793.91 424.51 796.97 433.3 798.61 450.27 797.09 458.47 795.23 463.89 792.64 469.21 789.38 474.41 785.61 479.62 781.27 484.72 776.43 489.72 771.26 494.74 765.73 499.67 759.91 504.52 753.97 509.39 747.9 514.2 741.76 518.94 735.71 523.73 729.72 528.47 723.85 533.18 718.23 537.97 712.82 542.73 707.64 547.5 702.82 552.36 698.29 557.24 694.04 562.15 690.18 567.18 686.61 572.27 683.31 577.43 680.38 582.73 677.69 588.12 675.2 593.6 673.01 599.25 670.97 605.02 669.04 610.9 667.32 616.95 665.63 623.12 663.95 629.42 662.38 635.88 660.75 642.46 659.01 649.14 657.3 655.96 655.44 662.86 653.4 669.82 651.31 676.87 649 683.94 646.46 691.01 643.83 698.09 640.94 705.11 637.79 712.03 634.53 718.87 630.99 725.55 627.2 732.01 623.28 738.29 619.1 744.29 614.68 749.94 610.13 755.32 605.36 760.28 600.37 764.8 595.28 768.94 589.99 772.57 584.52 775.66 578.96 778.32 573.25 780.4 567.4 781.89 561.48 782.93 555.43 783.38 549.28 783.24 543.09 782.69 536.81 781.6 530.45 779.98 524.06 778.07 517.61 775.71 511.11 772.96 504.6 770.07 498.04 766.89 491.45 763.51 484.86 760.17 478.24 756.76 471.61 753.34 464.98 750.17 458.33 747.13 451.68 744.29 445.03 741.88 438.37 739.8 431.72 738.07 425.07 736.91 418.41 736.19 411.76 735.93 405.11 736.3 398.54 737.13 392.05 738.38 385.55 740.21 379.14 742.38 372.8 744.87 366.45 747.78 360.17 750.88 353.97 754.1 347.75 757.56 341.6 761 335.52 764.35 329.42 767.74 323.39 770.9 317.41 773.78 311.41 776.49 305.46 778.81 299.57 780.67 293.65 782.22 287.78 783.25 281.96 783.72 276.11 783.78 270.3 783.25 264.53 782.12 258.73 780.55 252.97 778.38 247.25 775.63 241.5 772.45 235.78 768.74 230.11 764.51 224.4 759.92 218.73 754.89 213.11 749.45 207.46 743.73 201.86 737.68 196.31 731.36 190.74 724.86 185.24 718.15 179.8 711.29 174.36 704.35 168.99 697.32 163.7 690.23 158.43 683.17 153.25 676.11 148.18 669.07 143.13 662.13 138.2 655.26 133.39 648.47 128.63 641.83 124.01 635.29 119.53 628.87 115.11 622.62 110.84 616.49 106.73 610.48 102.69 604.65 98.81 598.93 95.1 593.33 91.47 587.89 88 582.55 84.7 577.3 79.93 569.67 71.31 554.87 67.42 547.63 63.73 540.53 57.07 526.38 54.07 519.26 51.16 512.15 45.86 497.62 43.45 490.15 41.08 482.62 36.76 467.03 34.83 458.96 32.94 450.77 29.68 433.8 28.33 425.01 27.45 419.11 26.71 413.1 26.11 406.96 25.5 400.83 25.05 394.58 24.76 388.23 24.47 381.87 24.36 375.48 24.42 369.06 24.51 362.65 24.77 356.22 25.22 349.78 25.7 343.34 26.37 336.9 27.23 330.46 28.13 324.03 29.22 317.6 30.49 311.19 31.82 304.8 33.33 298.42 35.03 292.08 36.77 285.76 38.69 279.48 40.79 273.25 42.92 267.05 45.23 260.9 47.69 254.82 50.17 248.77 52.8 242.8 55.58 236.92 58.35 231.08 61.25 225.33 64.26 219.7 67.26 214.11 70.36 208.64 73.55 203.29 76.7 198 79.94 192.85 83.24 187.84 88.16 180.49 98.2 166.67 103.32 160.22 108.39 154.04 118.75 142.61 124.04 137.36 129.34 132.34 140.28 123.13 145.95 118.91 151.7 114.82 163.73 107.18 170.03 103.58 176.49 99.96 190.04 92.88 197.15 89.35 204.44 85.68 219.66 78.15 227.59 74.28 232.95 71.55 238.42 68.82 243.98 66.07 249.58 63.2 255.27 60.33 261.05 57.46 266.86 54.49 272.75 51.54 278.7 48.64 284.69 45.66 290.74 42.75 296.84 39.92 302.97 37.07 309.14 34.33 315.35 31.74 321.59 29.17 327.85 26.78 334.14 24.59 340.45 22.47 346.77 20.6 353.11 18.97 359.45 17.47 365.8 16.26 372.15 15.35 378.51 14.59 384.86 14.16 391.2 14.06" stroke-dasharray="8 4" transform="rotate(4.04, 400, 400)"></path><path d="M387.17 28.5C393.19 28.57 399.15 28.95 405.03 29.65 410.91 30.51 416.71 31.66 422.43 33.08 428.16 34.64 433.8 36.44 439.37 38.48 444.94 40.61 450.44 42.93 455.86 45.44 461.29 47.98 466.65 50.67 471.95 53.49 477.26 56.29 482.52 59.19 487.73 62.16 492.96 65.08 498.15 68.05 503.31 71.05 508.52 73.96 513.7 76.89 518.87 79.83 529.4 85.33 539.97 90.82 550.67 96.27 561.75 101.2 573.08 106.15 584.68 111.15 596.74 115.74 609.11 120.53 621.73 125.56 634.67 130.4 647.7 135.65 660.64 141.34 673.47 147.03 685.82 153.29 697.37 160.13 708.17 167.11 717.68 174.72 725.59 182.92 732.18 191.34 736.87 200.35 739.56 209.89 740.9 219.65 740.46 229.89 738.46 240.55 736.51 248.68 731.71 265.43 729.22 274.01 727.8 279.79 726.51 285.62 725.41 291.5 724.72 297.4 724.33 303.34 724.29 309.32 724.76 315.31 725.64 321.33 726.94 327.37 728.79 333.42 731.06 339.48 733.72 345.55 736.86 351.63 740.32 357.7 744.03 363.77 748.06 369.84 752.21 375.9 756.38 381.95 760.64 387.99 764.7 393.95 768.47 399.81 772.06 405.67 775.2 411.44 777.84 417.11 780.89 425.57 782.98 442.01 781.91 450 780.42 455.31 778.25 460.52 775.45 465.66 772.18 470.81 768.35 475.88 764.02 480.88 759.35 485.91 754.3 490.88 748.94 495.79 743.41 500.74 737.7 505.65 731.86 510.53 720.29 520.45 708.89 530.34 698.03 540.27 688.28 550.58 679.47 561.08 671.64 571.83 665.15 583.1 659.5 594.73 654.48 606.74 650.41 619.29 646.54 632.2 642.62 645.4 639.04 658.92 634.99 672.51 630.33 685.97 625.51 699.26 619.85 712 613.31 723.87 606.4 734.92 598.58 744.59 589.92 752.58 580.89 759.16 571.1 763.72 560.65 766.11 552.6 766.76 535.78 764.91 527.06 762.55 521.18 760.58 515.21 758.24 509.17 755.57 503.11 752.79 496.98 749.79 490.79 746.62 484.6 743.52 478.36 740.37 472.07 737.24 465.79 734.35 459.46 731.59 453.11 729.01 446.76 726.84 440.39 724.96 433.99 723.41 427.6 722.38 421.19 721.73 414.76 721.5 408.33 721.83 401.96 722.58 395.66 723.71 389.35 725.35 383.1 727.32 376.91 729.57 370.71 732.21 364.57 735.03 358.49 737.97 352.4 741.15 346.37 744.33 340.38 747.45 334.39 750.63 328.44 753.62 322.54 756.38 316.62 759.03 310.75 761.34 304.92 763.27 296.17 765.55 278.83 767.19 270.24 766.43 258.74 763.87 247.39 759.14 236.21 752.41 224.95 744.27 213.88 734.46 203.03 723.31 192.18 711.35 181.62 698.55 171.4 685.22 161.29 671.75 151.6 658.17 142.42 644.68 133.45 631.53 125.05 618.68 117.27 606.21 109.77 594.27 102.91 582.72 96.73 571.54 90.76 560.87 85.42 550.46 80.7 540.22 76.06 530.37 71.93 520.54 68.3 510.68 65.59 503.38 60.62 488.65 58.35 481.17 56.1 473.65 51.96 458.26 50.08 450.36 48.22 442.38 44.96 425.95 43.57 417.5 42.66 411.83 41.88 406.07 41.23 400.2 40.57 394.34 40.05 388.39 39.69 382.34 39.34 376.29 39.15 370.22 39.14 364.14 39.15 358.07 39.35 351.99 39.72 345.9 40.13 339.83 40.74 333.76 41.52 327.7 42.36 321.65 43.39 315.62 44.61 309.61 45.88 303.62 47.34 297.67 48.99 291.75 50.68 285.86 52.56 280.01 54.61 274.22 56.7 268.46 58.96 262.77 61.37 257.15 63.81 251.56 66.4 246.06 69.13 240.65 74.59 229.95 80.52 219.67 86.85 209.87 93.04 200.28 99.52 191.23 106.26 182.77 112.74 174.53 119.44 166.88 126.33 159.86 132.97 153.01 139.85 146.73 146.97 141.02 153.92 135.32 161.19 130.09 168.81 125.26 176.37 120.24 184.36 115.49 192.75 110.93 201.21 105.98 210.12 101.09 219.47 96.21 228.93 90.82 238.83 85.38 249.11 79.94 254.3 77.02 259.58 74.12 264.95 71.23 270.34 68.25 275.82 65.3 281.36 62.4 286.94 59.43 292.58 56.54 298.28 53.75 304 50.93 309.77 48.24 315.6 45.7 321.44 43.18 327.32 40.85 333.23 38.71 339.16 36.65 345.11 34.83 351.09 33.25 357.07 31.8 363.08 30.63 369.09 29.74 375.11 29.02 381.13 28.6 387.16 28.5" stroke-dasharray="3 5" transform="rotate(8.08, 400, 400)"></path><path d="M384.67 42.93C393.26 43.19 410.17 45.42 418.49 47.35 429.55 50.46 440.41 54.51 451.07 59.33 461.78 64.32 472.34 69.85 482.78 75.77 493.35 81.51 503.89 87.43 514.44 93.46 525.22 99.05 536.11 104.65 547.15 110.22 558.52 115.29 570.1 120.35 581.9 125.44 594.02 130.11 606.31 134.92 618.7 139.9 631.22 144.63 643.62 149.68 655.72 155.09 667.52 160.43 678.65 166.24 688.84 172.55 698.19 178.93 706.21 185.86 712.66 193.33 717.89 200.96 721.38 209.14 723.09 217.82 723.73 226.68 722.88 236.01 720.78 245.77 718.44 255.67 715.6 265.95 712.71 276.54 710.81 287.22 709.7 298.16 709.72 309.3 711.65 320.49 715.04 331.82 719.85 343.25 722.91 348.97 726.24 354.7 729.79 360.45 733.61 366.19 737.52 371.95 741.45 377.7 745.45 383.46 749.27 389.15 752.82 394.76 756.22 400.38 759.22 405.92 761.76 411.4 765.77 422.35 767.42 433.02 766.58 443.43 763.79 453.87 758.6 464.1 751.31 474.13 742.69 484.28 732.7 494.32 721.81 504.3 710.78 514.5 699.66 524.75 688.81 535.11 678.79 545.82 669.47 556.74 660.96 567.91 653.62 579.51 647.06 591.41 641.16 603.6 636.21 616.18 631.6 628.97 627.13 641.89 623.13 654.94 618.9 667.87 614.28 680.48 609.7 692.77 604.49 704.35 598.57 714.94 592.44 724.65 585.52 732.96 577.84 739.63 569.88 744.97 561.19 748.44 551.83 749.93 542.26 750.08 532.1 748.4 521.46 745.05 510.69 740.95 499.51 735.75 488 729.82 476.44 724.25 464.62 718.76 452.59 713.78 446.57 711.84 440.51 710.15 434.4 708.76 428.3 707.84 422.15 707.27 415.98 707.06 409.8 707.37 403.66 708.03 397.57 709.04 391.47 710.52 385.41 712.29 379.4 714.31 367.36 719.42 355.48 725 343.77 730.63 332.02 736.57 320.42 741.75 308.96 745.79 297.46 749.05 286.08 750.61 274.85 750.33 263.58 748.68 252.44 745.06 241.49 739.57 230.52 732.76 219.75 724.31 209.25 714.48 198.79 703.79 188.65 692.13 178.89 679.79 169.27 667.15 160.11 654.2 151.46 641.15 143.04 628.26 135.2 615.5 127.97 602.98 121.01 590.84 114.66 579 108.96 567.48 103.45 556.38 98.53 545.53 94.18 534.89 89.88 524.6 86.05 514.41 82.68 504.27 79.2 494.35 76.08 484.35 73.31 474.25 70.33 464.25 67.66 454.06 65.32 443.64 62.76 433.25 60.57 422.59 58.79 411.65 57.43 403.41 55.33 386.57 54.62 377.96 54.08 369.33 53.88 352.08 54.24 343.48 54.98 332.04 56.48 320.68 58.72 309.47 61.2 298.31 64.42 287.34 68.35 276.62 72.46 266.01 77.21 255.69 82.53 245.76 87.9 235.96 93.74 226.59 99.96 217.69 106.08 208.97 112.5 200.76 119.15 193.1 125.58 185.59 132.21 178.63 139.01 172.23 145.56 165.91 152.3 160.09 159.25 154.75 165.99 149.34 173.01 144.31 180.3 139.6 187.5 134.65 195.05 129.89 202.95 125.26 210.86 120.22 219.17 115.21 227.87 110.2 236.64 104.68 245.81 99.14 255.36 93.6 264.98 87.62 274.97 81.73 285.27 76.03 295.64 70.12 306.29 64.6 317.18 59.6 328.1 54.75 339.23 50.68 350.49 47.52 358.97 45.55 376.06 43.23 384.66 42.93" stroke-dasharray="5 3" transform="rotate(12.12, 400, 400)"></path><path d="M384.02 57.37C394.99 57.65 405.83 59.09 416.55 61.6 427.28 64.6 437.9 68.5 448.42 73.17 459 78.03 469.52 83.43 480.01 89.25 490.63 94.94 501.28 100.85 512 106.88 522.92 112.54 533.96 118.23 545.15 123.9 556.58 129.11 568.16 134.31 579.87 139.52 591.76 144.3 603.69 149.17 615.55 154.16 627.36 158.87 638.88 163.81 649.92 169.04 660.53 174.13 670.33 179.62 679.11 185.51 687.03 191.41 693.63 197.79 698.73 204.65 702.77 211.6 705.25 219.05 706.2 226.97 706.32 235.02 705.24 243.53 703.19 252.45 701.12 261.49 698.75 270.92 696.47 280.67 695.21 290.51 694.74 300.64 695.3 311 697.6 321.4 701.19 332 705.99 342.75 712.27 353.52 719.27 364.4 726.52 375.37 734.02 386.34 740.56 397.14 745.69 407.73 749.66 418.33 751.51 428.77 751.11 439.03 748.98 449.34 744.63 459.53 738.29 469.63 730.66 479.84 721.61 490.04 711.55 500.25 701.18 510.67 690.49 521.2 679.85 531.86 669.76 542.82 660.16 553.99 651.17 565.38 643.16 577.08 635.82 589.02 629.12 601.14 623.32 613.49 617.93 625.92 612.8 638.31 608.23 650.67 603.61 662.75 598.8 674.35 594.18 685.52 589.12 695.86 583.54 705.15 577.89 713.53 571.59 720.54 564.65 725.96 557.52 730.18 549.72 732.68 541.3 733.39 532.7 732.98 523.52 730.97 513.83 727.52 504.01 723.52 493.74 718.61 483.09 713.12 472.37 708.04 461.33 703.08 450 698.6 438.66 695.52 427.07 693.46 415.27 692.62 403.47 693.64 391.75 695.86 380.14 699.1 368.52 703.71 357 708.76 345.6 713.89 334.19 719.42 322.88 724.32 311.69 728.27 300.48 731.65 289.39 733.56 278.45 733.86 267.49 733 256.69 730.37 246.09 726.01 235.51 720.44 225.17 713.3 215.11 704.8 205.14 695.4 195.52 684.97 186.3 673.73 177.26 662.08 168.68 649.96 160.63 637.58 152.81 625.2 145.56 612.78 138.91 600.46 132.49 588.38 126.66 576.48 121.44 564.83 116.38 553.5 111.86 542.39 107.86 531.49 103.88 520.89 100.33 510.42 97.18 500.05 93.91 489.89 90.95 479.74 88.31 469.57 85.43 459.51 82.83 449.35 80.53 439.07 78 428.83 75.79 418.42 73.97 407.83 72.01 397.24 70.51 386.46 69.55 375.48 68.63 364.51 68.37 353.62 68.79 342.84 69.39 332.08 70.75 321.46 72.84 311.03 75.17 300.65 78.25 290.5 82.02 280.63 85.99 270.85 90.6 261.39 95.78 252.32 101.03 243.36 106.75 234.82 112.87 226.74 118.91 218.79 125.25 211.31 131.83 204.34 138.21 197.46 144.78 191.07 151.52 185.16 158.01 179.26 164.67 173.78 171.5 168.69 178.11 163.48 184.94 158.56 192 153.89 198.92 148.93 206.13 144.11 213.65 139.38 221.11 134.22 228.93 129.08 237.09 123.93 245.26 118.31 253.81 112.67 262.7 107.06 271.64 101.06 280.92 95.19 290.52 89.53 300.16 83.72 310.09 78.31 320.28 73.44 330.49 68.75 340.94 64.81 351.58 61.77 362.23 59.21 373.05 57.72 384.01 57.37" stroke-dasharray="8 1" transform="rotate(16.16, 400, 400)"></path><path d="M385.3 71.81C395.79 72.08 406.25 73.45 416.66 75.84 427.08 78.71 437.48 82.45 447.85 86.95 458.28 91.66 468.72 96.92 479.19 102.61 489.77 108.22 500.42 114.07 511.16 120.09 522.04 125.79 533.05 131.54 544.14 137.31 555.39 142.64 566.72 147.98 578.05 153.31 589.44 158.23 600.73 163.2 611.79 168.25 622.68 173 633.13 177.92 642.96 183.05 652.29 188 660.74 193.27 668.11 198.87 674.68 204.42 679.98 210.37 683.91 216.73 686.93 223.13 688.61 229.97 688.99 237.25 688.79 244.6 687.63 252.38 685.76 260.57 684.03 268.84 682.17 277.49 680.51 286.49 679.87 295.54 679.97 304.91 681.03 314.55 683.65 324.22 687.38 334.14 692.13 344.25 698.17 354.38 704.79 364.69 711.59 375.16 718.61 385.63 724.75 396 729.64 406.28 733.52 416.56 735.52 426.77 735.52 436.89 733.98 447.07 730.41 457.22 724.97 467.34 718.29 477.58 710.19 487.87 701.02 498.22 691.4 508.75 681.29 519.42 671.02 530.22 661.08 541.26 651.39 552.47 642.13 563.85 633.65 575.44 625.72 587.17 618.33 598.97 611.77 610.86 605.63 622.7 599.81 634.35 594.59 645.84 589.46 656.92 584.28 667.4 579.4 677.37 574.26 686.44 568.76 694.43 563.31 701.54 557.37 707.31 550.91 711.59 544.36 714.81 537.24 716.46 529.55 716.54 521.75 715.68 513.39 713.44 504.53 709.98 495.57 706.14 486.13 701.55 476.29 696.5 466.38 691.91 456.1 687.47 445.49 683.47 434.85 680.75 423.92 678.93 412.72 678.18 401.53 679.1 390.34 681.07 379.21 683.94 368.08 688.06 357 692.6 346 697.26 335.01 702.34 324.09 706.93 313.28 710.75 302.47 714.15 291.78 716.3 281.23 717.06 270.71 716.87 260.36 715.09 250.22 711.75 240.15 707.33 230.33 701.43 220.82 694.2 211.44 686.1 202.42 676.92 193.82 666.88 185.42 656.33 177.48 645.2 170.06 633.67 162.87 622 156.22 610.15 150.15 598.26 144.28 586.48 138.96 574.78 134.21 563.22 129.57 551.88 125.42 540.71 121.75 529.72 118.06 518.97 114.75 508.35 111.8 497.87 108.7 487.56 105.88 477.32 103.33 467.12 100.54 457.03 98 446.91 95.72 436.76 93.2 426.66 90.98 416.48 89.11 406.21 87.11 395.95 85.54 385.58 84.48 375.11 83.46 364.64 83.08 354.33 83.37 344.19 83.84 334.06 85.04 324.13 86.97 314.44 89.14 304.78 92.05 295.39 95.64 286.32 99.45 277.3 103.89 268.62 108.89 260.33 114 252.11 119.58 244.31 125.56 236.94 131.5 229.64 137.75 222.78 144.25 216.37 150.58 209.99 157.1 204.04 163.79 198.5 170.24 192.9 176.85 187.65 183.61 182.71 190.14 177.6 196.85 172.72 203.75 168.01 210.48 163 217.45 158.08 224.68 153.21 231.81 147.94 239.24 142.66 246.97 137.37 254.66 131.66 262.69 125.96 271.04 120.3 279.39 114.32 288.07 108.49 297.06 102.91 306.05 97.22 315.36 91.96 324.93 87.23 334.51 82.71 344.35 78.93 354.42 76.01 364.49 73.57 374.79 72.14 385.29 71.81" stroke-dasharray="5 4" transform="rotate(20.200000000000003, 400, 400)"></path><path d="M388.34 86.25C398.41 86.5 408.51 87.8 418.61 90.07 428.72 92.8 438.88 96.38 449.05 100.69 459.27 105.23 469.55 110.32 479.89 115.86 490.31 121.35 500.81 127.12 511.37 133.08 522.04 138.79 532.78 144.57 543.54 150.4 554.37 155.84 565.19 161.3 575.9 166.75 586.55 171.81 596.98 176.91 607.06 182.06 616.86 186.89 626.12 191.85 634.68 196.97 642.7 201.87 649.82 207.01 655.88 212.43 661.21 217.73 665.38 223.38 668.31 229.38 670.52 235.34 671.59 241.71 671.6 248.46 671.24 255.24 670.15 262.42 668.54 269.98 667.23 277.58 665.91 285.56 664.84 293.89 664.78 302.24 665.41 310.94 666.9 319.93 669.78 328.93 673.6 338.22 678.27 347.76 684.06 357.3 690.31 367.07 696.66 377.07 703.21 387.07 708.96 397.06 713.59 407.02 717.37 417 719.49 426.97 719.81 436.94 718.8 446.95 715.93 457 711.33 467.09 705.57 477.27 698.42 487.55 690.17 497.91 681.37 508.41 671.95 519.05 662.2 529.8 652.58 540.72 643.02 551.77 633.7 562.91 624.96 574.16 616.62 585.46 608.73 596.71 601.54 607.94 594.74 618.99 588.29 629.74 582.41 640.22 576.7 650.2 571.06 659.49 565.78 668.22 560.38 676.04 554.77 682.77 549.3 688.67 543.48 693.31 537.27 696.58 531.06 698.92 524.38 699.86 517.23 699.42 510.02 698.23 502.31 695.86 494.13 692.47 485.88 688.83 477.18 684.59 468.06 680 458.89 675.89 449.33 671.93 439.41 668.38 429.48 666 419.21 664.41 408.64 663.75 398.08 664.57 387.48 666.31 376.89 668.83 366.32 672.5 355.76 676.54 345.25 680.73 334.76 685.36 324.33 689.61 314 693.23 303.71 696.59 293.52 698.89 283.48 700 273.51 700.34 263.71 699.28 254.15 696.83 244.68 693.44 235.48 688.68 226.61 682.66 217.89 675.82 209.54 667.9 201.62 659.07 193.89 649.71 186.62 639.67 179.86 629.13 173.3 618.34 167.25 607.26 161.75 596.02 156.41 584.77 151.58 573.48 147.26 562.24 143.02 551.12 139.21 540.1 135.83 529.22 132.39 518.49 129.29 507.89 126.51 497.43 123.55 487.1 120.83 476.87 118.36 466.71 115.64 456.66 113.13 446.64 110.86 436.65 108.36 426.71 106.13 416.76 104.22 406.79 102.18 396.85 100.56 386.87 99.41 376.87 98.31 366.88 97.82 357.09 97.98 347.55 98.31 338 99.36 328.71 101.11 319.69 103.12 310.68 105.83 301.98 109.22 293.6 112.84 285.26 117.08 277.26 121.88 269.64 126.81 262.06 132.22 254.87 138.04 248.08 143.85 241.32 149.98 234.95 156.37 228.98 162.64 222.98 169.1 217.34 175.73 212.05 182.15 206.65 188.73 201.53 195.43 196.65 201.92 191.57 208.56 186.65 215.36 181.86 221.98 176.76 228.79 171.71 235.82 166.7 242.71 161.31 249.86 155.91 257.27 150.51 264.6 144.74 272.23 138.99 280.14 133.33 288.02 127.4 296.2 121.65 304.68 116.17 313.15 110.63 321.91 105.53 330.95 100.98 339.99 96.64 349.3 93.02 358.87 90.25 368.43 87.92 378.26 86.56 388.33 86.25" stroke-dasharray="3 5" transform="rotate(24.24, 400, 400)"></path><path d="M392.79 100.68C402.46 100.92 412.19 102.14 421.96 104.3 431.75 106.88 441.61 110.28 451.5 114.39 461.45 118.74 471.45 123.64 481.51 128.99 491.63 134.34 501.8 139.99 512.01 145.86 522.26 151.53 532.52 157.32 542.73 163.16 552.93 168.69 563.01 174.24 572.89 179.79 582.64 184.99 592.05 190.22 601.01 195.48 609.65 200.43 617.68 205.47 624.97 210.63 631.73 215.54 637.61 220.65 642.49 225.97 646.74 231.15 649.95 236.59 652.09 242.34 653.68 248.01 654.34 254.02 654.15 260.37 653.77 266.7 652.86 273.39 651.61 280.44 650.74 287.49 649.96 294.91 649.48 302.67 649.94 310.43 651.05 318.53 652.9 326.95 655.98 335.37 659.84 344.1 664.41 353.11 669.94 362.11 675.81 371.4 681.73 380.96 687.82 390.52 693.19 400.12 697.56 409.76 701.21 419.42 703.4 429.13 704 438.89 703.44 448.69 701.2 458.56 697.39 468.51 692.5 478.53 686.27 488.66 678.94 498.88 671 509.2 662.36 519.63 653.26 530.14 644.12 540.75 634.87 551.42 625.7 562.1 616.91 572.82 608.38 583.48 600.17 593.99 592.52 604.39 585.22 614.51 578.22 624.22 571.76 633.62 565.5 642.43 559.37 650.51 553.62 658.03 547.85 664.62 542 670.17 536.34 674.97 530.47 678.59 524.32 680.97 518.24 682.56 511.81 682.92 505 682.09 498.18 680.67 490.94 678.26 483.29 675 475.61 671.61 467.51 667.74 459.02 663.6 450.5 659.95 441.59 656.47 432.33 653.34 423.05 651.28 413.44 649.9 403.52 649.31 393.6 650.05 383.63 651.57 373.64 653.76 363.67 657 353.7 660.58 343.77 664.3 333.86 668.49 324.02 672.38 314.27 675.76 304.57 679 294.99 681.36 285.57 682.71 276.23 683.47 267.09 683.01 258.19 681.31 249.4 678.82 240.9 675.09 232.73 670.18 224.72 664.53 217.08 657.83 209.86 650.22 202.82 642.06 196.23 633.17 190.12 623.71 184.18 613.94 178.72 603.78 173.76 593.35 168.92 582.82 164.54 572.15 160.62 561.43 156.72 550.75 153.22 540.09 150.08 529.5 146.86 519.01 143.93 508.6 141.28 498.31 138.43 488.12 135.8 478.02 133.38 468.02 130.71 458.1 128.23 448.25 125.96 438.47 123.47 428.73 121.23 419.04 119.3 409.4 117.23 399.77 115.56 390.17 114.35 380.62 113.17 371.07 112.58 361.78 112.61 352.77 112.82 343.76 113.72 335.03 115.29 326.6 117.11 318.17 119.62 310.06 122.78 302.29 126.19 294.52 130.2 287.1 134.77 280.04 139.49 272.98 144.69 266.28 150.31 259.95 155.95 253.6 161.93 247.59 168.19 241.93 174.35 236.2 180.73 230.76 187.28 225.61 193.67 220.32 200.2 215.24 206.86 210.35 213.33 205.24 219.93 200.24 226.66 195.34 233.22 190.13 239.94 184.95 246.82 179.8 253.57 174.3 260.53 168.8 267.7 163.32 274.78 157.52 282.11 151.77 289.69 146.14 297.21 140.29 305.01 134.66 313.08 129.31 321.11 123.96 329.43 119.05 338.03 114.68 346.6 110.54 355.46 107.1 364.59 104.47 373.71 102.26 383.11 100.98 392.78 100.68" stroke-dasharray="9 6" transform="rotate(28.28, 400, 400)"></path><path d="M398.11 115.12C407.38 115.34 416.73 116.49 426.14 118.51 435.56 120.95 445.04 124.16 454.57 128.05 464.13 132.19 473.74 136.88 483.38 142.02 493.05 147.19 502.73 152.69 512.39 158.43 522.05 164.02 531.65 169.76 541.12 175.59 550.52 181.16 559.71 186.77 568.62 192.4 577.34 197.72 585.65 203.06 593.45 208.43 600.91 213.51 607.73 218.65 613.81 223.88 619.42 228.87 624.19 234 628.05 239.3 632.63 247.1 636.78 263.72 636.76 272.66 636.49 278.67 635.85 285 635 291.64 634.6 298.27 634.35 305.23 634.41 312.51 635.35 319.79 636.87 327.39 639.02 335.31 642.24 343.22 646.12 351.45 650.55 359.99 655.8 368.51 661.3 377.35 666.8 386.48 672.45 395.61 677.44 404.83 681.54 414.13 685.05 423.44 687.27 432.84 688.09 442.32 687.92 451.83 686.25 461.44 683.14 471.12 679.06 480.87 673.72 490.71 667.3 500.62 660.25 510.59 652.44 520.64 644.08 530.72 635.55 540.83 626.78 550.94 617.93 560.98 609.3 570.98 600.78 580.84 592.46 590.46 584.57 599.91 576.92 609 569.53 617.61 562.6 625.88 555.87 633.51 549.3 640.39 543.09 646.74 536.93 652.2 530.77 656.66 524.84 660.46 518.79 663.2 512.58 664.82 506.48 665.8 500.13 665.71 493.5 664.6 486.91 663.05 479.98 660.68 472.72 657.6 465.46 654.5 457.84 651.01 449.87 647.32 441.89 644.12 433.56 641.07 424.9 638.35 416.23 636.57 407.25 635.39 397.98 634.87 388.7 635.53 379.37 636.84 370.02 638.74 360.69 641.57 351.36 644.71 342.07 647.98 332.82 651.73 323.62 655.24 314.54 658.35 305.51 661.42 296.61 663.76 287.89 665.26 279.25 666.31 270.82 666.31 262.65 665.25 254.6 663.53 246.83 660.69 239.4 656.79 232.12 652.23 225.2 646.67 218.69 640.23 212.34 633.26 206.4 625.55 200.92 617.22 195.57 608.54 190.66 599.4 186.19 589.91 181.81 580.25 177.83 570.37 174.25 560.35 170.66 550.3 167.41 540.18 164.48 530.07 161.44 520 158.65 509.97 156.09 500.01 153.33 490.11 150.76 480.28 148.37 470.56 145.73 460.89 143.27 451.3 141.01 441.8 138.53 432.34 136.29 422.95 134.33 413.65 132.26 404.37 130.55 395.16 129.28 386.03 128.04 376.91 127.37 368.08 127.28 359.55 127.37 351.02 128.11 342.79 129.5 334.87 131.13 326.95 133.42 319.35 136.35 312.07 139.51 304.78 143.27 297.82 147.58 291.2 152.06 284.55 157.01 278.23 162.39 272.23 167.83 266.18 173.62 260.42 179.69 254.96 185.72 249.39 191.98 244.07 198.42 238.98 204.74 233.71 211.21 228.62 217.81 223.67 224.25 218.48 230.81 213.38 237.49 208.36 244.01 203.03 250.66 197.74 257.46 192.47 264.12 186.89 270.95 181.32 277.96 175.8 284.86 170.01 291.98 164.31 299.31 158.74 306.57 153.02 314.07 147.53 321.82 142.36 329.52 137.21 337.48 132.51 345.7 128.35 353.89 124.42 362.36 121.16 371.1 118.68 379.82 116.61 388.82 115.4 398.1 115.12" stroke-dasharray="0 8" transform="rotate(32.32, 400, 400)"></path><path d="M403.65 129.56C412.53 129.76 421.47 130.83 430.45 132.72 439.44 135 448.48 138.01 457.55 141.68 466.63 145.6 475.72 150.05 484.81 154.95 493.89 159.92 502.94 165.23 511.9 170.8 520.83 176.27 529.62 181.92 538.22 187.69 546.7 193.24 554.92 198.87 562.78 204.53 570.42 209.93 577.62 215.37 584.28 220.83 590.61 226.03 596.31 231.28 601.3 236.59 605.89 241.67 609.72 246.86 612.76 252.18 616.35 259.98 619.54 276.33 619.55 285 619.49 290.78 619.18 296.85 618.77 303.19 618.84 309.5 619.09 316.1 619.64 323.01 621 329.88 622.86 337.08 625.25 344.57 628.57 352.05 632.41 359.85 636.68 367.95 641.64 376.04 646.78 384.44 651.87 393.15 657.09 401.87 661.71 410.69 665.54 419.61 668.89 428.54 671.11 437.57 672.1 446.69 672.25 455.83 671.07 465.06 668.6 474.37 665.27 483.71 660.76 493.12 655.22 502.58 649.07 512.05 642.12 521.55 634.56 531.02 626.75 540.48 618.58 549.87 610.21 559.12 601.93 568.28 593.62 577.22 585.39 585.85 577.45 594.27 569.67 602.28 562.07 609.76 554.83 616.89 547.77 623.38 540.85 629.13 534.26 634.39 527.76 638.8 521.29 642.3 515.07 645.23 508.8 647.22 502.45 648.22 496.24 648.71 489.87 648.3 483.31 647.01 476.81 645.42 470.08 643.15 463.09 640.3 456.12 637.5 448.86 634.4 441.32 631.15 433.78 628.38 425.95 625.75 417.84 623.4 409.72 621.89 401.32 620.88 392.67 620.43 384.02 621.01 375.33 622.15 366.64 623.76 357.96 626.22 349.31 628.94 340.7 631.78 332.13 635.09 323.64 638.22 315.27 641.04 306.96 643.89 298.79 646.14 290.81 647.7 282.91 648.93 275.23 649.29 267.82 648.72 260.51 647.64 253.49 645.57 246.8 642.54 240.24 638.95 234.03 634.45 228.2 629.1 222.5 623.27 217.18 616.7 212.28 609.5 207.47 601.95 203.05 593.88 199.03 585.41 195.04 576.73 191.41 567.75 188.13 558.57 184.8 549.29 181.76 539.89 178.99 530.42 176.08 520.94 173.39 511.43 170.9 501.96 168.21 492.51 165.68 483.1 163.31 473.77 160.7 464.48 158.26 455.25 156 446.12 153.54 437.01 151.3 427.99 149.33 419.07 147.25 410.17 145.52 401.35 144.21 392.64 142.93 383.94 142.18 375.54 141.99 367.45 141.96 359.36 142.55 351.57 143.75 344.09 145.19 336.59 147.25 329.41 149.93 322.53 152.83 315.63 156.32 309.03 160.34 302.74 164.54 296.4 169.22 290.35 174.31 284.58 179.5 278.73 185.05 273.14 190.9 267.78 196.74 262.3 202.82 257.02 209.11 251.91 215.32 246.63 221.69 241.48 228.2 236.44 234.57 231.17 241.08 225.97 247.7 220.82 254.18 215.4 260.78 210.02 267.5 204.66 274.09 199.04 280.83 193.46 287.72 187.94 294.5 182.21 301.46 176.59 308.61 171.13 315.67 165.58 322.95 160.28 330.43 155.3 337.86 150.39 345.53 145.92 353.43 141.98 361.3 138.27 369.42 135.22 377.79 132.89 386.15 130.95 394.76 129.82 403.64 129.56" stroke-dasharray="3 3" transform="rotate(36.36, 400, 400)"></path><path d="M408.75 144C417.21 144.18 425.7 145.17 434.2 146.93 442.71 149.05 451.23 151.86 459.74 155.29 468.24 158.96 476.73 163.16 485.14 167.81 493.54 172.54 501.85 177.62 510.01 182.98 518.1 188.29 526.01 193.8 533.66 199.45 541.19 204.94 548.39 210.53 555.19 216.18 561.79 221.62 567.92 227.1 573.51 232.62 578.82 237.91 583.53 243.24 587.59 248.63 592.88 256.44 599.7 272.28 601.38 280.42 602.4 288.53 602.87 305.62 602.94 314.69 603.46 320.75 604.17 327.08 605.16 333.69 606.88 340.25 609.01 347.1 611.59 354.23 614.95 361.34 618.71 368.75 622.81 376.45 627.47 384.14 632.24 392.13 636.94 400.42 641.74 408.71 646.01 417.11 649.56 425.6 652.73 434.1 654.91 442.7 656.03 451.38 656.45 460.06 655.69 468.83 653.79 477.64 651.13 486.46 647.4 495.31 642.69 504.17 637.4 513.01 631.33 521.83 624.6 530.57 617.58 539.25 610.12 547.8 602.36 556.15 594.58 564.38 586.66 572.33 578.71 579.92 570.93 587.28 563.21 594.2 555.59 600.58 548.24 606.62 541 612.03 533.89 616.73 527.04 621 520.29 624.49 513.59 627.15 507.12 629.36 500.65 630.72 494.15 631.24 487.81 631.37 481.37 630.74 474.82 629.37 468.36 627.81 461.73 625.7 454.93 623.11 448.16 620.64 441.19 617.93 434 615.11 426.82 612.74 419.41 610.5 411.79 608.49 404.16 607.23 396.31 606.38 388.25 606 380.19 606.5 372.13 607.47 364.1 608.83 356.07 610.94 348.09 613.26 340.19 615.7 332.32 618.58 324.54 621.33 316.91 623.83 309.32 626.42 301.89 628.54 294.67 630.07 287.51 631.4 280.58 631.99 273.92 631.8 267.34 631.22 261.05 629.78 255.07 627.5 249.2 624.75 243.65 621.18 238.46 616.83 233.35 612.05 228.6 606.57 224.21 600.46 219.88 594.01 215.89 587.03 212.24 579.61 208.6 571.96 205.25 563.97 202.2 555.71 199.08 547.32 196.2 538.74 193.55 530.04 190.75 521.28 188.14 512.45 185.69 503.6 183.05 494.74 180.54 485.88 178.19 477.05 175.61 468.25 173.18 459.49 170.92 450.8 168.48 442.14 166.26 433.54 164.29 425.05 162.22 416.56 160.49 408.17 159.14 399.89 157.82 391.6 157.02 383.62 156.73 375.94 156.59 368.24 157.04 360.84 158.06 353.74 159.3 346.61 161.13 339.77 163.54 333.22 166.18 326.63 169.37 320.31 173.08 314.26 176.97 308.15 181.33 302.28 186.12 296.66 191.01 290.94 196.27 285.44 201.84 280.12 207.44 274.68 213.3 269.39 219.38 264.24 225.41 258.92 231.63 253.7 237.99 248.56 244.27 243.22 250.67 237.92 257.19 232.68 263.6 227.21 270.13 221.77 276.76 216.38 283.29 210.76 289.94 205.21 296.71 199.75 303.39 194.12 310.22 188.64 317.2 183.34 324.11 177.99 331.19 172.91 338.45 168.16 345.66 163.5 353.07 159.28 360.68 155.58 368.26 152.11 376.05 149.26 384.06 147.09 392.06 145.28 400.29 144.24 408.74 144" stroke-dasharray="5 9" transform="rotate(40.400000000000006, 400, 400)"></path><path d="M412.8 158.43C420.8 158.6 428.8 159.51 436.77 161.13 444.74 163.09 452.68 165.69 460.55 168.88 468.42 172.3 476.22 176.23 483.9 180.59 491.54 185.06 499.04 189.89 506.34 195 513.57 200.1 520.56 205.42 527.26 210.9 533.83 216.27 540.05 221.77 545.86 227.35 551.49 232.76 556.65 238.23 561.31 243.76 565.73 249.09 569.61 254.48 572.92 259.91 577.26 267.82 582.92 283.79 584.42 291.93 585.54 300.01 586.85 316.85 587.54 325.69 588.47 331.58 589.59 337.7 590.96 344.05 592.97 350.37 595.32 356.93 598.01 363.74 601.37 370.53 605.03 377.58 608.92 384.9 613.29 392.21 617.7 399.79 622 407.65 626.41 415.5 630.32 423.45 633.61 431.48 636.59 439.5 638.71 447.61 639.9 455.76 640.53 463.91 640.12 472.11 638.71 480.32 636.66 488.52 633.62 496.72 629.7 504.87 625.24 512.99 620.01 521.02 614.14 528.93 607.94 536.75 601.25 544.39 594.21 551.79 587.05 559.03 579.67 565.97 572.17 572.52 564.73 578.84 557.26 584.71 549.82 590.04 542.54 595.06 535.32 599.49 528.18 603.26 521.25 606.66 514.38 609.36 507.57 611.33 500.95 612.94 494.35 613.82 487.76 613.98 481.31 613.86 474.83 613.1 468.29 611.74 461.84 610.28 455.29 608.36 448.64 606.07 442.03 603.92 435.28 601.6 428.39 599.18 421.51 597.2 414.47 595.31 407.28 593.62 400.09 592.59 392.74 591.89 385.24 591.56 377.75 592 370.28 592.81 362.88 593.94 355.49 595.72 348.17 597.69 340.95 599.75 333.76 602.22 326.69 604.59 319.77 606.76 312.89 609.07 306.19 610.99 299.7 612.45 293.26 613.79 287.05 614.51 281.09 614.59 272.4 613.9 256.54 608.34 249.44 603.48 244.87 599.64 240.6 595.15 236.66 590.06 232.73 584.66 229.1 578.73 225.76 572.35 222.39 565.75 219.28 558.76 216.41 551.47 213.45 544.03 210.69 536.36 208.12 528.5 205.4 520.58 202.83 512.52 200.42 504.38 197.81 496.22 195.32 488.01 192.98 479.8 190.42 471.59 188.02 463.39 185.78 455.23 183.37 447.08 181.16 438.98 179.21 430.95 177.16 422.93 175.43 414.99 174.07 407.14 172.74 399.29 171.88 391.71 171.51 384.41 171.27 377.1 171.58 370.05 172.42 363.28 173.46 356.48 175.07 349.93 177.21 343.63 179.57 337.29 182.45 331.19 185.83 325.32 189.39 319.38 193.41 313.65 197.85 308.11 202.41 302.48 207.33 297.02 212.57 291.72 217.88 286.28 223.45 280.97 229.26 275.77 235.05 270.41 241.05 265.13 247.2 259.93 253.31 254.53 259.55 249.19 265.92 243.9 272.21 238.41 278.61 232.97 285.12 227.6 291.54 222.05 298.07 216.59 304.72 211.24 311.28 205.77 317.97 200.47 324.78 195.38 331.53 190.27 338.43 185.44 345.47 180.95 352.46 176.57 359.62 172.62 366.93 169.17 374.22 165.94 381.69 163.29 389.34 161.29 396.97 159.62 404.79 158.65 412.79 158.43" stroke-dasharray="3 8" transform="rotate(44.44, 400, 400)"></path><path d="M415.31 172.87C422.82 173.02 430.28 173.85 437.67 175.34 445.05 177.12 452.37 179.51 459.57 182.45 466.76 185.61 473.82 189.26 480.73 193.32 487.6 197.5 494.27 202.04 500.72 206.87 507.09 211.71 513.2 216.79 518.99 222.06 524.66 227.26 529.98 232.59 534.9 238.04 539.67 243.36 544.01 248.77 547.88 254.24 551.59 259.56 554.82 264.94 557.56 270.37 561.22 278.31 566.2 294.34 567.72 302.47 569.07 310.54 571.29 327.18 572.58 335.82 573.88 341.57 575.35 347.52 577.03 353.65 579.26 359.74 581.76 366.04 584.52 372.55 587.82 379.05 591.35 385.76 595.02 392.71 599.08 399.64 603.14 406.81 607.07 414.22 611.09 421.62 614.66 429.09 617.68 436.59 620.45 444.1 622.49 451.65 623.72 459.22 624.5 466.78 624.39 474.34 623.39 481.87 621.86 489.38 619.46 496.84 616.25 504.21 612.56 511.53 608.15 518.73 603.11 525.74 597.74 532.67 591.87 539.38 585.59 545.8 579.15 552.08 572.43 558.02 565.5 563.57 558.57 568.91 551.53 573.79 544.43 578.17 537.42 582.28 530.4 585.84 523.42 588.8 516.56 591.47 509.75 593.52 502.97 594.93 496.34 596.07 489.73 596.6 483.15 596.52 476.69 596.25 470.21 595.45 463.73 594.17 457.32 592.85 450.87 591.16 444.36 589.18 437.91 587.37 431.37 585.41 424.75 583.38 418.15 581.75 411.45 580.2 404.66 578.8 397.88 577.97 390.99 577.4 384.01 577.12 377.04 577.5 370.14 578.17 363.33 579.09 356.53 580.58 349.84 582.21 343.28 583.91 336.73 585.99 330.32 588 324.09 589.85 317.88 591.85 311.85 593.55 306.04 594.87 297.48 596.54 281.62 596.92 274.38 595.44 267.46 592.92 255.05 584.3 249.54 578.32 245.95 573.88 242.6 568.94 239.51 563.55 236.35 557.95 233.41 551.95 230.68 545.63 227.83 539.16 225.16 532.42 222.65 525.46 219.98 518.41 217.45 511.19 215.05 503.85 212.47 496.46 210 488.98 207.67 481.45 205.15 473.91 202.77 466.34 200.55 458.77 198.18 451.21 196.02 443.65 194.08 436.14 192.08 428.64 190.37 421.17 189 413.78 187.66 406.38 186.77 399.21 186.32 392.29 186 385.35 186.18 378.65 186.85 372.17 187.71 365.67 189.08 359.38 190.96 353.3 193.03 347.19 195.6 341.27 198.63 335.54 201.85 329.74 205.5 324.11 209.55 318.64 213.74 313.08 218.29 307.66 223.16 302.36 228.11 296.94 233.34 291.61 238.81 286.38 244.31 281.01 250.01 275.71 255.89 270.47 261.75 265.07 267.76 259.73 273.9 254.45 279.99 249.01 286.21 243.64 292.52 238.35 298.78 232.93 305.15 227.61 311.61 222.43 318.01 217.18 324.52 212.1 331.13 207.26 337.69 202.43 344.37 197.88 351.16 193.68 357.92 189.6 364.8 185.93 371.81 182.73 378.79 179.76 385.92 177.33 393.17 175.49 400.41 173.96 407.79 173.07 415.3 172.87" stroke-dasharray="1 9" transform="rotate(48.48, 400, 400)"></path><path d="M415.97 187.31C422.95 187.44 429.85 188.19 436.63 189.54 443.41 191.16 450.06 193.34 456.58 196.02 463.07 198.91 469.41 202.26 475.55 206.01 481.65 209.88 487.54 214.1 493.17 218.61 498.74 223.17 504.02 227.96 509 232.95 513.88 237.92 518.42 243.04 522.59 248.29 526.64 253.45 530.31 258.72 533.57 264.07 538.1 271.95 545.06 287.86 547.57 295.88 549.76 303.8 553.09 319.88 554.5 328.08 555.67 333.51 556.84 339.06 558.07 344.73 559.68 350.35 561.44 356.12 563.36 362.04 565.74 367.92 568.33 373.97 571.1 380.19 574.31 386.39 577.67 392.77 581.11 399.34 584.86 405.89 588.57 412.63 592.14 419.56 595.78 426.49 599.02 433.44 601.77 440.4 604.34 447.35 606.26 454.31 607.51 461.23 608.39 468.15 608.5 475.03 607.86 481.83 606.77 488.61 604.92 495.3 602.35 501.85 599.36 508.34 595.71 514.68 591.47 520.8 586.92 526.83 581.86 532.61 576.38 538.1 570.71 543.45 564.72 548.46 558.48 553.08 552.17 557.51 545.69 561.52 539.09 565.06 532.52 568.38 525.88 571.2 519.22 573.49 512.63 575.56 506.03 577.1 499.45 578.09 492.97 578.89 486.49 579.17 480.04 578.95 473.68 578.63 467.32 577.87 460.97 576.71 454.68 575.57 448.38 574.14 442.06 572.47 435.79 570.98 429.48 569.37 423.15 567.71 416.83 566.4 410.46 565.15 404.05 564.02 397.65 563.37 391.2 562.92 384.71 562.68 378.22 563.01 371.84 563.55 365.59 564.28 359.35 565.5 353.23 566.82 347.27 568.2 338.42 570.75 321.59 575.53 313.67 577.4 305.99 578.93 291.79 579.65 285.29 578.66 279.06 576.84 267.79 570.15 262.73 565.34 257.83 559.72 248.96 546 244.91 538.08 242.15 532.56 239.54 526.73 237.07 520.67 234.44 514.51 231.94 508.15 229.56 501.63 227 495.05 224.56 488.35 222.25 481.55 219.77 474.73 217.43 467.84 215.24 460.91 212.93 453.98 210.81 447.02 208.92 440.06 206.97 433.11 205.29 426.16 203.93 419.23 202.6 412.31 201.68 405.57 201.18 399.02 200.78 392.47 200.84 386.09 201.35 379.91 202.03 373.7 203.18 367.67 204.79 361.8 206.58 355.9 208.83 350.16 211.52 344.56 214.37 338.91 217.64 333.38 221.29 327.99 225.08 322.51 229.22 317.14 233.68 311.86 238.23 306.49 243.06 301.19 248.13 295.97 253.26 290.64 258.6 285.36 264.13 280.16 269.66 274.82 275.36 269.55 281.2 264.35 287.02 259.03 292.96 253.78 299.01 248.64 305.03 243.41 311.15 238.31 317.35 233.35 323.53 228.36 329.79 223.57 336.14 219.01 342.46 214.49 348.87 210.26 355.37 206.37 361.84 202.6 368.4 199.22 375.06 196.3 381.7 193.57 388.43 191.36 395.25 189.69 402.07 188.29 408.98 187.49 415.96 187.31" stroke-dasharray="7 7" transform="rotate(52.52, 400, 400)"></path><path d="M414.71 201.75C421.14 201.86 427.44 202.53 433.6 203.75 439.76 205.2 445.76 207.16 451.6 209.59 457.41 212.21 463.04 215.25 468.46 218.67 473.85 222.22 479 226.09 483.91 230.26 493.55 238.75 502.06 248.14 509.27 258.14 516.19 267.95 521.79 278.21 526.05 288.73 530.24 298.9 533.38 309.35 535.7 320.03 538.6 330.4 541.27 341.12 543.99 352.18 545.86 357.64 547.83 363.22 549.92 368.91 552.39 374.56 555 380.35 557.73 386.26 560.82 392.15 563.98 398.18 567.18 404.34 570.62 410.5 573.99 416.8 577.21 423.23 580.49 429.66 583.41 436.07 585.89 442.44 588.24 448.82 590.04 455.15 591.27 461.41 592.2 467.66 592.49 473.82 592.13 479.88 591.41 485.91 590.03 491.81 588.02 497.54 582.96 508.85 575.63 519.33 566.48 528.68 556.56 537.55 545.4 545.03 533.49 550.85 521.47 556.01 509.07 559.4 496.57 560.93 484.26 561.97 471.92 561.4 459.65 559.41 453.58 558.48 447.52 557.31 441.46 555.95 435.44 554.77 429.41 553.5 423.38 552.17 417.37 551.15 411.35 550.18 405.32 549.27 399.3 548.79 393.27 548.44 387.25 548.25 378.27 548.74 361.06 551.02 352.84 552.62 344.79 554.66 329.58 558.53 322.45 560.07 313.09 562.07 304.52 562.62 296.84 561.55 289.1 559.95 282.18 556.49 276.07 551.24 269.74 545.33 264.07 537.76 259.03 528.81 253.52 519.39 248.47 508.84 243.9 497.48 241.38 491.72 238.98 485.8 236.7 479.75 234.27 473.68 231.98 467.5 229.85 461.23 227.61 454.96 225.56 448.63 223.72 442.25 221.83 435.87 220.2 429.46 218.87 423.03 217.55 416.61 216.62 410.31 216.07 404.16 215.61 398.01 215.56 391.98 215.93 386.1 216.43 380.21 217.37 374.44 218.73 368.8 220.25 363.13 222.18 357.58 224.52 352.14 229.65 341.12 236.3 330.45 244.2 320.14 252.52 309.51 261.88 299.11 272.05 289 282.35 278.53 293.3 268.32 304.69 258.53 316.06 248.55 327.82 239.17 339.86 230.67 345.86 226.49 351.94 222.59 358.07 219.03 364.2 215.58 370.39 212.51 376.63 209.86 382.88 207.39 389.18 205.39 395.53 203.89 401.87 202.63 408.27 201.91 414.7 201.75" stroke-dasharray="10 7" transform="rotate(56.56, 400, 400)"></path><path d="M411.67 216.18C423.37 216.6 434.49 219.01 444.88 223.17 455.21 228.01 464.74 234.34 473.31 241.84 481.74 249.63 489.13 258.32 495.4 267.64 501.52 276.91 506.55 286.65 510.53 296.7 514.61 306.52 517.91 316.63 520.61 326.94 523.93 337.03 527.12 347.41 530.35 358.02 534.71 368.5 539.42 379.34 544.42 390.48 550.51 401.59 556.61 413.08 562.28 424.9 568.14 436.72 572.48 448.29 575.01 459.48 576.67 470.62 576.08 481.27 573.3 491.22 569.39 500.98 563.44 509.86 555.82 517.62 547.45 525.01 537.82 531.1 527.33 535.72 516.6 539.87 505.34 542.51 493.84 543.6 482.4 544.41 470.83 543.93 459.28 542.3 447.85 540.98 436.4 539.04 425.05 536.75 413.75 535.54 402.48 534.51 391.32 533.81 380.16 534.66 369.61 535.83 359.73 537.16 349.83 539.55 340.61 541.57 332.12 542.94 323.6 544.59 315.8 545.07 308.77 544.24 301.63 543.11 295.17 540.42 289.41 536.21 283.37 531.52 277.89 525.35 272.95 517.9 267.56 510.06 262.59 501.12 258.06 491.32 253.01 481.32 248.4 470.64 244.37 459.47 240 448.26 236.39 436.67 233.8 424.86 231.29 413.04 230.22 401.56 230.59 390.48 231.42 379.35 233.82 368.55 237.67 358.11 242.07 347.53 247.86 337.2 254.84 327.16 262.22 316.89 270.62 306.82 279.82 297.04 289.22 287.03 299.26 277.32 309.77 268.07 320.33 258.75 331.28 250.06 342.48 242.25 353.67 234.71 365.12 228.33 376.68 223.42 388.25 219.19 399.96 216.7 411.66 216.18" stroke-dasharray="6 9" transform="rotate(60.599999999999994, 400, 400)"></path><path d="M407.23 230.62C417.76 230.98 427.68 233.09 436.87 236.76 446.02 241.04 454.4 246.67 461.91 253.39 469.33 260.42 475.86 268.33 481.45 276.88 487 285.46 491.69 294.55 495.58 303.96 499.66 313.26 503.18 322.86 506.26 332.64 509.94 342.29 513.52 352.17 517.11 362.21 521.62 372.17 526.33 382.37 531.14 392.75 536.78 403.1 542.31 413.69 547.35 424.43 552.54 435.16 556.41 445.53 558.74 455.4 560.44 465.22 560.25 474.46 558.21 482.95 555.28 491.28 550.58 498.73 544.36 505.14 537.48 511.26 529.37 516.22 520.36 519.9 511.05 523.28 501.11 525.39 490.81 526.24 480.47 526.97 469.9 526.66 459.29 525.44 448.72 524.56 438.12 523.17 427.61 521.46 417.13 520.66 406.7 519.93 396.44 519.37 386.17 520.07 376.5 520.92 367.49 521.83 358.45 523.64 350.03 525.11 342.29 526.04 334.49 527.3 327.31 527.62 320.79 526.88 314.13 526.02 308.04 523.87 302.53 520.45 296.75 516.72 291.43 511.71 286.57 505.53 281.32 499.08 276.45 491.57 272 483.2 267.12 474.67 262.67 465.39 258.8 455.55 254.65 445.66 251.22 435.28 248.73 424.55 246.31 413.81 245.18 403.23 245.33 392.89 245.86 382.53 247.79 372.35 251.01 362.43 254.69 352.41 259.64 342.56 265.67 332.96 272.09 323.2 279.47 313.64 287.62 304.37 295.99 294.97 305.02 285.9 314.5 277.33 324.09 268.77 334.07 260.85 344.28 253.79 354.53 247.02 365 241.34 375.53 237 386.08 233.26 396.7 231.06 407.23 230.62" stroke-dasharray="1 1" transform="rotate(64.64, 400, 400)"></path><path d="M401.92 245.06C411.28 245.35 420.05 247.18 428.16 250.37 436.24 254.09 443.64 259.02 450.28 264.95 456.88 271.18 462.75 278.25 467.87 285.94 473.02 293.72 477.52 302.02 481.42 310.66 485.55 319.27 489.28 328.18 492.68 337.27 496.61 346.29 500.45 355.52 504.25 364.86 508.76 374.14 513.34 383.59 517.88 393.11 523.04 402.62 527.98 412.23 532.42 421.86 536.97 431.49 540.38 440.65 542.49 449.25 544.14 457.81 544.24 465.75 542.8 472.93 540.69 479.99 537.06 486.22 532.1 491.49 526.58 496.57 519.92 500.64 512.38 503.62 504.53 506.44 496 508.22 487.03 508.97 477.96 509.73 468.57 509.66 459.06 508.85 449.55 508.39 439.94 507.49 430.39 506.29 420.85 505.85 411.34 505.38 401.98 504.93 392.62 505.49 383.81 506.08 375.59 506.62 367.34 507.91 359.65 508.88 352.54 509.4 345.35 510.25 338.7 510.36 332.6 509.61 326.35 508.85 320.57 507.06 315.27 504.22 309.73 501.2 304.57 497.1 299.83 491.98 294.75 486.67 290.03 480.41 285.7 473.31 281.05 466.09 276.81 458.13 273.13 449.55 269.24 440.93 266.02 431.76 263.66 422.13 261.36 412.5 260.2 402.88 260.17 393.39 260.44 383.88 261.93 374.45 264.56 365.18 267.56 355.86 271.69 346.66 276.8 337.67 282.24 328.59 288.57 319.7 295.63 311.11 302.92 302.47 310.83 294.18 319.2 286.39 327.69 278.68 336.57 271.6 345.68 265.33 354.85 259.36 364.22 254.37 373.63 250.59 383.08 247.33 392.55 245.43 401.92 245.06" stroke-dasharray="6 3" transform="rotate(68.68, 400, 400)"></path><path d="M396.37 259.5C404.59 259.73 412.29 261.28 419.42 264.01 426.54 267.18 433.09 271.42 439.02 276.54 444.95 281.95 450.31 288.12 455.09 294.89 459.95 301.79 464.32 309.18 468.25 316.93 472.41 324.7 476.28 332.76 479.89 341.02 483.93 349.25 487.88 357.66 491.72 366.14 496.11 374.61 500.45 383.18 504.64 391.75 509.28 400.32 513.64 408.91 517.49 417.41 521.43 425.91 524.38 433.91 526.25 441.32 527.81 448.7 528.09 455.46 527.11 461.5 525.65 467.46 522.92 472.66 519.06 477.02 514.75 481.27 509.43 484.66 503.28 487.16 496.85 489.58 489.74 491.17 482.15 491.94 474.43 492.79 466.34 492.97 458.04 492.56 449.71 492.48 441.23 492.01 432.73 491.25 424.23 491.09 415.71 490.83 407.29 490.5 398.86 490.94 390.9 491.3 383.44 491.54 375.95 492.39 368.92 492.92 362.38 493.06 355.77 493.53 349.59 493.38 343.87 492.55 335.27 491 319.7 483.55 312.65 477.58 307.81 473.19 303.29 467.97 299.16 461.99 294.78 455.92 290.82 449.14 287.37 441.75 283.78 434.32 280.8 426.31 278.59 417.81 276.43 409.3 275.27 400.71 275.1 392.15 275.15 383.58 276.25 375.02 278.34 366.57 280.72 358.09 284.08 349.69 288.3 341.47 292.79 333.23 298.09 325.17 304.05 317.4 310.21 309.66 316.97 302.25 324.16 295.34 331.48 288.55 339.18 282.35 347.11 276.9 355.12 271.73 363.31 267.45 371.56 264.22 379.85 261.42 388.16 259.8 396.37 259.5" stroke-dasharray="5 11" transform="rotate(72.72, 400, 400)"></path><path d="M391.26 273.93C398.36 274.11 405.06 275.4 411.3 277.69 417.54 280.33 423.34 283.88 428.67 288.21 434.02 292.79 438.94 298.05 443.44 303.85 448.03 309.8 452.27 316.21 456.18 322.96 460.29 329.77 464.18 336.87 467.86 344.14 471.87 351.43 475.75 358.89 479.5 366.4 483.62 373.92 487.63 381.5 491.41 389.04 495.5 396.59 499.27 404.1 502.56 411.48 505.91 418.85 508.42 425.72 510.03 432.03 511.64 441.17 509.24 456.28 505.3 462.1 499.96 467.14 485.03 473.66 475.91 475.26 469.54 476.23 462.78 476.66 455.75 476.6 448.67 476.83 441.39 476.73 434.01 476.33 426.62 476.4 419.16 476.31 411.72 476.06 404.27 476.4 397.18 476.57 390.47 476.58 383.75 477.05 377.38 477.23 371.41 477.05 362.52 476.96 346.32 474.25 338.96 471.35 331.66 467.74 318.33 456.85 312.36 449.64 308.32 444.56 304.68 438.84 301.51 432.54 298.26 426.21 295.55 419.33 293.52 411.96 291.53 404.58 290.41 397.06 290.13 389.52 290.01 381.97 290.78 374.4 292.38 366.89 294.2 359.37 296.84 351.92 300.24 344.63 303.84 337.36 308.14 330.25 313.04 323.44 318.1 316.68 323.7 310.25 329.72 304.29 335.84 298.45 342.33 293.16 349.06 288.55 355.85 284.17 362.84 280.57 369.91 277.87 377.01 275.53 384.16 274.18 391.26 273.93" stroke-dasharray="2 3" transform="rotate(76.76, 400, 400)"></path><path d="M387.21 288.37C396.1 289.02 412.35 294.99 419.67 299.99 429.3 307.69 437.85 317.64 445.26 328.94 453.32 340.53 460.8 353.15 467.52 366.01 471.27 372.47 474.85 378.97 478.17 385.42 481.69 391.88 484.88 398.29 487.63 404.55 491.46 413.7 495.3 429.57 495.12 436.19 493.69 444.59 488.97 450.8 481.6 454.66 473.56 458.66 463.36 460.72 451.86 460.99 446.05 461.47 439.98 461.64 433.76 461.53 427.53 461.76 421.16 461.79 414.73 461.62 408.3 461.87 402.12 461.91 396.21 461.74 390.28 461.92 384.62 461.81 379.24 461.38 368.36 461.2 358.41 459.19 349.66 455.22 340.45 451.38 332.19 445.17 325.29 436.76 321.67 432.53 318.4 427.74 315.57 422.45 312.68 417.14 310.27 411.34 308.45 405.08 306.66 398.82 305.61 392.41 305.25 385.94 305.01 379.49 305.5 372.98 306.68 366.53 309.51 353.65 315.07 341.02 322.75 329.41 330.92 318.07 340.9 308.06 351.94 300.29 357.52 296.7 363.32 293.75 369.23 291.57 375.16 289.66 381.18 288.56 387.21 288.37" stroke-dasharray="4 3" transform="rotate(80.80000000000001, 400, 400)"></path><path d="M384.69 302.81C394.67 303.22 403.97 306.46 412.31 311.92 420.77 317.99 428.54 325.96 435.45 335.09 442.82 344.5 449.68 354.84 455.75 365.43 462.43 376.1 468.31 386.91 472.7 397.22 477.22 407.54 479.28 416.31 478.92 423.32 478.08 430.32 474.69 435.62 469.15 439.11 463.17 442.79 455.33 444.99 446.22 445.75 436.97 447.2 426.72 447.69 415.97 447.18 405.23 447.82 395.01 447.43 385.65 446.07 376.17 445.4 367.36 443.26 359.51 439.62 351.39 436.15 344.07 430.87 337.97 423.88 331.61 416.86 326.55 408.08 323.38 397.76 320.31 387.44 319.68 376.62 321.26 365.93 323.21 355.33 327.36 344.96 333.27 335.52 339.5 326.35 347.29 318.33 356.08 312.18 364.99 306.65 374.7 303.31 384.69 302.81" stroke-dasharray="6 8" transform="rotate(84.84, 400, 400)"></path><path d="M384.02 317.25C391.99 317.51 399.63 319.92 406.69 324.04 413.84 328.57 420.57 334.61 426.67 341.61 433.04 348.83 438.96 356.85 444.12 365.12 449.62 373.47 454.34 381.98 457.77 390.14 462.08 401.8 461.01 418.93 455.8 424.3 451.53 427.61 445.75 429.81 438.84 430.87 431.84 432.39 423.87 433.06 415.29 432.75 406.71 433.15 398.35 432.58 390.52 431.13 382.65 430.14 375.22 427.99 368.53 424.72 361.7 421.62 355.53 417.18 350.4 411.49 345.14 405.81 340.96 398.81 338.32 390.64 335.73 382.47 335.07 373.95 336.11 365.59 337.36 357.29 340.32 349.25 344.67 341.99 349.2 334.94 355.01 328.85 361.71 324.26 368.49 320.08 376.04 317.59 384.02 317.25" stroke-dasharray="3 11" transform="rotate(88.88, 400, 400)"></path><path d="M385.27 331.68C397.27 332.31 409.01 338.9 418.76 348.7 429.05 359.05 437.92 371.77 442.83 383.9 447.93 396.03 447.22 405.13 441.77 410.39 435.87 416.14 425.56 419.03 412.76 418.31 399.96 419.17 387.23 416.39 376.75 410.72 366.05 405.53 357.37 396.45 353.25 384.32 349.27 372.18 350.99 359.42 356.93 349 363.19 339.13 373.27 332.43 385.27 331.68" stroke-dasharray="1 9" transform="rotate(92.92, 400, 400)"></path><path d="M388.3 346.12C396.35 346.39 404.56 350.41 411.5 356.54 418.64 362.93 424.69 371.02 427.9 379.05 430.97 390.26 420.42 402.98 408.7 403.87 400.25 404.26 391.56 401.96 384.29 397.72 376.98 393.74 371.04 387.37 368.18 379.35 365.38 371.32 366.3 363.19 370 356.75 373.8 350.57 380.24 346.48 388.3 346.12" stroke-dasharray="10 0" transform="rotate(96.96, 400, 400)"></path></g></svg>