<svg xmlns="http://www.w3.org/2000/svg" version="1.1" xmlns:xlink="http://www.w3.org/1999/xlink" xmlns:svgjs="http://svgjs.dev/svgjs" viewBox="0 0 1422 800"><defs><linearGradient x1="50%" y1="0%" x2="50%" y2="100%" id="oooscillate-grad"><stop stop-color="hsl(30, 100%, 50%)" stop-opacity="1" offset="0%"></stop><stop stop-color="hsl(30, 100%, 70%)" stop-opacity="1" offset="100%"></stop></linearGradient></defs><g stroke-width="3.5" stroke="url(#oooscillate-grad)" fill="none" stroke-linecap="round"><path d="M 0 3752 Q 355.5 -100 711 400 Q 1066.5 900 1422 3752" opacity="0.46"></path><path d="M 0 3685 Q 355.5 -100 711 400 Q 1066.5 900 1422 3685" opacity="0.85"></path><path d="M 0 3618 Q 355.5 -100 711 400 Q 1066.5 900 1422 3618" opacity="0.53"></path><path d="M 0 3551 Q 355.5 -100 711 400 Q 1066.5 900 1422 3551" opacity="0.32"></path><path d="M 0 3484 Q 355.5 -100 711 400 Q 1066.5 900 1422 3484" opacity="0.57"></path><path d="M 0 3417 Q 355.5 -100 711 400 Q 1066.5 900 1422 3417" opacity="0.07"></path><path d="M 0 3350 Q 355.5 -100 711 400 Q 1066.5 900 1422 3350" opacity="0.32"></path><path d="M 0 3283 Q 355.5 -100 711 400 Q 1066.5 900 1422 3283" opacity="0.77"></path><path d="M 0 3216 Q 355.5 -100 711 400 Q 1066.5 900 1422 3216" opacity="0.08"></path><path d="M 0 3149 Q 355.5 -100 711 400 Q 1066.5 900 1422 3149" opacity="0.59"></path><path d="M 0 3082 Q 355.5 -100 711 400 Q 1066.5 900 1422 3082" opacity="0.13"></path><path d="M 0 3015 Q 355.5 -100 711 400 Q 1066.5 900 1422 3015" opacity="0.99"></path><path d="M 0 2948 Q 355.5 -100 711 400 Q 1066.5 900 1422 2948" opacity="0.23"></path><path d="M 0 2881 Q 355.5 -100 711 400 Q 1066.5 900 1422 2881" opacity="0.08"></path><path d="M 0 2814 Q 355.5 -100 711 400 Q 1066.5 900 1422 2814" opacity="0.64"></path><path d="M 0 2747 Q 355.5 -100 711 400 Q 1066.5 900 1422 2747" opacity="0.84"></path><path d="M 0 2680 Q 355.5 -100 711 400 Q 1066.5 900 1422 2680" opacity="0.76"></path><path d="M 0 2613 Q 355.5 -100 711 400 Q 1066.5 900 1422 2613" opacity="0.96"></path><path d="M 0 2546 Q 355.5 -100 711 400 Q 1066.5 900 1422 2546" opacity="0.96"></path><path d="M 0 2479 Q 355.5 -100 711 400 Q 1066.5 900 1422 2479" opacity="0.95"></path><path d="M 0 2412 Q 355.5 -100 711 400 Q 1066.5 900 1422 2412" opacity="0.98"></path><path d="M 0 2345 Q 355.5 -100 711 400 Q 1066.5 900 1422 2345" opacity="0.34"></path><path d="M 0 2278 Q 355.5 -100 711 400 Q 1066.5 900 1422 2278" opacity="0.35"></path><path d="M 0 2211 Q 355.5 -100 711 400 Q 1066.5 900 1422 2211" opacity="0.97"></path><path d="M 0 2144 Q 355.5 -100 711 400 Q 1066.5 900 1422 2144" opacity="0.31"></path><path d="M 0 2077 Q 355.5 -100 711 400 Q 1066.5 900 1422 2077" opacity="0.63"></path><path d="M 0 2010 Q 355.5 -100 711 400 Q 1066.5 900 1422 2010" opacity="0.95"></path><path d="M 0 1943 Q 355.5 -100 711 400 Q 1066.5 900 1422 1943" opacity="0.20"></path><path d="M 0 1876 Q 355.5 -100 711 400 Q 1066.5 900 1422 1876" opacity="0.99"></path><path d="M 0 1809 Q 355.5 -100 711 400 Q 1066.5 900 1422 1809" opacity="0.80"></path><path d="M 0 1742 Q 355.5 -100 711 400 Q 1066.5 900 1422 1742" opacity="0.64"></path><path d="M 0 1675 Q 355.5 -100 711 400 Q 1066.5 900 1422 1675" opacity="0.20"></path><path d="M 0 1608 Q 355.5 -100 711 400 Q 1066.5 900 1422 1608" opacity="0.66"></path><path d="M 0 1541 Q 355.5 -100 711 400 Q 1066.5 900 1422 1541" opacity="0.88"></path><path d="M 0 1474 Q 355.5 -100 711 400 Q 1066.5 900 1422 1474" opacity="0.61"></path><path d="M 0 1407 Q 355.5 -100 711 400 Q 1066.5 900 1422 1407" opacity="0.89"></path><path d="M 0 1340 Q 355.5 -100 711 400 Q 1066.5 900 1422 1340" opacity="0.92"></path><path d="M 0 1273 Q 355.5 -100 711 400 Q 1066.5 900 1422 1273" opacity="0.97"></path><path d="M 0 1206 Q 355.5 -100 711 400 Q 1066.5 900 1422 1206" opacity="0.20"></path><path d="M 0 1139 Q 355.5 -100 711 400 Q 1066.5 900 1422 1139" opacity="0.12"></path><path d="M 0 1072 Q 355.5 -100 711 400 Q 1066.5 900 1422 1072" opacity="0.99"></path><path d="M 0 1005 Q 355.5 -100 711 400 Q 1066.5 900 1422 1005" opacity="0.49"></path><path d="M 0 938 Q 355.5 -100 711 400 Q 1066.5 900 1422 938" opacity="0.22"></path><path d="M 0 871 Q 355.5 -100 711 400 Q 1066.5 900 1422 871" opacity="0.14"></path><path d="M 0 804 Q 355.5 -100 711 400 Q 1066.5 900 1422 804" opacity="0.94"></path><path d="M 0 737 Q 355.5 -100 711 400 Q 1066.5 900 1422 737" opacity="0.64"></path><path d="M 0 670 Q 355.5 -100 711 400 Q 1066.5 900 1422 670" opacity="0.56"></path><path d="M 0 603 Q 355.5 -100 711 400 Q 1066.5 900 1422 603" opacity="0.28"></path><path d="M 0 536 Q 355.5 -100 711 400 Q 1066.5 900 1422 536" opacity="0.30"></path><path d="M 0 469 Q 355.5 -100 711 400 Q 1066.5 900 1422 469" opacity="0.71"></path><path d="M 0 402 Q 355.5 -100 711 400 Q 1066.5 900 1422 402" opacity="1.00"></path><path d="M 0 335 Q 355.5 -100 711 400 Q 1066.5 900 1422 335" opacity="0.42"></path><path d="M 0 268 Q 355.5 -100 711 400 Q 1066.5 900 1422 268" opacity="0.91"></path><path d="M 0 201 Q 355.5 -100 711 400 Q 1066.5 900 1422 201" opacity="0.28"></path><path d="M 0 134 Q 355.5 -100 711 400 Q 1066.5 900 1422 134" opacity="0.54"></path></g></svg>