<svg xmlns="http://www.w3.org/2000/svg" version="1.1" xmlns:xlink="http://www.w3.org/1999/xlink" xmlns:svgjs="http://svgjs.dev/svgjs" viewBox="0 0 800 800"><defs><linearGradient x1="50%" y1="0%" x2="50%" y2="100%" id="cccoil-grad"><stop stop-color="hsl(230, 55%, 50%)" stop-opacity="1" offset="0%"></stop><stop stop-color="hsl(230, 55%, 70%)" stop-opacity="1" offset="100%"></stop></linearGradient></defs><g stroke="url(#cccoil-grad)" fill="none" stroke-linecap="round"><circle r="777" cx="400" cy="400" stroke-width="15" stroke-dasharray="4882 4882" transform="rotate(360, 400, 400)" opacity="0.05"></circle><circle r="758.5" cx="400" cy="400" stroke-width="15" stroke-dasharray="4650 4766" transform="rotate(351, 400, 400)" opacity="0.07"></circle><circle r="740" cx="400" cy="400" stroke-width="15" stroke-dasharray="4423 4650" transform="rotate(342, 400, 400)" opacity="0.10"></circle><circle r="721.5" cx="400" cy="400" stroke-width="15" stroke-dasharray="4202 4533" transform="rotate(334, 400, 400)" opacity="0.12"></circle><circle r="703" cx="400" cy="400" stroke-width="15" stroke-dasharray="3986 4417" transform="rotate(325, 400, 400)" opacity="0.14"></circle><circle r="684.5" cx="400" cy="400" stroke-width="15" stroke-dasharray="3776 4301" transform="rotate(316, 400, 400)" opacity="0.17"></circle><circle r="666" cx="400" cy="400" stroke-width="15" stroke-dasharray="3572 4185" transform="rotate(307, 400, 400)" opacity="0.19"></circle><circle r="647.5" cx="400" cy="400" stroke-width="15" stroke-dasharray="3374 4068" transform="rotate(299, 400, 400)" opacity="0.21"></circle><circle r="629" cx="400" cy="400" stroke-width="15" stroke-dasharray="3181 3952" transform="rotate(290, 400, 400)" opacity="0.24"></circle><circle r="610.5" cx="400" cy="400" stroke-width="15" stroke-dasharray="2994 3836" transform="rotate(281, 400, 400)" opacity="0.26"></circle><circle r="592" cx="400" cy="400" stroke-width="15" stroke-dasharray="2812 3720" transform="rotate(272, 400, 400)" opacity="0.28"></circle><circle r="573.5" cx="400" cy="400" stroke-width="15" stroke-dasharray="2637 3603" transform="rotate(263, 400, 400)" opacity="0.30"></circle><circle r="555" cx="400" cy="400" stroke-width="15" stroke-dasharray="2467 3487" transform="rotate(255, 400, 400)" opacity="0.33"></circle><circle r="536.5" cx="400" cy="400" stroke-width="15" stroke-dasharray="2302 3371" transform="rotate(246, 400, 400)" opacity="0.35"></circle><circle r="518" cx="400" cy="400" stroke-width="15" stroke-dasharray="2143 3255" transform="rotate(237, 400, 400)" opacity="0.37"></circle><circle r="499.5" cx="400" cy="400" stroke-width="15" stroke-dasharray="1990 3138" transform="rotate(228, 400, 400)" opacity="0.40"></circle><circle r="481" cx="400" cy="400" stroke-width="15" stroke-dasharray="1843 3022" transform="rotate(220, 400, 400)" opacity="0.42"></circle><circle r="462.5" cx="400" cy="400" stroke-width="15" stroke-dasharray="1701 2906" transform="rotate(211, 400, 400)" opacity="0.44"></circle><circle r="444" cx="400" cy="400" stroke-width="15" stroke-dasharray="1565 2790" transform="rotate(202, 400, 400)" opacity="0.47"></circle><circle r="425.5" cx="400" cy="400" stroke-width="15" stroke-dasharray="1435 2673" transform="rotate(193, 400, 400)" opacity="0.49"></circle><circle r="407" cx="400" cy="400" stroke-width="15" stroke-dasharray="1310 2557" transform="rotate(184, 400, 400)" opacity="0.51"></circle><circle r="388.5" cx="400" cy="400" stroke-width="15" stroke-dasharray="1191 2441" transform="rotate(176, 400, 400)" opacity="0.54"></circle><circle r="370" cx="400" cy="400" stroke-width="15" stroke-dasharray="1077 2325" transform="rotate(167, 400, 400)" opacity="0.56"></circle><circle r="351.5" cx="400" cy="400" stroke-width="15" stroke-dasharray="970 2209" transform="rotate(158, 400, 400)" opacity="0.58"></circle><circle r="333" cx="400" cy="400" stroke-width="15" stroke-dasharray="868 2092" transform="rotate(149, 400, 400)" opacity="0.61"></circle><circle r="314.5" cx="400" cy="400" stroke-width="15" stroke-dasharray="771 1976" transform="rotate(140, 400, 400)" opacity="0.63"></circle><circle r="296" cx="400" cy="400" stroke-width="15" stroke-dasharray="680 1860" transform="rotate(132, 400, 400)" opacity="0.65"></circle><circle r="277.5" cx="400" cy="400" stroke-width="15" stroke-dasharray="595 1744" transform="rotate(123, 400, 400)" opacity="0.68"></circle><circle r="259" cx="400" cy="400" stroke-width="15" stroke-dasharray="516 1627" transform="rotate(114, 400, 400)" opacity="0.70"></circle><circle r="240.5" cx="400" cy="400" stroke-width="15" stroke-dasharray="442 1511" transform="rotate(105, 400, 400)" opacity="0.72"></circle><circle r="222" cx="400" cy="400" stroke-width="15" stroke-dasharray="374 1395" transform="rotate(97, 400, 400)" opacity="0.75"></circle><circle r="203.5" cx="400" cy="400" stroke-width="15" stroke-dasharray="312 1279" transform="rotate(88, 400, 400)" opacity="0.77"></circle><circle r="185" cx="400" cy="400" stroke-width="15" stroke-dasharray="255 1162" transform="rotate(79, 400, 400)" opacity="0.79"></circle><circle r="166.5" cx="400" cy="400" stroke-width="15" stroke-dasharray="204 1046" transform="rotate(70, 400, 400)" opacity="0.81"></circle><circle r="148" cx="400" cy="400" stroke-width="15" stroke-dasharray="159 930" transform="rotate(61, 400, 400)" opacity="0.84"></circle><circle r="129.5" cx="400" cy="400" stroke-width="15" stroke-dasharray="119 814" transform="rotate(53, 400, 400)" opacity="0.86"></circle><circle r="111" cx="400" cy="400" stroke-width="15" stroke-dasharray="85 697" transform="rotate(44, 400, 400)" opacity="0.88"></circle><circle r="92.5" cx="400" cy="400" stroke-width="15" stroke-dasharray="57 581" transform="rotate(35, 400, 400)" opacity="0.91"></circle><circle r="74" cx="400" cy="400" stroke-width="15" stroke-dasharray="34 465" transform="rotate(26, 400, 400)" opacity="0.93"></circle><circle r="55.5" cx="400" cy="400" stroke-width="15" stroke-dasharray="17 349" transform="rotate(18, 400, 400)" opacity="0.95"></circle><circle r="37" cx="400" cy="400" stroke-width="15" stroke-dasharray="6 232" transform="rotate(9, 400, 400)" opacity="0.98"></circle><circle r="18.5" cx="400" cy="400" stroke-width="15" stroke-dasharray="0 116" opacity="1.00"></circle></g></svg>