<svg xmlns="http://www.w3.org/2000/svg" version="1.1" xmlns:xlink="http://www.w3.org/1999/xlink" xmlns:svgjs="http://svgjs.dev/svgjs" viewBox="0 0 800 800"><defs><linearGradient x1="50%" y1="0%" x2="50%" y2="100%" id="cccoil-grad"><stop stop-color="hsl(30, 100%, 50%)" stop-opacity="1" offset="0%"></stop><stop stop-color="hsl(30, 100%, 70%)" stop-opacity="1" offset="100%"></stop></linearGradient></defs><g stroke="url(#cccoil-grad)" fill="none" stroke-linecap="round"><circle r="528" cx="400" cy="400" stroke-width="7" stroke-dasharray="2820 3318" transform="rotate(360, 400, 400)" opacity="0.05"></circle><circle r="511.5" cx="400" cy="400" stroke-width="7" stroke-dasharray="2644 3214" transform="rotate(348, 400, 400)" opacity="0.08"></circle><circle r="495" cx="400" cy="400" stroke-width="7" stroke-dasharray="2473 3110" transform="rotate(337, 400, 400)" opacity="0.11"></circle><circle r="478.5" cx="400" cy="400" stroke-width="7" stroke-dasharray="2308 3007" transform="rotate(325, 400, 400)" opacity="0.14"></circle><circle r="462" cx="400" cy="400" stroke-width="7" stroke-dasharray="2149 2903" transform="rotate(314, 400, 400)" opacity="0.17"></circle><circle r="445.5" cx="400" cy="400" stroke-width="7" stroke-dasharray="1996 2799" transform="rotate(302, 400, 400)" opacity="0.20"></circle><circle r="429" cx="400" cy="400" stroke-width="7" stroke-dasharray="1848 2695" transform="rotate(290, 400, 400)" opacity="0.23"></circle><circle r="412.5" cx="400" cy="400" stroke-width="7" stroke-dasharray="1706 2592" transform="rotate(279, 400, 400)" opacity="0.26"></circle><circle r="396" cx="400" cy="400" stroke-width="7" stroke-dasharray="1569 2488" transform="rotate(267, 400, 400)" opacity="0.30"></circle><circle r="379.5" cx="400" cy="400" stroke-width="7" stroke-dasharray="1438 2384" transform="rotate(255, 400, 400)" opacity="0.33"></circle><circle r="363" cx="400" cy="400" stroke-width="7" stroke-dasharray="1313 2281" transform="rotate(244, 400, 400)" opacity="0.36"></circle><circle r="346.5" cx="400" cy="400" stroke-width="7" stroke-dasharray="1194 2177" transform="rotate(232, 400, 400)" opacity="0.39"></circle><circle r="330" cx="400" cy="400" stroke-width="7" stroke-dasharray="1080 2073" transform="rotate(221, 400, 400)" opacity="0.42"></circle><circle r="313.5" cx="400" cy="400" stroke-width="7" stroke-dasharray="972 1970" transform="rotate(209, 400, 400)" opacity="0.45"></circle><circle r="297" cx="400" cy="400" stroke-width="7" stroke-dasharray="870 1866" transform="rotate(197, 400, 400)" opacity="0.48"></circle><circle r="280.5" cx="400" cy="400" stroke-width="7" stroke-dasharray="773 1762" transform="rotate(186, 400, 400)" opacity="0.51"></circle><circle r="264" cx="400" cy="400" stroke-width="7" stroke-dasharray="682 1659" transform="rotate(174, 400, 400)" opacity="0.54"></circle><circle r="247.5" cx="400" cy="400" stroke-width="7" stroke-dasharray="597 1555" transform="rotate(163, 400, 400)" opacity="0.57"></circle><circle r="231" cx="400" cy="400" stroke-width="7" stroke-dasharray="517 1451" transform="rotate(151, 400, 400)" opacity="0.60"></circle><circle r="214.5" cx="400" cy="400" stroke-width="7" stroke-dasharray="443 1348" transform="rotate(139, 400, 400)" opacity="0.63"></circle><circle r="198" cx="400" cy="400" stroke-width="7" stroke-dasharray="375 1244" transform="rotate(128, 400, 400)" opacity="0.66"></circle><circle r="181.5" cx="400" cy="400" stroke-width="7" stroke-dasharray="313 1140" transform="rotate(116, 400, 400)" opacity="0.69"></circle><circle r="165" cx="400" cy="400" stroke-width="7" stroke-dasharray="256 1037" transform="rotate(105, 400, 400)" opacity="0.72"></circle><circle r="148.5" cx="400" cy="400" stroke-width="7" stroke-dasharray="205 933" transform="rotate(93, 400, 400)" opacity="0.75"></circle><circle r="132" cx="400" cy="400" stroke-width="7" stroke-dasharray="159 829" transform="rotate(81, 400, 400)" opacity="0.79"></circle><circle r="115.5" cx="400" cy="400" stroke-width="7" stroke-dasharray="119 726" transform="rotate(70, 400, 400)" opacity="0.82"></circle><circle r="99" cx="400" cy="400" stroke-width="7" stroke-dasharray="85 622" transform="rotate(58, 400, 400)" opacity="0.85"></circle><circle r="82.5" cx="400" cy="400" stroke-width="7" stroke-dasharray="57 518" transform="rotate(46, 400, 400)" opacity="0.88"></circle><circle r="66" cx="400" cy="400" stroke-width="7" stroke-dasharray="34 415" transform="rotate(35, 400, 400)" opacity="0.91"></circle><circle r="49.5" cx="400" cy="400" stroke-width="7" stroke-dasharray="17 311" transform="rotate(23, 400, 400)" opacity="0.94"></circle><circle r="33" cx="400" cy="400" stroke-width="7" stroke-dasharray="6 207" transform="rotate(12, 400, 400)" opacity="0.97"></circle><circle r="16.5" cx="400" cy="400" stroke-width="7" stroke-dasharray="0 104" opacity="1.00"></circle></g></svg>