<svg xmlns="http://www.w3.org/2000/svg" version="1.1" xmlns:xlink="http://www.w3.org/1999/xlink" xmlns:svgjs="http://svgjs.dev/svgjs" viewBox="0 0 800 800"><defs><linearGradient x1="50%" y1="0%" x2="50%" y2="100%" id="ssscribble-grad"><stop stop-color="hsl(206, 75%, 49%)" stop-opacity="1" offset="0%"></stop><stop stop-color="hsl(331, 90%, 56%)" stop-opacity="1" offset="100%"></stop></linearGradient></defs><g fill="none" stroke-width="1.5" stroke="url(#ssscribble-grad)" stroke-linecap="round"><path d="M1028.08 193.9C1095.36 226.76 1089.34 265.35 1016.75 310.98 900.8 359.35 774.16 419.34 669.08 492.95 605.42 571.49 591.68 662.6 619.75 759.76 681.8 846.87 753.16 920.22 815.69 963.48 867.06 968.38 891.18 929.11 888.82 849.5 866.55 757.16 825.91 669.58 775.79 619.19 717.2 632.96 658.92 712.32 606.62 840.87 552.95 978.2 508.5 1078.35 475.64 1100.02 442.77 1035.17 423.06 908.86 414.76 770.51 405.09 665.18 403.59 623.77 405.23 649.1 398.4 729.83 384.93 830 356.55 916.66 308.26 974.97 236.97 984.65 142.53 949.71 36.93 878.74 -73.39 786.25 -169.65 689.21 -231.94 589.68 -247.66 502.83 -208.09 431.85 -127.1 369.07 -19.17 319.38 84.1 278.74 144 241.33 143.36 207.2 76.08 174.34 -40.35 141.48 -162.14 111.44 -250.81 86.88 -286.29 65.54 -255.43 55.45 -171.47 61.28 -55.02 75.3 65.78 108.04 167.04 156.92 252.52 225.98 216.29 244.11 154.9 127.28 112.46 6.41 84.28 -123.23 72.49 -228.06 67.02 -277.49 75.89 -254.79 95.61 -162.16 117.91 -36.49 146.5 83.16 179.36 148.03 212.22 126.37 247.79 32.9 287.47 -91.73 329.72 -207.62 380.63 -268.29 443.05 -257.98 511.79 -183.52 594.08 -66.48 687.17 60.08 778.37 173.9 867.22 252.14 940.15 290.32 984.37 290.14 992.09 263.97 956.45 227.51 889.41 181 798.06 144.01 705.71 122.41 645.83 105.74 633.68 105.53 681.84 119.13 783.19 135.47 911.64 161.04 1028.08 193.9Q1028.08 193.9 1028.08 193.9" opacity="0.77"></path><path d="M994.08 294.29C1058.77 324.8 1060.36 366.72 1002.75 419.46 902.79 473.09 785.17 538.46 677.04 613.49 596.43 686.6 555.74 763.11 553.85 834.02 587.63 887.63 640.66 919.25 697.6 918.43 756.36 887.54 799.25 824.28 822.23 738.94 831.7 659.14 822.17 598.37 798.97 580.25 767.06 619.57 729.17 711.61 690.73 837.43 650.13 961.92 613.31 1048.78 582.8 1066.02 552.29 1008.31 529.52 894.92 512.57 765.07 493.47 655.5 475.85 595.09 454.88 592.4 425.2 644.06 384.48 726.11 327.98 811.97 257.97 888.69 171.28 932.2 72.53 938.12 -24.39 911.1 -113.6 855.21 -179.16 783.41 -209.04 698.99 -195.72 615.58 -137.47 540.44 -51.71 466.75 48.53 404.71 136.71 354.42 182.55 305.86 174.77 266.45 110.08 235.93 2.84 205.42 -111.12 185.24 -200.3 176.26 -247.76 169 -238.42 175.53 -178.92 196.33 -83.15 218.59 28.29 251.75 134.18 289.15 223.19 313.93 283.33 326.01 314.3 313.05 317.64 267.14 302.29 187.46 278.68 78.97 245.36 -38.65 217.09 -148.06 199.09 -222.1 182.19 -241.79 178.12 -198.77 186.64 -100.98 196.49 17.08 216.94 124.3 247.45 182.03 277.97 164.81 317.1 84.15 364.79 -28.56 413.82 -142.61 473.4 -217.29 543.17 -234.26 614.06 -193.79 692.58 -105.66 772.93 5.9 843.57 123.01 902.72 222.46 939.38 293.35 948.4 334.16 924.43 346.36 867.2 339.79 793.08 315.91 709 289.65 635.59 269.42 598.46 247.27 606.49 237.41 665.73 241.32 766.68 246.12 886.84 263.78 994.08 294.29Q994.08 294.29 994.08 294.29" opacity="0.78"></path><path d="M960.08 438.28C1021.81 466.45 1029.92 506.16 986.29 555.54 902.87 604.11 797.45 660.23 691.98 719.43 601.67 772.31 540.28 820.15 511.38 854.68 514.99 871.3 542.32 864.51 582.15 830.16 633.03 778.14 679.07 707.81 713.67 632.03 742.65 574.5 756.03 544.08 755.3 555.94 748.16 615.37 731.13 714.39 707.91 833.89 682.64 944.66 655 1018.79 626.83 1032.02 598.66 981.11 571.31 880.53 543.46 760.8 513.56 651 479.34 576.74 437.68 549.55 389.59 571.32 329.82 628.33 257.44 701.28 179.42 780.59 92.95 842.94 5.15 879.17 -71.58 891.63 -132.31 875.62 -165.25 838.52 -165.67 784.81 -129.55 722.62 -59.88 660.15 24.94 593.69 114.32 533.72 186.87 483.49 219.63 433.24 205.82 393.37 144.08 365.2 45.96 337.03 -59.63 321.89 -147.39 319.02 -203.66 316.14 -212.94 324.86 -177.16 342.5 -105.05 356.17 -10.15 371.97 90.24 382.28 186.56 375.97 265.31 351.56 321.85 302.19 356.52 229.05 371.11 133.3 372.3 24.67 352.92 -118.74 316.86 -166.66 318.91 -38.63 323.85 70.22 340.06 165.1 368.23 216.03 396.4 202.82 435.19 134.41 483.36 34.51 531.53 -74.12 588.58 -157.12 651.8 -195.92 711.99 -187.14 773.11 -131.46 828.53 -44.6 870.76 60.49 896.61 164.22 898.85 253.16 879.23 324.43 833.87 371.66 766.89 398.45 695.81 407.33 626.17 405.88 574.7 401.8 559.57 391.42 584.88 386.54 652.02 391.08 750.65 394.83 861.96 410.11 960.08 438.28Q960.08 438.28 960.08 438.28" opacity="0.33"></path><path d="M926.08 566.47C984.49 592.29 997.99 625.05 967.14 662.54 900.21 698.32 809.32 735.3 711.44 768.81 618.6 794.94 544.05 810.61 493.91 810.35 469.85 796.71 469.29 763.65 485.32 712.13 517.02 655.6 552.44 593.83 584.6 539.15 618.1 509.2 641.67 508.75 653.76 545.79 662.88 619.07 661.24 719.6 650.2 829.77 637.82 926.3 618.33 988.38 592.52 998.02 566.7 953.56 535.77 865.54 499.45 757.22 461.79 650.86 416.47 568.07 362.6 521.27 305.77 515.19 239.68 544.06 166.38 595.48 94.44 663.48 21.95 728.61 -43.58 780.19 -108.48 828.13 -77.38 799.1 22.22 744.16 101.18 698.62 177.37 653.09 234.33 612.04 255.22 569.72 236.49 534.63 178.08 508.81 88.99 482.99 -7.77 467.66 -92.34 461.28 -154.28 453.64 -178.74 452.19 -164.61 453 -117.02 447.25 -43.44 436.62 43.15 415.07 135.39 378.63 220.8 324.56 292.54 251.29 350.55 165.88 391.39 70.13 417.88 -24.75 434.93 -129.07 441.46 -106.04 450.77 24.38 458.16 122.75 474.12 205.54 499.94 250.02 525.76 240.39 560.22 183.56 601.52 97 641.86 -3.2 686.91 -89.04 733.02 -143.41 773.97 -161.54 810.22 -137.93 836.09 -81.1 849.4 0.45 845.63 92.83 821.46 183.21 783.56 268.57 728.76 338.7 663.41 392.13 603.69 432.19 553.27 459.04 524.6 477.65 529.4 488.89 568.55 498.87 640.45 511.79 734.98 523 836.99 540.65 926.08 566.47Q926.08 566.47 926.08 566.47" opacity="0.93"></path><path d="M892.11 626C946.83 649.47 964.56 673.12 945.08 695.34 894.04 715.84 819.04 731.67 732.65 739.58 643.83 741.84 564.03 732.08 500.26 708.29 454.64 678.01 428.89 635.26 419.9 584.09 426.87 537.81 442.66 496.12 461.42 468.88 486.06 467.15 506.77 492.8 520.38 548.47 534.26 629.02 539.17 726.1 534.49 824.57 529.39 906.71 515.22 957.54 491.74 964.03 468.27 925.66 436.61 849.82 397.45 753.8 357.86 654.08 310.25 568 255.7 507.4 201.41 477.89 142.05 479.25 81.22 504.82 26.3 551.61 -23.19 605.56 -60.92 656.9 -82.69 706.8 -84.77 743.03 -63.59 763.75 -24.27 774.93 34.47 771.91 106.09 758.27 175.27 738.46 236.91 713.26 278.89 686.41 289.32 657.92 266.83 631.02 212.11 607.55 131.95 584.08 44.35 565.14 -35.45 549.37 -100.01 531.95 -135.87 514.46 -140.24 493.59 -116.02 466.55 -65.92 430.91 1.18 383.56 79.96 326.66 160.54 256.73 235.69 176.07 305.33 93.97 363.23 12.19 409.05 -59.03 445.75 -109.05 473.14 -131.46 494.37 -119.15 510.45 -75.75 524.99 -3.03 540.82 87.62 555.33 174.58 573.72 245.66 597.2 284.03 620.67 277.53 648.1 231.47 677.86 158.38 706.3 68.97 734.45 -14.74 759.06 -78.09 778.51 -116.55 789.78 -121.15 789.25 -94.98 779.61 -43.3 755.41 26.21 716.54 103.25 672.15 185.19 619.4 261.63 565.06 328.1 522.39 388.06 493.33 436.47 486.31 474.89 507.87 507.65 557.09 534.52 630.7 558.29 719.56 580.34 811.92 602.52 892.08 625.99Q892.11 626 892.11 626" opacity="1.00"></path><path d="M857.78 592.18C908.61 613.31 929.58 628.8 920.08 638.09 883.94 646.29 825.37 646.4 753.25 637.27 673.84 625.53 596.18 603.57 526.99 572.22 468.07 540.82 423.57 504.32 393.19 467.76 372.52 433.71 380.22 472.24 390.14 561.64 398.32 643.15 401 732.54 396.45 817.65 392.23 885.66 379.96 926.13 358.83 929.92 337.71 897.25 308.73 833.08 273.11 749.91 237.82 659.45 196.71 574.94 151.92 506.67 109.51 459.89 66.5 437.62 26.69 437.46 -5.6 458.31 -29.13 491.67 -39.54 530.03 -36.85 574.47 -17.4 613.84 19.51 644.3 66.71 671.48 125.42 687.42 189.35 692.71 269.26 690.75 309.24 650.79 245.78 620.55 174.35 599.42 96.13 576.42 22.48 550.95 -41.76 524.18 -85.01 492.56 -103.79 454.5 -99.9 412.61 -72.68 361.88 -27.61 302.14 31.54 239.13 98.18 169.43 165.93 97.3 234.72 31.25 297.79 -27.15 352.84 -70 403.29 -91.84 445.45 -88.53 480.28 -57.24 511.44 -4.47 537.94 68 561.43 150.31 583.76 225.34 605.2 285.23 626.32 317.92 647.45 314.14 667.26 277.96 684.76 218.11 701.12 141.15 713.04 63.78 718.49 -2.24 720.27 -53.53 712.9 -79.86 695.01 -80.83 672.53 -59.72 639.78 -18.76 598.68 35.01 558.62 99.26 517.03 166.08 479.87 230.04 456.79 293.95 448.52 350.7 460.1 399.05 494.38 444.79 549.64 483.11 622.05 514.75 703.85 545.3 786.35 571.06 857.78 592.18Q857.78 592.18 857.78 592.18" opacity="0.24"></path><path d="M824.1 479.22C881.81 503.25 847.21 510.27 769.22 493.5 703.04 479.97 633.74 460.02 567 435.99 504.02 416.05 449.71 396.86 405.46 382.83 369.88 380.48 343.73 389.91 325.12 414.63 313.16 455.59 305.15 512.52 298.49 582.79 294.85 659.65 289.54 738.1 280.74 808.93 272.64 863.4 259.62 894.5 240.84 896.03 222.06 868.65 198.42 815.51 171.1 745.32 144.49 666.08 115.64 587.34 86.74 517.41 60.86 460.42 37.94 420.82 20.96 398.89 10.63 394.39 9.82 403.53 20.79 421.51 40.43 449.02 72.48 477.92 115.91 504.07 163.09 531.91 215.55 553.1 267.97 566.24 326.85 580.26 339.71 567.44 280.1 542.77 217.41 524 148.77 499.11 82.34 468.43 20.81 437.15 -26.2 399.11 -55.26 354.49 -67.77 308.81 -60.98 256.69 -37.76 199.91 -0.95 144.82 46.09 88.96 98.5 36.85 155.97 -5.74 212.93 -37.14 266.29 -52.2 319.1 -49.82 366.29 -27.06 407.1 16.16 446.26 72.33 479.76 140.38 507.86 212.37 535.29 275.31 558.45 324.65 577.23 352.03 596.01 350.5 609.52 323.2 617.5 275.98 624.83 212.39 625.48 144.63 618.87 81.53 610.61 25.02 594.34 -15.06 570.46 -36.46 546.05 -41.63 516.05 -28.79 483.18 -1.83 455.39 36.8 430.6 82.95 413.33 131.83 409.66 184.8 419.7 235.67 445.97 281.74 488.79 328.03 546.49 368.23 615.26 401.38 688.93 434.26 761.38 460.43 824.07 479.21Q824.1 479.22 824.1 479.22" opacity="0.09"></path><path d="M790.07 333.48C857.35 366.34 848.9 370.47 779.26 353.99 670.53 344.91 552.01 333.28 450.58 341.79 365.74 388.59 307.26 479.72 267.57 608.18 237.89 739.89 210.25 840.36 177.39 862.02 144.53 797.15 109.55 670.85 82.29 536.65 65.03 426.62 72.23 365.62 113.99 348.71 172.36 368.92 256.02 399.58 340.67 418.36 386.22 441.11 381.35 438.84 314.07 405.98 197.63 373.12 82.02 312.78 4.14 233.08 -30.58 157.35 -8.63 75.41 50.64 12.13 135.45 -14.02 224.97 12.11 300.88 98.06 377.09 208.16 434.13 321.15 466.99 386.02 499.86 364.36 505.42 277.21 486.17 169.59 448.08 37.07 377.47 71.22 442.74 168.71 544.7 242.14 673.63 300.62 790.07 333.48Q790.07 333.48 790.07 333.48" opacity="0.99"></path><path d="M756.11 215.22C817.82 243.38 823.42 256.88 780.7 263.32 703.18 278.25 607.89 302.22 516.3 348.3 427.61 418.81 355.95 518.43 302.94 634.28 255.7 740.11 219 814.81 190.83 828.03 162.67 777.12 145.7 676.42 144.13 561.25 148.33 451.85 176.02 370.47 227.8 322.04 282.48 301.3 347.89 298.08 404.76 296.63 426.83 302.36 409.82 294.86 348.11 266.69 250 238.53 149.83 192.37 73.07 137.82 21.41 90.45 11.38 49.72 34.49 33.54 80.61 45.05 139.9 96.55 196.52 185.3 257.19 279.82 305.39 369.1 333.55 420.03 361.73 406.81 367.2 343.54 355.34 258.36 347.54 163.15 332.2 93.4 323 59.8 336.79 50.64 376.69 70.62 448.99 104.51 546.38 146.88 657.97 187.04 756.08 215.21Q756.11 215.22 756.11 215.22" opacity="0.97"></path><path d="M722.11 173.13C776.83 196.6 792.12 220.61 771.79 248.7 724.37 282.74 657.74 330.59 586.93 395.96 511.29 472.12 443.65 563.66 390.29 657.41 338.64 735.95 299.97 787.54 276.5 794.03 253.03 755.66 246.98 679.54 257.94 587.54 270.64 490.87 301.64 406.14 346.52 342.02 386.56 293.38 428.29 261.51 458.51 239.28 461.63 223.25 436.83 205.9 382.11 182.43 301.95 158.96 218.93 131.59 149.43 106.94 91.77 88.49 61.62 83.73 57.14 101.6 68.78 134.96 96.09 194.78 128.72 274.24 166.02 349.04 199.62 415.64 223.09 454.03 246.57 447.54 257.69 405.47 261.07 344.14 269.11 267.59 278.43 200.94 297.55 155.54 332.79 120.94 387.83 109.72 462.69 116.36 549.39 128.94 641.92 149.65 722.08 173.12Q722.11 173.13 722.11 173.13" opacity="0.37"></path><path d="M687.96 224.57C734.34 243.34 754.93 272.24 751.36 310.61 729.5 351.46 691.36 405.22 646.01 469.64 593.7 535.54 542.84 607.1 500.17 673.99 456.82 726.44 423.8 758.45 405.02 759.98 386.24 732.62 383.48 679.06 394.3 611.77 404.42 536.09 425.97 462.5 453.67 399.36 474.42 341.61 492.63 295.88 500.73 261.78 490.54 231.01 462.34 206.64 415.96 187.86 353.24 169.08 288.25 157.68 230.64 155.9 176.6 157.47 138.83 173.89 118.7 207.03 107.16 245.56 109.58 299.23 121.32 361.15 136.35 414.67 154.97 460.62 173.75 487.98 192.53 486.45 209.69 462.05 227.2 423.36 248 370.24 274.89 318.6 311.04 277.31 355.78 237.49 413.46 213.05 481.27 204.73 552.64 198.91 625.24 205.79 687.96 224.57Q687.96 224.57 687.96 224.57" opacity="0.46"></path><path d="M654.11 348.45C715.82 376.62 716.33 451.5 678.56 548.99 619.33 636.89 559.64 712.81 531.48 726.03 503.31 675.12 512 574.15 534.31 477.12 535.16 379.48 511.82 309.04 450.11 280.88 351.99 252.71 262.71 272.15 212.91 332.87 175.06 392.98 174.34 471.12 202.51 522.03 230.68 508.81 282.39 455.73 357.16 404.74 443.87 344.17 555.99 320.28 654.11 348.45Q654.11 348.45 654.11 348.45" opacity="0.42"></path><path d="M620.08 493.54C691.42 531.1 650.28 660.26 612.73 692.02 575.17 611.92 555.42 460.53 484.08 422.97 349.1 385.42 261.9 475.92 299.46 556.02 337.01 524.26 485.1 455.99 620.08 493.54Q620.08 493.54 620.08 493.54" opacity="0.66"></path></g></svg>