<svg xmlns="http://www.w3.org/2000/svg" version="1.1" xmlns:xlink="http://www.w3.org/1999/xlink" xmlns:svgjs="http://svgjs.dev/svgjs" viewBox="0 0 800 800"><defs><linearGradient x1="50%" y1="0%" x2="50%" y2="100%" id="wwwhirl-grad"><stop stop-color="hsl(206, 75%, 49%)" stop-opacity="1" offset="45%"></stop><stop stop-color="hsl(331, 90%, 56%)" stop-opacity="1" offset="100%"></stop></linearGradient></defs><g stroke-width="2" stroke="url(#wwwhirl-grad)" fill="none" stroke-linecap="round"><path d="M-2975.000243620438 764.4131502342645C-2796.022965927754 350.9756387641629 -2719.3184183451745 -798.0584840228721 -2361.3638629598054 -653.0868890917976C-2003.4093075744363 -508.11529416072307 -2105.6820376845417 1146.0182744575952 -1747.7274822991726 1261.458618569377C-1389.7729269138033 1376.8989626811583 -1492.045657023909 -15.672098680565227 -1134.0911016385394 -257.2914235656894C-776.1365462531703 -498.91074845081357 -878.4092763632752 408.88757218901014 -520.4547209779066 433.0495046775227C-162.50016559253754 457.211437166035 -264.7728957026429 -365.06131291921304 93.18165968272615 -174.45051217650393C451.1362150680952 16.16028856620528 348.86348495798984 987.2398609616566 706.8180403433589 1086.5722500810966C1064.7725957287294 1185.9046392005366 962.4998656186235 56.046653309146336 1320.4544210039921 166.11767909014736C1678.4089763893617 276.1887048711484 1576.1362462792558 1517.6518074951914 1934.0908016646245 1463.9586241873858C2292.045357049994 1410.2654408795802 2189.772626939889 245.12336310020385 2547.7271823252586 -17.97323510804256C2905.681737710628 -281.06983331628885 2803.4090076005214 629.0296237510122 3161.363562985891 561.9131446162555C3519.3181183712595 494.79666548149885 3596.0226659538394 -11.836871301436304 3774.999943646523 -248.0868778557799 " transform="rotate(54, 400, 400)"></path><path d="M-2912.5002440539265 757.6648583105289C-2736.837360392588 351.88359705283654 -2661.5532673948715 -775.872116052957 -2310.2275000721943 -633.5851802872728C-1958.9017327495171 -491.2982445215886 -2059.2805234131392 1132.2032209741683 -1707.954756090462 1245.5057809357318C-1356.6289887677851 1358.8083408972952 -1457.007779431407 -7.974367476248403 -1105.6820121087296 -245.11926041905554C-754.3562447860522 -482.26415336186255 -854.7350354496739 408.72308726611254 -503.4092681269972 432.43757656039315C-152.08350080432047 456.152065854674 -252.46229146794212 -350.8934110808472 98.86347585473459 -163.81243998152166C450.1892431774113 23.26853111780406 349.81045251378964 976.3651484688949 701.1362198364673 1073.8580489009382C1052.4619871591449 1171.3509493329811 952.0831964955228 62.416259476616574 1303.4089638181995 170.4489329283398C1654.7347311408766 278.4816063800629 1554.355940477254 1496.9546515481052 1905.6817077999312 1444.2557864497035C2257.0074751226093 1391.5569213513018 2156.6286844589868 247.99154871598773 2507.954451781664 -10.23289026617988C2859.280219104342 -268.45732924834755 2758.9014284407194 624.7884341695587 3110.2271957633966 558.9148527965572C3461.5529630860747 493.04127142355514 3536.8370560837893 -4.210162826362762 3712.4999397451284 -236.08516925932958 " transform="rotate(53, 400, 400)"></path><path d="M-2850.000244487415 750.916810527418C-2677.6517548574225 352.79179948213516 -2603.7881164445685 -753.6855039424171 -2259.091137184583 -614.0832273421231C-1914.3941579245982 -474.48095074182913 -2012.8790091417368 1118.3884116313664 -1668.1820298817518 1229.5531874427118C-1323.4850506217665 1340.7179632540567 -1421.9699018389051 -0.27639213130669305 -1077.2729225789199 -232.94685313179667C-732.5759433189342 -465.61731413228665 -831.060794536073 408.55884648383994 -486.36381527608773 431.82589258388884C-141.66683601610293 455.092938683938 -240.15168723324132 -336.7252651018565 104.54529202674348 -153.1741236459144C449.2422712867283 30.377017810027837 350.7574200695899 965.4906801167585 695.4543993295752 1061.1440918614046C1040.1513785895609 1156.797503606051 941.6665273724225 68.78610978471181 1286.3635066324068 174.7804309071572C1631.0604858923925 280.7747520296026 1532.5756346752532 1476.257739741644 1877.272613935238 1424.5531928526461C2221.9695931952238 1372.8486459636483 2123.4847419780854 250.85997847239662 2468.181721238071 -2.4923012836923135C2812.878700498057 -255.84458103978136 2714.3938492809166 620.5474887287307 3059.0908285409023 555.9168051174834C3403.787807800888 491.28612150623644 3477.651446213741 3.416789789335894 3649.9999358437335 -224.0832165222542 " transform="rotate(52, 400, 400)"></path><path d="M-2787.5002449209032 744.1684575685263C-2618.4661493222566 353.69969673565265 -2546.0229654942655 -731.4991970076583 -2207.954774296972 -594.5815795727545C-1869.8865830996792 -457.66396213785083 -1966.4774948703343 1104.5732971127832 -1628.4093036730412 1213.6002887739105C-1290.341112475748 1322.6272804350374 -1386.9320242464034 7.421278037853881 -1048.8638330491099 -220.77475102031906C-710.7956418518165 -448.9707800784919 -807.3865536224716 408.3943005257861 -469.31836242517875 431.2139034316035C-131.25017122788586 454.0335063374207 -227.84108299854097 -322.55742429864694 110.22710819875192 -142.5361124860883C448.2952993960448 37.485199326470365 351.70438762539015 954.615906588841 689.772578822683 1048.42982964609C1027.8407700199764 1142.243752703339 931.2498582493217 75.15565491702591 1269.3180494466142 179.11162371019338C1607.3862406439075 283.06759250336097 1510.7953288732515 1455.560522759402 1848.8635200705448 1404.8502940798078C2186.931711267839 1354.1400654002136 2090.340799497183 253.72810305302448 2428.4089906944773 5.247982523014116C2766.4771818917707 -243.2321380069963 2669.8862701211146 616.3062381121213 3007.954461318407 552.9184522626292C3346.0226525157004 489.5306664131365 3418.465836343692 11.0434372292533 3587.4999319423387 -212.08156896096006 " transform="rotate(51, 400, 400)"></path><path d="M-2725.0002453543916 737.4197383986968C-2559.280543787091 354.6072277782324 -2488.257814543962 -709.3132562838371 -2156.818411409361 -575.0802980143236C-1825.37900827476 -440.84733974481014 -1920.075980598932 1090.7578163832625 -1588.6365774643307 1197.6470238941715C-1257.1971743297297 1304.5362314050803 -1351.8941466539013 15.118581996076841 -1020.4547435193001 -208.6030151197789C-689.0153403846989 -432.3246122356346 -783.7123127088703 408.22938835679474 -452.27290957426976 430.60154806838034C-120.83350643966878 452.97370777996593 -215.53047876384016 -308.3899497063749 115.90892437076081 -131.8984675371998C447.3483275053618 44.59301463197528 352.65135518118996 943.7407668499859 684.0907583157914 1035.7152012198378C1015.5301614503924 1127.68963558969 920.8331891262205 81.5248338384024 1252.2725922608215 183.44245030229206C1583.7119953954234 285.36006676618194 1489.0150230712507 1434.8629395662217 1820.4544262058516 1385.1470290960317C2151.8938293404526 1335.4311186258412 2057.1968570162817 256.59586142271473 2388.6362601508827 12.987900118783045C2720.0756632854846 -230.6200611851488 2625.378690961312 612.0646212845743 2956.818094095913 549.9197331968367C3288.2574972305138 487.77484510909903 3359.280226473643 18.669718458233206 3524.999928040943 -200.08028761060348 " transform="rotate(50, 400, 400)"></path><path d="M-2662.50024578788 730.6713244046487C-2500.0949382519257 355.51506399659365 -2430.492663593659 -687.1270103842345 -2105.68204852175 -555.5787112801113C-1780.871433449841 -424.03041217598815 -1873.6744663275294 1076.942640829523 -1548.8638512556204 1181.6940641902138C-1224.0532361837113 1286.4454875509043 -1316.8562690613996 22.81619113008105 -992.0456539894903 -196.43097404345758C-667.2350389175808 -415.6781392169962 -760.0380717952692 408.06478136358476 -435.2274567233603 429.98949788093853C-110.41684165145125 451.9142143982924 -203.21987452913982 -294.22216993832166 121.59074054276925 -121.26051741253002C446.40135561467787 51.70113511326156 353.5983227369902 932.8659322869119 678.4089378088993 1023.0008779693669C1003.2195528808084 1113.1358236518217 910.4165200031202 87.89431793556003 1235.2271350750293 187.77358207017198C1560.0377501469384 287.65284620478405 1467.2347172692498 1414.165661548823 1792.0453323411584 1365.4440692880366C2116.855947413068 1316.7224770272503 2024.0529145353794 259.46392496818623 2348.86352960729 20.72812289033311C2673.6741446791984 -218.00767918752 2580.87111180151 607.8233096328088 2905.6817268734185 546.9213193068258C3230.492341945329 486.01932898084283 3300.0946166035937 26.29630486299436 3462.499924139548 -188.07870108446565 " transform="rotate(49, 400, 400)"></path><path d="M-2600.0002462213683 723.9229104106005C-2440.9093327167598 356.4229002149548 -2372.727512643356 -664.9407644846319 -2054.545685634139 -536.0771245458991C-1736.3638586249222 -407.21348460716615 -1827.272952056127 1063.1274652757834 -1509.0911250469098 1165.741104486256C-1190.9092980376927 1268.3547436967285 -1281.8183914688977 30.513800264085376 -963.6365644596806 -184.25893296713622C-645.4547374504634 -399.0316661983577 -736.363830881668 407.90017437037454 -418.1820038724509 429.3774476934966C-100.00017686323463 450.8547210166188 -190.909270294439 -280.0543901702684 127.27255671477769 -110.62256728786025C445.4543837239944 58.80925559454795 354.54529029279 921.991097723838 672.7271173020072 1010.2865547188958C990.9089443112243 1098.5820117139538 899.9998508800195 94.26380203271776 1218.1816778892362 192.10471383805202C1536.3635048984534 289.94562564338617 1445.454411467248 1393.4683835314245 1763.6362384764652 1345.7411094800418C2081.8180654856824 1298.0138354286591 1990.908972054478 262.33198851365773 2309.090799063695 28.468345661883177C2627.2726260729123 -205.39529718989132 2536.363532641707 603.5819979810431 2854.545359650924 543.922905416815C3172.7271866601423 484.26381285258685 3240.9090067335446 33.9228912677554 3399.999920238153 -176.07711455832776 " transform="rotate(48, 400, 400)"></path><path d="M-2537.5002466548567 717.1744964165523C-2381.7237271815943 357.3307364333158 -2314.962361693053 -642.7545185850295 -2003.409322746528 -516.5755378116868C-1691.856283800003 -390.3965570383442 -1780.8714377847245 1049.312289722044 -1469.3183988381995 1149.7881447822983C-1157.7653598916743 1250.2639998425527 -1246.7805138763958 38.21140939808947 -935.2274749298708 -172.08689189081485C-623.6744359833453 -382.38519317971924 -712.6895899680667 407.73556737716444 -401.1365510215419 428.7653975060548C-89.5835120750171 449.79522763494526 -178.5986660597382 -265.88661040221507 132.9543728867866 -99.98461716319048C444.5074118333114 65.91737607583423 355.49225784859027 911.116263160764 667.0452967951155 997.5722314684249C978.5983357416403 1084.0281997760858 889.5831817569192 100.6332861298755 1201.136220703444 196.43584560593195C1512.6892596499692 292.2384050819883 1423.6741056652468 1372.7711055140257 1735.227144611772 1326.038149672047C2046.7801835582977 1279.3051938300682 1957.7650295735766 265.20005205912923 2269.3180685201014 36.20856843343324C2580.871107466627 -192.78291519226252 2491.855953481904 599.3406863292773 2803.40899242843 540.9244915268039C3114.9620313749556 482.50829672433053 3181.7233968634955 41.54947767251656 3337.4999163367584 -164.07552803218994 " transform="rotate(47, 400, 400)"></path><path d="M-2475.000247088345 710.4260824225044C-2322.5381216464284 358.23857265167703 -2257.19721074275 -620.5682726854269 -1952.272959858917 -497.0739510774746C-1647.3487089750838 -373.57962946952216 -1734.469923513322 1035.4971141683047 -1429.545672629489 1133.8351850783408C-1124.6214217456559 1232.1732559883772 -1211.7426362838942 45.909018532093796 -906.8183854000608 -159.91485081449343C-601.8941345162275 -365.7387201610808 -689.0153490544653 407.57096038395446 -384.09109817063245 428.1533473186131C-79.16684728680002 448.73573425327186 -166.28806182503786 -251.7188306341618 138.63618905879503 -89.3466670385207C443.5604399426279 73.0254965571205 356.4392254043901 900.2414285976902 661.3634762882234 984.8579082179542C966.2877271720563 1069.4743878382178 879.1665126338185 107.00277022703335 1184.0907635176513 200.76697737381187C1489.0150144014842 294.5311845205905 1401.8937998632455 1352.0738274966272 1706.8180507470788 1306.3351898640524C2011.742301630913 1260.5965522314773 1924.6210870926743 268.0681156046006 2229.5453379765077 43.948791204983536C2534.469588860341 -180.17053319463378 2447.3483743221022 595.0993746775116 2752.2726252059356 537.926077636793C3057.196876089769 480.75278059607433 3122.5377869934464 49.176064077277715 3274.9999124353635 -152.07394150605205 " transform="rotate(46, 400, 400)"></path><path d="M-2412.5002475218334 703.6777294636124C-2263.352516111263 359.1464699051945 -2199.432059792447 -598.3819657506682 -1901.1365969713058 -477.57230330810603C-1602.841134150165 -356.762640865544 -1688.0684092419197 1021.6819996497213 -1389.7729464207787 1117.8822864095396C-1091.4774835996375 1214.0825731693574 -1176.704758691392 53.60668870125437 -878.4092958702511 -147.74274870301588C-580.1138330491099 -349.092186107286 -665.3411081408642 407.4064144259005 -367.04564531972346 427.5413581663274C-68.75018249858294 447.6763019067546 -153.97745759033705 -237.55098983095226 144.31800523080346 -78.70865587869463C442.61346805194444 80.13367807356292 357.3861929601899 889.3666550697726 655.6816557813313 972.1436460026393C953.9771186024727 1054.920636935506 868.7498435107182 113.37231535934723 1167.0453063318587 205.09817017684804C1465.340769153 296.82402499434886 1380.113494061245 1331.3766105143848 1678.4089568823856 1286.6322910912136C1976.7044197035266 1241.8879716680424 1891.477144611773 270.93624018522837 2189.772607432914 51.68907501168985C2488.068070254055 -167.55809016184872 2402.8407951622994 590.8581240609021 2701.1362579834404 534.9277247819383C2999.4317208045823 478.9973255029744 3063.3521771233973 56.80271151719501 3212.4999085339678 -140.07229394475792 " transform="rotate(45, 400, 400)"></path><path d="M-2350.000247955322 696.929254434408C-2204.166910576097 360.0542450883993 -2141.666908842144 -576.1957808862219 -1850.000234083695 -458.0707776090501C-1558.333559325246 -339.9457743318782 -1641.6668949705172 1007.8667630608256 -1350.0002202120681 1101.9292656704256C-1058.333545453619 1195.9917682800256 -1141.6668810988904 61.30423680010233 -850.0002063404413 -135.57076866185076C-558.333531581992 -332.4457741238038 -641.6668672272631 407.24174639753414 -350.000192468814 426.92924694372937C-58.33351771036541 446.6167474899247 -141.6668533556367 -223.38327109805525 149.99982140281236 -68.0707667891811C441.66649616126097 87.24173751969306 358.33316051599013 878.4917594715421 649.9998352744396 959.429261717012C941.6665100328887 1040.3667639624819 858.3331743876174 119.74173842134871 1149.999849146066 209.42924090957172C1441.666523904515 299.11674339779483 1358.3331882592438 1310.6792714618298 1649.9998630176929 1266.9292702480625C1941.666537776142 1223.1792690342952 1858.3332021308706 273.8042426955436 2149.99987688932 59.42923674808367C2441.6665516477688 -154.9457691993763 2358.3332160024975 586.6167513739802 2649.999890760947 531.929249856771C2941.6665655193956 477.2417483395619 3004.166567253348 64.42923688679991 3149.999904632573 -128.07076845377634 " transform="rotate(44, 400, 400)"></path><path d="M-2287.5002407594156 690.1811456161411C-2144.981297411537 360.96238648254166 -2083.901750262446 -554.0092298108382 -1798.8638635666894 -438.5688856990565C-1513.8259768709322 -323.128541587275 -1595.2653730697202 994.0518926828674 -1310.227486373963 1085.976611142249C-1025.1895996782062 1177.9013296016308 -1106.628995876994 69.00215110988779 -821.5911091812368 -123.39842240974815C-536.5532224854799 -315.7989959293841 -617.9926186842672 407.0774445801053 -332.9547319885103 426.3175019320688C-47.916845292753806 445.55755928403244 -129.35624149154137 -209.21518615422073 155.68164520421533 -57.43251148873014C440.719531899972 94.35016317676059 359.28013570118446 867.6172300842495 644.3180223969421 946.7152436423221C929.3559090926992 1025.813257200395 847.9165128939117 126.1115276942877 1132.9543995896684 213.7606778532329C1417.9922862854255 301.4098280121782 1336.5528900866366 1289.9822986202125 1621.5907767823942 1247.226615615849C1906.6286634781509 1204.4709326114853 1825.1892672793638 276.67261141679637 2110.227153975121 67.1697646954151C2395.265040670878 -142.33308202596623 2313.82564447209 582.3757448979957 2598.863531167847 528.9311411425413C2883.9014178636044 475.48653738708697 2944.9809650126936 72.0561284673422 3087.4999083605726 -116.06887675185726 " transform="rotate(43, 400, 400)"></path><path d="M-2225.000241192904 683.4324264463114C-2085.795691876371 361.86991752512154 -2026.136599312143 -531.8232890870169 -1747.7275006790783 -419.0676041406256C-1469.3184020460133 -306.3119191942343 -1548.8638587983176 980.2364119533465 -1270.4547601652525 1070.0233462625101C-992.0456615321878 1159.8102805716735 -1071.591118284492 76.69945506811081 -793.182019651427 -111.2266865092081C-514.7729210183618 -299.1528280865269 -594.3183777706658 406.91253241111383 -315.9092791376013 425.70514656884575C-37.500180504536274 444.49776072657767 -117.04563725684056 -195.0477115619487 161.36346137622422 -46.794866539841564C439.77256000928855 101.4579784822655 360.2271032569847 856.7420903453942 638.6362018900495 934.00061521607C917.0453005231152 1011.2591400867457 837.4998437708105 132.4807066156642 1115.9089424038752 218.09150444533168C1394.3180410369405 303.70230227499906 1314.7725842846353 1269.2847154270326 1593.181682917701 1227.5233506320728C1871.5907815507662 1185.761985837113 1792.0453247984615 279.5403697864866 2070.454423431527 74.90968229118391C2348.863522064592 -129.72100520411874 2269.318065312287 578.1341280704488 2547.727163945352 525.9324220767492C2826.1362625784177 473.7307160830495 2885.7953551426453 79.68240969632211 3024.9999044591777 -104.06759540150063 " transform="rotate(42, 400, 400)"></path><path d="M-2162.5002416263924 676.6843176280447C-2026.6100863412057 362.7780589192638 -1968.37144836184 -509.63673801163304 -1696.5911377914672 -399.565712230632C-1424.8108272210943 -289.494686449631 -1502.4623445269153 966.4215415753886 -1230.6820339565422 1054.0706917343336C-958.9017233861694 1141.7198418932792 -1036.5532406919901 84.39736937789627 -764.7729301216173 -99.05434025710542C-492.99261955124393 -282.50604989210717 -570.6441368570647 406.748230593685 -298.8638262866921 425.0934015571852C-27.083515716319198 443.4385725206853 -104.73503302214021 -180.87962661811417 167.04527754823266 -36.1566112393906C438.82558811860554 108.56640413933303 361.1740708127845 845.8675609581016 632.9543813831579 921.2865971413803C904.7346919535307 996.7056333246587 827.0831746477102 138.85049588860318 1098.863485218083 222.42294138899285C1370.6437957884555 305.9953868893824 1292.992278482635 1248.587742585415 1564.7725890530078 1207.820695999859C1836.5528996233807 1167.053649414303 1758.90138231756 282.4087385077394 2030.6816928879334 82.65021023851534C2302.4620034583068 -117.10831803070874 2224.8104861524853 573.8931215944642 2496.5907967228577 522.9343133625194C2768.371107293231 471.97550513057445 2826.6097452725962 87.30930127686446 2962.499900557783 -92.06570369958155 " transform="rotate(41, 400, 400)"></path><path d="M-2100.0002420598803 669.9357205285278C-1967.42448080604 363.6857120321563 -1910.606297411537 -487.4506752174993 -1645.454774903856 -380.06430860188857C-1380.3032523961751 -272.6779419862778 -1456.0608302555127 952.6061829161804 -1190.909307747832 1038.1175489249076C-925.757785240151 1123.6289149336344 -1001.5153630994882 92.09479540643173 -736.3638405918075 -86.88248228625287C-471.2123180841263 -265.8597599789374 -546.9698959434636 406.58344049500613 -281.8183734357831 424.48116826427463C-16.66685092810212 442.378896033543 -92.42442878743941 -166.7120299555296 172.7270937202411 -25.518844220189578C437.87861622792207 115.67434151515056 362.1210383685848 834.9925432895589 627.2725608762657 908.5720907854404C892.4240833839467 982.151638281322 816.6665055246094 145.21979688029205 1081.8180280322904 226.7538900514039C1346.9695505399714 308.2879832225158 1271.2119726806336 1227.8902814625476 1536.3634951883146 1188.1175530863954C1801.5150176959955 1148.3448247102433 1725.7574398366578 285.2766189477421 1990.9089623443388 90.39024990459666C2256.0604848520206 -104.49611913854875 2180.3029069926824 569.6516268372299 2445.4544295003634 519.9357163670397C2710.6059520080444 470.2198058968495 2767.424135402547 94.93570457615687 2899.999896656387 -80.06430027891247 " transform="rotate(40, 400, 400)"></path><path d="M-2037.500242493369 663.1872454993234C-1908.2388752708744 364.5934872153613 -1852.8411464612338 -465.264490353053 -1594.318412016245 -360.5627829028325C-1335.7956775712562 -255.86107545261206 -1409.6593159841102 938.7909463272847 -1151.1365815391214 1022.1645281857939C-892.6138470941326 1105.5381100443026 -966.4774855069866 99.7923435052798 -707.9547510619975 -74.7105022450877C-449.43201661700846 -249.2133479954552 -523.2956550298622 406.4187724666398 -264.77292058487365 423.8690570416767C-6.250186139885045 441.31934161671336 -80.11382455273883 -152.54431122263256 178.40890989225 -14.880955130675943C436.9316443372386 122.7824009612807 363.06800592438503 824.117647691329 621.5907403693736 895.8577064998133C880.1134748143627 967.597765308298 806.2498364015091 151.58921994229365 1064.7725708464973 231.0849607841277C1323.2953052914863 310.58070162596186 1249.4316668786323 1207.192942409993 1507.9544013236214 1168.4145322432446C1766.4771357686104 1129.6361220764963 1692.6134973557564 288.1446214580575 1951.1362318007455 98.13041164099059C2209.6589662457345 -91.8837981760762 2135.7953278328796 565.4102541503079 2394.318062277869 516.9372414418725C2652.8407967228577 468.46422873343727 2708.238525532498 102.56222994576177 2837.4998927549923 -68.06277478793083 " transform="rotate(39, 400, 400)"></path><path d="M-1975.0002429268573 656.4388925404315C-1849.053269735709 365.50138446887854 -1795.0759955109309 -443.07818341829426 -1543.182049128634 -341.06113513346406C-1291.2881027463372 -239.0440868486338 -1363.2578017127078 924.9758318087015 -1111.3638553304108 1006.2116295169924C-859.4699089481142 1087.447427225283 -931.4396079144847 107.49001367444032 -679.5456615321878 -62.53840013361008C-427.65171514989083 -232.56681394166048 -499.6214141162609 406.25422650858593 -247.72746773396443 423.257067889391C4.166478648332031 440.259909270196 -67.80322031803803 -138.37647041942304 184.09072606425843 -4.2429439708499785C435.9846724465551 129.89058247772317 364.01497348018484 813.2428741634112 615.908919862482 883.1434442844989C867.8028662447787 953.044014405586 795.8331672784084 157.95876507460764 1047.727113660705 235.41615358716388C1299.6210600430022 312.8735420997201 1227.6513610766306 1186.4957254277506 1479.5453074589282 1148.711633470406C1731.4392538412253 1110.9275415130612 1659.4695548748546 291.0127460386851 1911.3635012571517 105.8706954476969C2163.2574476394484 -79.2713551432912 2091.2877486730777 561.1690035336985 2343.181695055375 513.9388885870178C2595.075641437672 466.7087736403373 2649.052915662449 110.18887738567912 2774.9998888535974 -56.0611272266367 " transform="rotate(38, 400, 400)"></path><path d="M-1912.5002433603456 649.6907226870084C-1789.8676642005432 366.40946482786467 -1737.3108445606276 -420.89169337806675 -1492.045686241023 -321.55930425862675C-1246.780527921418 -222.22691513918681 -1316.8562874413053 911.1609003955871 -1071.5911291217005 990.2589139536597C-826.3259708020958 1069.3569275117322 -896.4017303219828 115.18786694906953 -651.136572002378 -50.36611491666372C-405.87141368277275 -215.920096782397 -475.94717320265977 406.08986365600083 -230.68201488305522 422.6452618425742C14.583143436549335 439.20066002914746 -55.49261608333745 -124.20844651074475 189.77254223626733 6.395250294444793C435.03770055587165 136.99894709963445 364.9619410359851 802.3682837409624 610.2270993555899 870.4293651746527C855.4922576751951 938.4904466083431 785.4164981553081 164.32849331239044 1030.6816564749124 239.7475294956689C1275.9468147945172 315.16656567894734 1205.8710552746302 1165.7986915509769 1451.136213594235 1129.008917803036C1696.4013719138393 1092.2191440550953 1626.3256123939527 293.8810537247815 1871.5907707135575 113.61116235987208C2116.855929033163 -66.65872900503746 2046.7801695132748 556.9279360225577 2292.0453278328805 510.94071883763195C2537.3104861524853 464.9535016527061 2589.8673057923997 117.81570793106522 2712.4998849522026 -44.05929655987387 " transform="rotate(37, 400, 400)"></path><path d="M-1850.0002437938338 642.9422476578038C-1730.6820586653776 367.31724001106966 -1679.5456936103246 -398.7055085136205 -1440.9093233534118 -302.0577785595708C-1202.2729530964994 -205.4100486055211 -1270.4547731699029 897.3456638066912 -1031.81840291299 974.3058932145457C-793.1820326560774 1051.2661226224 -861.3638527294809 122.88541504791749 -622.727482472568 -38.194134875498605C-384.0911122156549 -199.27368479891476 -452.2729322890584 405.92519562763437 -213.63656203214578 422.03315061997614C24.99980822476664 438.1411056123177 -43.18201184863665 -110.04072777784774 195.45435840827577 17.03313938395837C434.0907286651882 144.10700654576448 365.9089085917849 791.4933881427319 604.5452788486978 857.7149808890254C843.1816491056106 923.9365736353191 774.9998290322073 170.69791637439187 1013.6361992891198 244.07860022839247C1252.272569546033 317.4592840823931 1184.0907494726289 1145.1013524984219 1422.7271197295418 1109.305896959885C1661.3634899864542 1073.5104414213479 1593.1816699130509 296.74905623509676 1831.8180401699642 121.35132409626596C2070.454410426877 -54.04640804256496 2002.2725903534724 552.6865633356358 2240.9089606103853 507.94224391246473C2479.5453308672986 463.19792448929365 2530.6816959223506 125.44223330067013 2649.9998810508077 -32.05777106889229 " transform="rotate(36, 400, 400)"></path><path d="M-1787.5002442273221 636.1935895231308C-1671.4964531302119 368.22483208880567 -1621.7805426600216 -376.519506754643 -1389.772960465801 -282.5564359659835C-1157.7653782715802 -188.59336517732413 -1224.0532588985002 883.5302441123267 -992.0456767042796 958.3526893699632C-760.038094510059 1033.1751346275992 -826.3259751369792 130.58278004129676 -594.3183929427582 -26.02233793980224C-362.3108107485373 -182.6274559209013 -428.5986913754573 405.7603444937994 -196.5911091812368 421.4208562919092C35.41647301298394 437.08136809001905 -30.8714076139363 -95.87319215041947 201.1361745802842 27.670845368003086C433.14375677450516 151.2148828864257 366.8558761475847 780.618309439033 598.8634583418057 845.0004134979295C830.8710405360266 909.3825175568259 764.5831599091066 177.06715633092455 996.5907421033271 248.4094878556474C1228.598324297548 319.7518193803703 1162.3104436706276 1124.4038303403984 1394.3180258648486 1089.602693011265C1626.325608059069 1054.801555682132 1560.037727432149 299.61687563994326 1792.04530962637 129.09130272719102C2024.052891820591 -41.43427018556119 1957.7650111936705 548.445007543245 2189.772593387891 504.94358588182877C2421.780175582112 461.44216422041234 2471.4960860523015 133.06857556480617 2587.499877149412 -20.056428683379465 " transform="rotate(35, 400, 400)"></path><path d="M-1725.0002446608105 629.4452975993951C-1612.3108475950462 369.1327903774793 -1564.0153917097186 -354.3331387847279 -1338.6365975781898 -263.0547271614588C-1113.257803446661 -171.77631553818964 -1177.6517446270977 869.7151906288998 -952.2729504955691 942.3998517363179C-726.8941563640406 1015.0845128437359 -791.2880975444773 138.28051124561347 -565.9093034129485 -13.850174793168435C-340.5305092814194 -165.98086083195034 -404.92445046185594 405.5958595709018 -179.54565633032757 420.8089281747799C45.83313780120102 436.02199677865804 -18.560803379235722 -81.70529031205368 206.81799075229287 38.30891756298536C432.1967848838217 158.32312543802448 367.80284370338495 769.7435969462715 593.181637834914 832.2862123177708C818.5604319664426 894.8288276892704 754.1664907860063 183.43676249839478 979.5452849175344 252.74074169383994C1204.924079049063 322.0447208892849 1140.5301378686263 1103.7066743933121 1365.9089320001553 1069.8998552735827C1591.287726131684 1036.0930361538533 1526.8937849512477 302.48506125572726 1752.2725790827762 136.83164756905364C1977.6513732143053 -28.821766117619944 1913.257432033868 544.2038179617919 2138.636226165397 501.9452940621302C2364.0150202969253 459.68677016246863 2412.3104761822524 140.69528403987982 2524.999873248017 -8.05472008692908 " transform="rotate(34, 400, 400)"></path><path d="M-1662.5002450942989 622.6969446405031C-1553.1252420598805 370.0406876309967 -1506.2502407594154 -332.14683184996915 -1287.5002346905787 -243.55307939209027C-1068.750228621742 -154.9593269342114 -1131.2502303556953 855.9000761103164 -912.5002242868587 926.4469530675165C-693.7502182180219 996.9938300247161 -756.2502199519754 145.97818141477399 -537.5002138831385 -1.6780726816908214C-318.7502078143016 -149.3343267781556 -381.2502095482548 405.4313136128478 -162.50020347941813 420.19693902249435C56.24980258941832 434.96256443214077 -6.250199144534918 -67.53744950884416 212.49980692430154 48.946928722811435C431.2498129931382 165.431306954467 368.74981125918475 758.8688234183538 587.4998173280219 819.5719501024562C806.2498233968586 880.2750767865584 743.7498216629056 189.80630763070877 962.4998277317422 257.071934496876C1181.249833800579 324.3375613630433 1118.749832066625 1083.0094574110697 1337.4998381354617 1050.196956500744C1556.2498442042993 1017.3844555904184 1493.7498424703454 305.353185836355 1712.4998485391825 144.57193137575996C1931.2498546080192 -16.20932308483495 1868.7498528740657 539.9625673451823 2087.499858942902 498.9469412072755C2306.249865011739 457.9313150693687 2353.1248663122037 148.32193147979717 2462.4998693466223 3.9469274743649976 " transform="rotate(33, 400, 400)"></path><path d="M-1600.0000013871622 615.9487137519238C-1493.9393923840898 370.94870695482666 -1448.4848456684874 -309.9604028448979 -1236.3636276623427 -224.05130955240926C-1024.242409656198 -138.14221625992064 -1084.8484719436678 842.0850836620459 -872.7272539375233 910.4941764690277C-660.6060359313786 978.9032692760093 -721.2120982188485 153.67597365424706 -509.0908802127037 10.494151500099349C-296.96966220655895 -132.68767065404836 -357.57572449402846 405.2668897251066 -145.45450648788415 419.5850719405213C66.66671151826063 433.9032541559361 6.060649230790659 -53.36948663532212 218.1818672369352 59.58506195294996C430.30308524307975 172.5396105412221 369.6970229556098 747.9941719607489 581.8182409617548 806.8578099574543C793.9394589678996 865.7214479541594 733.3333966804298 196.17597483333532 945.4546146865746 261.40324937022484C1157.5758326927194 326.63052390711425 1096.9697704052487 1062.31236249914 1309.0909884113935 1030.4941797982183C1521.2122064175383 998.6759970972964 1460.606144130069 308.2214324872954 1672.7273621362137 152.31233725277895C1884.848580142358 -3.5967579817373974 1824.2425178548883 535.7214387988855 2036.363735861033 495.94871042273337C2248.4849538671774 456.17598204658134 2293.9395005827796 155.94870099002708 2400.000109585852 15.948697105971632 " transform="rotate(32, 400, 400)"></path><path d="M-1537.5000018206506 609.2001776875633C-1434.7537868489242 371.8564211028753 -1390.7196947181842 -287.7742790156079 -1185.2272647747316 -204.54984488850954C-979.734834831279 -121.32541076141118 -1038.4469576722654 828.269786037994 -832.9545277288129 894.5410946947575C-627.4620977853602 960.812403351521 -686.1742206263466 161.3734607179387 -480.68179068289396 22.666070506108184C-275.1893607394409 -116.04131970572239 -333.90148358042734 405.102160661584 -128.4090536369747 418.972899682767C77.0833763064777 432.84363870395 18.371253465491463 -39.201828937581325 223.86368340894387 70.22289000730723C429.3561133523963 179.64760895219587 370.6439905114098 737.1192153273624 576.1364204548631 794.1433646366705C781.6288503983155 851.167513945979 722.9167275573291 202.5453368601805 928.4091575007819 265.7342590677922C1133.9015874442343 328.92318127540386 1075.1894646032479 1041.614962411429 1280.6818945467003 1010.7910979199107C1486.1743244901531 979.9672334283928 1427.4622016491667 311.08937396245426 1632.9546315926195 160.05243795401657C1838.4470615360724 9.015501945578848 1779.734938695086 531.4800050768073 1985.2273686385388 492.95017446241C2190.7197985819917 454.42034384801264 2234.7538907127305 163.57516532447568 2337.500105684457 27.95016156179696 " transform="rotate(31, 400, 400)"></path><path d="M-1475.000002254139 602.4516416232025C-1375.5681813137585 372.7641352509239 -1332.9545437678812 -265.58815518631786 -1134.0909018871207 -185.0483802246098C-935.22726000636 -104.5086052629017 -992.045443400863 814.4544884139419 -793.1818015201023 878.5880129204872C-594.3181596393416 942.7215374270324 -651.1363430338448 169.07094778163048 -452.272701153084 34.83798951211705C-253.40905927232325 -99.39496875739643 -310.227242666826 404.93743159806127 -111.36360078606572 418.36072742501267C87.50004109469478 431.78402325196396 30.681857700191813 -25.03417123984056 229.54549958095254 80.8607180616645C428.40914146171303 186.7556073631696 371.59095806721007 726.2442586939759 570.4545999479706 781.4289193158871C769.3182418287315 836.6135799377982 712.5000584342288 208.9146988870258 911.3637003149893 270.0652687653597C1110.2273421957498 331.2158386436936 1053.4091588012466 1020.9175623237177 1252.272800682007 991.0880160416034C1451.136442562768 961.2584697594893 1394.3182591682653 313.9573154376132 1593.1819010490262 167.79253865525413C1792.0455429297863 21.627761872895093 1735.227359535283 527.2385713547291 1934.091001416044 489.95163850208644C2132.9546432968045 452.6647056494438 2175.568280842682 171.20162965892433 2275.0001017830623 39.95162601762232 " transform="rotate(30, 400, 400)"></path><path d="M-1412.5000026876273 595.7035938400918C-1316.382575778593 373.67233768022254 -1275.1893928175782 -243.4015430757778 -1082.9545389995096 -165.54642727946003C-890.7196851814409 -87.69131148314221 -945.6439291294605 800.6396790711399 -753.4090753113919 862.635419427467C-561.1742214933232 924.6311597837941 -616.098465441343 176.76892312657225 -423.8636116232742 47.01039679937591C-231.6287578052054 -82.74812952782045 -286.55300175322486 404.77319081578867 -94.3181479351565 417.74904344850825C97.91670588291186 430.72489608122794 42.99246193489262 -10.866025260849796 235.22731575296098 91.49903439727177C427.46216957102934 193.86409405539337 372.5379256230101 715.3697903418395 564.7727794410789 768.7149622763535C757.0076332591475 822.0601342108678 702.083389311128 215.28454919512097 894.3182431291966 274.3967667441771C1086.5530969472652 333.50898429323314 1031.6288529992453 1000.2206505172562 1223.8637068173139 971.3854224445458C1416.098560635383 942.5501943718357 1361.1743166873634 316.8257451940222 1553.409170505432 175.53312763774176C1745.644024323501 34.240510081461366 1690.7197803754807 522.9976259139008 1882.9546341935497 486.953590823013C2075.189488011619 450.9095557321251 2116.3826709726327 178.82858227462287 2212.500097881667 51.95357875469767 " transform="rotate(29, 400, 400)"></path><path d="M-1350.0000031211157 588.9549967405749C-1257.1969702434274 374.5799907931148 -1217.4242418672752 -221.21548028164403 -1031.8181761118985 -146.04502365071653C-846.2121103565219 -70.87456701978898 -899.242414858058 786.8243204119317 -713.6363491026815 846.6822766180408C-528.0302833473048 906.5402328241496 -581.060587848841 184.4663491551077 -395.45452209346433 59.18225477022847C-209.84845633808754 -66.10183961465073 -262.8787608396235 404.6084007171098 -77.27269508424729 417.1368101555977C108.33337067112916 429.66521959408556 55.303066169593194 3.3015714017347477 240.90913192496964 102.13680141647279C426.5151976803461 200.97203143121084 373.4848931788101 704.4947726732968 559.090958934187 756.0004559204139C744.6970246895635 807.5061391675309 691.6667201880273 221.65385018680996 877.272785943404 278.72771540658823C1062.8788516987806 335.8015806263665 1009.848547197244 979.523189394389 1195.4546129526207 951.6822795310825C1381.0606787079978 923.8413696677758 1328.0303742064616 319.69362563402495 1513.6364399618383 183.2731673038232C1699.2425057172154 46.85270897362136 1646.2122012156783 518.7561311566664 1831.8182669710554 483.95499382753326C2017.4243327264317 449.15385649840016 2057.1970611025836 186.45498557391528 2150.000093980272 63.95498217536672 " transform="rotate(28, 400, 400)"></path><path d="M-1287.5000035546038 582.2065827465268C-1198.0113647082617 375.487827011476 -1159.659090916972 -199.02923438204152 -980.6818132242875 -126.54343691650426C-801.7045355316029 -54.057639450967 -852.8409005866556 773.0091448581921 -673.8636228939711 830.729316914083C-494.8863452012864 888.4494889699737 -546.0227102563392 192.16395828911192 -367.04543256365446 71.35429584654983C-188.06815487096992 -49.455366596012254 -239.20451992602239 404.4437937238996 -60.227242233338075 416.5247599681559C118.75003545934646 428.60572621241204 67.61367040429377 17.469351169788013 246.5909480969783 112.77475154114256C425.56822578966285 208.08015191249717 374.43186073461015 693.6199381102228 553.4091384272947 743.2861326699428C732.3864161199799 792.9523272296628 681.250051064927 228.0233342839677 860.2273287576113 283.0588471744682C1039.204606450296 338.0943600649687 988.0682413952431 958.8259113769902 1167.0455190879275 931.9793197230874C1346.0227967806122 905.1327280691846 1294.8864317255598 322.56168917949645 1473.8637094182445 191.01339007537325C1652.8409871109293 59.465090971250106 1601.704622055876 514.5148195049006 1780.6818997485607 480.9565799375223C1959.659177441245 447.39834037014396 1998.011451232535 194.08157197867638 2087.500090078877 75.95656870150458 " transform="rotate(27, 400, 400)"></path><path d="M-1224.9999963586977 575.458290822791C-1138.8257515437015 376.3957853001496 -1101.8939323372745 -176.8428664121265 -929.5454427072818 -107.04172811197951C-757.1969530772893 -37.24058981183252 -806.4393786858586 759.1940913747652 -634.0908890558661 814.7764792804379C-461.7423994258735 870.3588671861104 -510.9848250344428 199.86168949342868 -338.63633540445016 83.5264589931837C-166.2878457744573 -32.80877150706128 -215.53027138302673 404.279308801002 -43.1817817530341 415.91283185102645C129.1667078769583 427.546354901051 79.9242822683891 31.637253008153778 252.2727718983815 123.41282373612484C424.6212615283739 215.18839446409595 375.3788359198047 682.7452256174613 547.7273255497973 730.5719314897843C720.0758151797902 778.3986373621075 670.833389571221 234.39294045143794 843.1818792012132 287.39010101266064C1015.530368831206 340.38726157388334 966.2879432226364 938.128755429904 1138.6364328526288 912.2764819854051C1310.9849224826216 886.4242085409062 1261.7424968740524 325.42987479528034 1434.0909865040453 198.75373491723587C1606.4394761340382 72.07759503919135 1557.197050525468 510.2736299234474 1729.545540155461 477.9582881178237C1901.8940297854538 445.64294631220025 1938.8258489918803 201.70828045374998 2025.0000938068765 87.95827729795494 " transform="rotate(26, 400, 400)"></path><path d="M-1162.499996792186 568.709876828743C-1079.6401460085358 377.30362151851074 -1044.1287813869712 -154.65662051252397 -878.4090798196708 -87.54014137776726C-712.6893782523703 -20.42366224301054 -760.0378644144562 745.3789158210258 -594.3181628471556 798.8235195764803C-428.5984612798551 852.2681233319347 -475.9469474419409 207.55929862743295 -310.2272458746403 95.69850006950509C-144.50754430733969 -16.162298488422792 -191.85603046942538 404.1147018077919 -26.136328902125115 415.3007816635847C139.58337266517538 426.4868615193775 92.23488650308968 45.80503277620707 257.9545880703902 134.05077386079464C423.67428963769066 222.29651494538217 376.32580347560474 671.8703910543875 542.0455050429055 717.8576082393134C707.765206610206 763.8448254242395 660.41672044812 240.76242454859573 826.1364220154205 291.72123278054056C991.8561235827215 342.6800410124855 944.5076374206351 917.4314774125054 1110.2273389879356 892.5735221774104C1275.947040555236 867.7155669423151 1228.5985543931506 328.2979383407519 1394.318255960451 206.49395768878605C1560.037957527752 84.68997703682012 1512.6894713656657 506.0323182716817 1678.4091729329662 474.95987422781286C1844.1288745002666 443.88743018394405 1879.6402391218312 209.33486685851113 1962.5000899054812 99.95986382409279 " transform="rotate(25, 400, 400)"></path><path d="M-1099.9999972256744 561.9614933522729C-1020.4545404733701 378.21148825445005 -986.3636304366682 -132.47034409534334 -827.2727169320598 -68.03852412597688C-668.1818034274513 -3.6067041566104194 -713.6363501430537 731.5637707848643 -554.5454366384452 782.8705903901007C-395.4545231338366 834.1774099953369 -440.9090698494391 215.25693827901534 -281.8181563448305 107.87057166340455C-122.72724284022206 0.48420504779380735 -168.18178955582425 403.9501253321599 -9.090876051215673 414.68876199372096C150.00003745339245 425.42739865528205 104.54549073779026 59.97284306183846 263.6364042423986 144.68875450304253C422.72731774700696 229.40466594424663 377.2727710314048 660.9955870088917 536.3636845360134 705.1433155064205C695.4545980406219 749.2910440039495 650.0000513250195 247.13193916333154 809.0909648296279 296.05239506599867C968.1818783342364 344.97285096866574 922.7273316186338 896.7342299126849 1081.8182451232424 872.8705928869936C1240.909158627851 849.0069558613022 1195.4546119122488 331.1660324038015 1354.5455254168573 214.23421097791424C1513.636438921466 97.302389552027 1468.1818922058633 501.7910371374942 1627.2728057104719 471.96149085538013C1786.363719215081 442.1319445732661 1820.454629251782 216.96148378085036 1900.0000860040864 111.96148086780877 " transform="rotate(24, 400, 400)"></path><path d="M-1037.4999976591628 555.2130793582248C-961.2689349382044 379.1193244728112 -928.5984794863652 -110.2840981957408 -776.1363540444487 -48.536937391764624C-623.6742286025321 13.210223412211576 -667.2348358716513 717.748595231125 -514.7727104297347 766.9176306861431C-362.3105849878182 816.0866661411612 -405.8711922569373 222.95454741301955 -253.40906681502065 120.04261273972594C-100.94694137310398 17.13067806643228 -144.5075486422229 403.7855183389499 7.954576799693541 414.0767118062792C160.41670224160976 424.3679052736086 116.85609497249084 74.14062282989175 269.3182204144073 155.3267046277123C421.7803458563237 236.5127864255329 378.2197385872048 650.1207524458177 530.6818640291215 692.4289922559498C683.1439894710379 734.7372320660816 639.583382201919 253.50142326048933 792.0455076438354 300.3835268338786C944.5076330857519 347.2656304072679 900.9470258166325 876.0369518952863 1053.4091512585492 853.1676330789988C1205.8712767004663 830.2983142627113 1162.310669431347 334.03409594927297 1314.7727948732636 221.97443374946442C1467.2349203151803 109.91477154965577 1423.674313046061 497.54972548572846 1576.1364384879776 468.96307696536917C1728.5985639298942 440.3764284450098 1761.269019381733 224.5880701856115 1837.5000821026915 123.96306739394663 " transform="rotate(23, 400, 400)"></path><path d="M-974.9999980926511 548.4646653641767C-902.0833294030389 380.0271606911723 -870.8333285360621 -88.09785229613829 -724.9999911568377 -29.03535065755237C-579.1666537776132 30.027150981033543 -620.8333216002488 703.9334196773855 -474.9999842210243 750.9646709821855C-329.1666468417998 797.9959222869854 -370.8333146644354 230.65215654702382 -224.9999772852109 132.21465381604727C-79.16663990598624 33.777151085070756 -120.83330772862178 403.6209113457397 25.000029650602755 413.46466161883734C170.83336702982706 423.308411891935 129.1666992071914 88.30840259794503 275.00003658641594 165.9646547523821C420.83337396564025 243.6209069068192 379.16670614300483 639.2459178827437 525.0000435222296 679.7146690054786C670.8333809014541 720.1834201282136 629.1667130788185 259.870907357647 775.0000504580428 304.7146586017585C920.8333878372673 349.5584098458701 879.1667200146317 855.3396738778875 1025.000057393856 833.4646732710039C1170.8333947730807 811.5896726641203 1129.166726950445 336.90215949474447 1275.0000643296698 229.7146565210145C1420.8334017088941 122.52715354728451 1379.1667338862585 493.30841383396273 1525.0000712654833 465.96466307535815C1670.8334086447076 438.6209123167536 1702.0834095116838 232.2146565903726 1775.0000782012962 135.9646539200845 " transform="rotate(22, 400, 400)"></path><path d="M-912.4999985261394 541.7162208525502C-842.8977238678732 380.9349663919553 -813.068177585759 -65.9116369141139 -673.8636282692266 -9.533794440918243C-534.6590789526941 46.8440480322774 -574.4318073288463 690.1182136060678 -435.22725801231377 735.0116807606496C-296.0227086957814 779.9051479152313 -335.7954370719335 238.34973516344994 -196.590887755401 144.38666437479048C-57.38633843886839 50.42359358613109 -97.15906681502042 403.45627383495145 42.045482501511856 412.8525809138174C181.25003181804436 422.24888799268336 141.47730344189222 102.47615184842019 280.6818527584246 176.60257435947375C419.8864020749568 250.72899687052728 380.11367369880486 628.3710528020916 519.3182230153373 667.0003152374295C658.5227723318701 705.6295776727674 618.7500439557177 266.2403609372266 757.9545932722501 309.04575985206037C897.1591425887827 351.85115876689406 857.3864142126301 834.6423653429108 996.590963529163 813.761682945431C1135.7955128456956 792.881000547951 1096.0227844695432 339.77019252263784 1235.227333786076 237.4548487749865C1374.4318831026085 135.13950502733516 1334.659154726456 489.06707166461894 1473.8637040429885 462.9662186677691C1613.0682533595213 436.8653656709193 1642.8977996416352 239.8412124775556 1712.5000742999014 147.96620992864422 " transform="rotate(21, 400, 400)"></path><path d="M-849.9999989596278 534.9678984112365C-783.7121183327075 381.8428941630508 -755.303026635456 -43.725299461776984 -622.7272653816156 9.967883846028386C-490.1515041277751 63.661067153833756 -528.0302930574438 676.3031296050628 -395.45453180360346 719.0588126094265C-262.878770549763 761.8144956137899 -300.7575594794316 246.04743585018852 -168.18179822559125 156.55879700384622C-35.606036971750655 67.07015815750395 -73.4848259014193 403.2917583944757 59.090935352420956 412.24062227910997C191.66669660626144 421.18948616374416 153.7879076765928 116.64402316920786 286.36366893043305 187.24061603687787C418.93943018427353 257.83720890454794 381.0606412546049 617.4963097917521 513.6364025084454 654.2860835396929C646.2121637622859 691.0758572876337 608.3333748326172 272.6099365871187 740.9091360864577 313.3769831726746C873.4848973402982 354.14402975823054 835.6061084106293 813.9451788782465 968.1818696644698 794.0588146901704C1100.7576309183103 774.1724505020943 1062.8788419886414 342.6383476208437 1195.4546032424819 245.19516309927099C1328.0303644963228 147.75197857769828 1290.1515755666537 484.8258515655876 1422.7273368204942 459.9678963304925C1555.3030980743347 435.1099410953974 1583.712189771586 247.4678904350511 1650.000070398506 159.96788800751642 " transform="rotate(20, 400, 400)"></path><path d="M-787.4999993931161 528.2194844171884C-724.526512797542 382.7507303814119 -697.5378756851529 -21.539053562174473 -571.5909024940045 29.46947058024064C-445.6439293028561 80.47799472265575 -481.6287787860414 662.4879540513234 -355.681805594893 703.1058529054689C-229.73483240374458 743.7237517596142 -265.71968188692983 253.74504498419282 -139.77270869578138 168.73083808016762C-13.825735504632917 83.71663117614241 -49.81058498781795 403.1271514012656 76.13638820333028 411.62857209166816C202.08336139447852 420.12999278207064 166.09851191129349 130.81180293726112 292.0454851024417 197.87856616154767C417.99245829359006 264.94532938583427 382.0076088104049 606.6214752286783 507.9545820015535 641.5717602892221C633.9015551927018 676.5220453497657 597.9167057095167 278.9794206842765 723.863678900665 317.7081149405546C849.8106520918136 356.4368091968327 813.8258026086278 793.247900860848 939.7727757997766 774.3558548821757C1065.7197489909252 755.4638089035033 1029.7348995077398 345.5064111663152 1155.6818726988884 252.9353858708211C1281.6288458900367 160.36436057532705 1245.6439964068513 480.5845399138219 1371.590969598 456.96948244048156C1497.5379427891485 433.3544249671413 1524.526579901537 255.09447683981222 1587.5000664971112 171.9694745336543 " transform="rotate(19, 400, 400)"></path><path d="M-724.9999998266044 521.4711314582964C-665.3409072623763 383.65862763492936 -639.7727247348498 0.647253372584288 -520.4545396063934 48.97111834960914C-401.1363544779371 97.29498332663398 -435.22726451463893 648.6728395327401 -315.9090793861825 687.1529542366674C-196.59089425772618 725.6330689405945 -230.68180429442793 261.4427151533533 -111.3636191659715 180.90294019164523C7.954565962485049 100.36316522993715 -26.13634407421671 402.9626054432117 93.18184105423961 411.0165829393826C212.50002618269582 419.0705604355534 178.40911614599418 144.97964374047066 297.7273012744504 208.51657732137372C417.0454864029066 272.0535109022768 382.95457636620495 595.7467017007605 502.2727614946614 628.8574980739072C621.5909466231178 661.9682944470541 587.5000365864162 285.34896581659046 706.8182217148724 322.03930774359077C826.136406843329 358.7296496705911 792.0454968066269 772.5506838786055 911.3636819350834 754.6529561093371C1030.6818670635396 736.7552283400685 996.5909570268379 348.3745357469429 1115.9091421552946 260.6756696775275C1235.227327283751 172.97680360811205 1201.1364172470487 476.34328929721244 1320.4546023755051 453.9711295856269C1439.7727875039618 431.59896987404136 1465.3409700314878 262.72112427972957 1525.0000625957164 183.97112209494838 " transform="rotate(18, 400, 400)"></path><path d="M-662.5000002600927 514.722656429092C-606.1553017272106 384.5664028181342 -582.0075737845468 22.833438237030578 -469.3181767187824 68.47264404866515C-356.628779653018 114.11184986029971 -388.8257502432364 634.8576029438444 -276.1363531774721 671.1999334975535C-163.44695611170778 707.5422640512625 -195.64392670192615 269.1402632522013 -82.95452963616174 193.0749202328103C29.734867429602787 117.00957721341936 -2.46210316061547 402.7979374148454 110.22729390514871 410.4044717167845C222.916690970913 418.01100601872355 190.71972038069464 159.1473624733677 303.4091174464588 219.1544664108872C416.09851451222335 279.16157034840677 383.901543922005 584.8718061025303 496.5909409877695 616.14311378828C609.2803380535338 647.4144214740297 577.0833674633157 291.7183888785919 689.7727645290797 326.3703784763145C802.462161594844 361.022368074037 770.2651910046256 751.8533448260506 882.9545880703902 734.9499352661859C995.6439851361545 718.0465257063212 963.4470145459363 351.24253825725816 1076.1364116117006 268.41583141392135C1188.8258086774651 185.58912457058454 1156.6288380872465 472.10191661029046 1269.318235153011 450.9726546604596C1382.0076322187751 429.84339271062885 1406.1553601614387 270.34764964933447 1462.500058694321 195.97264758593 " transform="rotate(17, 400, 400)"></path><path d="M-600.0000617287374 507.97436450535645C-546.9697572272012 385.47436110680786 -524.2424838694 45.01980620694559 -418.1818748663276 87.9743528531899C-312.12126586325525 130.9288994994342 -342.42429700699023 621.0425494604175 -236.3636880039179 655.2470958639084C-130.30307900084563 689.4516422673992 -160.6061101445805 276.83799445651806 -54.54550114150811 205.2470833794442C51.515107861564275 133.65617230237035 21.212076717829518 402.6334524919478 127.27268572090168 409.7925435996552C233.33329472397406 416.9516347073626 203.03026358023908 173.31526431173347 309.09087258331135 229.7925386058695C415.1514815863836 286.2698129000056 384.84845044264875 573.997093609769 490.90905944572114 603.4289126081217C596.9696684487935 632.8607316064742 566.6666373050587 298.0879950460622 672.727246308131 330.7016323145069C778.7878553112034 363.31526958295166 748.4848241674681 731.1561888789645 854.5454331705405 715.2470975285037C960.6060421736129 699.3380061780427 930.3030110298782 354.1107238730422 1036.3636200329506 276.156176255784C1142.4242290360228 198.20162863852585 1112.121197892288 467.8607270288373 1218.1818068953603 447.9743628407612C1324.2424158984325 428.0879986526852 1346.9696892562336 277.97435812440807 1399.9999937577695 207.97435618238035 " transform="rotate(16, 400, 400)"></path><path d="M-537.5000621622257 501.22579792341764C-487.78415169203555 386.38204473727836 -466.47733291909685 67.20589951865749 -367.04551197871655 107.47578699951153C-267.61369103833624 147.74567448036555 -296.0227827355877 607.2272213187873 -196.59096179520742 639.29398357206C-97.15914085482706 671.3607458253326 -125.56823255207865 284.53545100263165 -26.136411611698236 217.41897186787492C73.29540932868213 150.30249273311819 44.88631763143076 402.46869291084704 144.3181385718109 409.18034082432274C243.74995951219114 415.8919887377984 215.34086781493966 187.4828914918961 314.77268875532 240.43033614264866C414.20450969570027 293.3777807934012 385.7954179984488 563.1221064588044 485.22723893882903 590.7144367697599C584.6590598792095 618.3067670807155 556.2499681819581 304.4573265553293 655.6817891223384 335.0326114944962C755.1136100627186 365.6078964336632 726.704518365467 710.4587582736752 826.1363393058473 695.5439851326181C925.5681602462278 680.6292119915611 897.1590685489764 356.97863483062304 996.5908894893569 283.8962464394435C1096.022710429737 210.81385804826397 1067.6136187324853 463.61926278918094 1167.0454396728658 444.9757963628596C1266.477260613246 426.3323299365383 1287.7840793861847 285.60079194127854 1337.499989856375 219.97579012062755 " transform="rotate(15, 400, 400)"></path><path d="M-475.00006259571404 494.47747548210384C-428.5985461568699 387.2899725083738 -408.7121819687938 89.39223697099439 -315.9091490911055 126.97746528645816C-223.10611621341718 164.56269360192192 -249.62126846418528 593.4121373177823 -156.818235586497 623.3411154208368C-64.01520270880866 653.2700935238912 -90.53035495957675 292.2331516893703 2.27267791811164 229.59110449693065C95.07571079579998 166.94905730449105 68.560558545032 402.3041774703713 161.3635914227201 408.56838218961525C254.16662430040833 414.8325869088592 227.65147204964035 201.65076281268378 320.45450492732857 251.0683778200528C413.2575378050168 300.4859928274218 386.7423855542488 552.2473634484647 479.54541843193726 578.0002050720234C572.3484513096255 603.7530466955818 545.8332990588574 310.82690220522136 638.6363319365457 339.3638348151105C731.4393648142341 367.9007674249997 704.9242125634657 689.7615718090109 797.7272454411541 675.8411168773576C890.5302783188426 661.9206619457043 864.0151260680746 359.8467899288289 956.8181589457629 291.63656076372797C1049.6211918234515 223.4263315986271 1023.1060395726829 459.3780426901496 1115.9090724503715 441.97747402558304C1208.7121053280596 424.5769053610165 1228.5984695161355 293.2274698987741 1274.9999859549798 231.97746819949975 " transform="rotate(14, 400, 400)"></path><path d="M-412.50006302920235 487.7291225232119C-369.41294062170425 388.1978697618912 -350.94703101849075 111.57854390575315 -264.77278620349443 146.47911305582664C-178.59854138849818 181.37968220590014 -203.21975419278283 579.5970227991991 -117.04550937778657 607.3882167520353C-30.87126456279026 635.1794107048715 -55.49247736707491 299.93082185853075 30.681767447921402 241.76320660840827C116.85601226291783 183.59559135828576 92.23479945863312 402.1396315123174 178.40904427362943 407.95639303732963C264.58328908862563 413.7731545623419 239.96207628434104 215.8186036158933 326.13632109933724 261.70638897987885C412.31056591433344 307.5941743438644 387.68935311004884 541.3725899205471 473.86359792504516 565.2859428567085C560.0378427400415 589.1992957928701 535.416629935757 317.19644733753535 621.5908747507531 343.6950276181467C707.7651195657495 370.19360789875805 683.1439067614647 669.0643548267684 769.3181515764609 656.138218104519C855.4923963914573 643.2120813822695 830.8711835871727 362.71491450945655 917.0454284021691 299.37684457043434C1003.2196732171656 236.03877463141208 978.5984604128805 455.1367920735401 1064.772705227877 438.97912117072826C1150.9469500428734 422.82145026791653 1169.4128596460866 300.85411733869137 1212.4999820535847 243.9791157607939 " transform="rotate(13, 400, 400)"></path><path d="M-350.0000634626907 480.980754305531C-310.2273350865386 389.10575175661955 -293.18188006818764 133.76483558172288 -213.6364233158834 165.98074556640609C-134.09096656357917 198.19665555108932 -156.81823992138038 565.7818930218267 -77.27278316907609 591.4353028244449C2.2726735832281975 617.0887126270629 -20.45459977457307 307.6284767689022 59.09085697773122 253.93529346109682C138.63631373003545 200.24211015329143 115.90904037223436 401.9750702954745 195.45449712453865 407.344388626255C274.9999538768427 412.7137069570356 252.27268051904161 229.98642916031378 331.8181372713458 272.3443848809158C411.36359402364997 314.70234060151785 388.63632066584887 530.4978011338403 468.18177741815316 552.5716653826048C547.7272341704575 574.6455296313693 524.9999608126562 323.5659772110603 604.5454175649604 348.02620516239386C684.0908743172647 372.4864331137274 661.3636009594634 648.367122585737 740.9090577117677 636.4353040728913C820.454514464072 624.5034855600456 797.7272411062709 365.5830238312953 877.2726978585752 307.11711311835165C956.8181546108794 248.65120240540801 934.0908812530781 450.8955261981416 1013.6363380053824 435.9807530570846C1093.181794757687 421.0659799160276 1110.2272497760375 308.4807495198197 1149.9999781521897 255.9807480632989 " transform="rotate(12, 400, 400)"></path><path d="M-287.5000638961791 474.232370829061C-251.04172955137295 390.0136184925588 -235.41672911788459 155.9511119989035 -162.50006042827235 185.48236281819646C-89.58339173866011 215.0136136374894 -110.4167256499779 551.9667479856654 -37.50005696036567 575.4823736380654C35.4166117292466 598.9979992904654 14.583277817928774 315.3261164204846 87.49994650754104 266.1073650549963C160.4166151971533 216.88861368950802 139.5832812858356 401.8104938198425 212.49994997544786 406.7323689563913C285.41661866506 411.6542440929402 264.5832847537422 244.15423944594517 337.49995344335446 282.9823655231637C410.4166221329666 321.81049160038225 389.5832882216489 519.6229970883445 462.4999569112613 539.857372649712C535.4166256008735 560.0917482110794 514.5832916895557 329.93549182579613 587.4999603791679 352.3573674478519C660.4166290687801 374.7792430699077 639.5832951574623 627.6698750859164 712.4999638470745 616.7323747824746C785.4166325366868 605.7948744790328 764.583298625369 368.45111789434486 837.4999673149814 314.8573664074799C910.4166360045936 261.26361492061494 889.5833020932757 446.654245063954 962.4999707828881 432.98236968465176C1035.4166394725003 419.3104943053495 1051.0416399059884 316.107366442159 1087.4999742507946 267.9823651070149 " transform="rotate(11, 400, 400)"></path><path d="M-225.0000643296674 467.48398735259093C-191.85612401620727 390.92148522849806 -177.6515781675815 178.13738841608415 -111.36369754066129 204.98398006998684C-45.07581691374108 231.83057172388953 -64.01521137857543 538.1516029495041 2.272669248344755 559.5294444516859C68.560549875265 580.9072859538676 49.621155410430674 323.02375607206693 115.90903603735086 278.27943664889574C182.19691666427116 233.53511722572463 163.25752219943683 401.6459173442105 229.54540282635696 406.12034928652764C295.8332834532772 410.59478122884474 276.8938889884429 258.3220497315766 343.181769615363 293.6203461654116C409.46965024228325 328.9186425992466 390.53025577744893 508.7481930428487 456.81813640436917 527.143079916819C523.1060170312894 545.5379667907895 504.1666225664551 336.305006440532 570.4545031933753 356.68852973330996C636.7423838202956 377.07205302608793 617.8029893554611 606.9726275860959 684.0908699823814 597.0294454920579C750.3787506093017 587.0862633980198 731.4393561444672 371.3192119573945 797.7272367713874 322.59761969660815C864.0151173983079 273.8760274358218 845.0757229334733 442.4129639297664 911.3636035603936 429.9839863122189C977.6514841873138 417.55500869467136 991.8560300359395 323.7339833644982 1024.9999703493995 279.98398215073087 " transform="rotate(10, 400, 400)"></path><path d="M-162.50006476315573 460.73552758217556C-132.67051848104165 391.82927567049205 -119.88642721727844 200.32358853931947 -60.227334653050235 224.4855210278319C-0.5682420888220747 248.64745351634434 -17.61369710717298 524.3363816193973 42.045395457055236 543.5764389713611C101.7044880212834 562.8164963233246 84.65903300293252 330.72131942970395 144.31812556716073 290.45143194885C203.977218131389 250.18154446799593 186.93176311303813 401.4812645746332 246.5908556772663 405.50825332271864C306.2499482414944 409.53524207080403 289.2044932231436 272.4897837232627 348.8635857873717 304.2582505137142C408.5226783515998 336.02671730416574 391.47722333324896 497.8733127034076 451.1363158974772 514.428710889981C510.7954084617054 530.9841090765544 493.74995344335457 342.67444476132255 553.4090460075827 361.01961572482276C613.068138571811 379.36478668832285 596.02268355346 586.2753037923301 655.6817761176882 577.3264399076959C715.3408686819163 568.3775760230616 698.2954136635655 374.1872297264988 757.9545062277938 330.3377966917911C817.613598792022 286.48836365708337 800.5681437736707 438.17160650163356 860.2272363378991 426.98552664584076C919.8863289021274 415.799446790048 932.6704201658904 331.3605239928921 962.4999664480047 291.98552290050156 " transform="rotate(9, 400, 400)"></path><path d="M-100.00002704967142 453.9871975114673C-73.48487479890333 392.737195812193 -62.121238120002715 222.50991836226186 -9.090933618466522 243.987191685384C43.93937088306964 265.4644650085062 28.78785531120215 510.5212899889978 81.81815981273832 527.6235631907432C134.84846431427445 544.7258363924886 119.69694874240702 338.4190124870481 172.7272532439432 302.6235569485112C225.7575577454794 266.82810140997424 210.60604217361202 401.31674150476294 263.6363466751481 404.8962870586166C316.6666511766843 408.47583261247036 301.5151356048168 286.6576474146558 354.545440106353 314.8962845617238C407.5757446078891 343.13492170879186 392.42422903602164 486.99856206367355 445.45453353755784 501.7144715628499C498.48483803909403 516.4303810620262 483.3333224672266 349.04401278182013 536.3636269687628 365.3508314160425C589.393931470299 381.6576500502649 574.2424158984313 565.5781096982713 627.2727203999675 557.6235640230409C680.3030249015037 549.6690183478104 665.1515093296364 377.05537719531014 718.1818138311726 338.07810338668105C771.2121183327087 299.10082957805196 756.0606027608412 433.93037877320774 809.0909072623774 423.98719667916964C862.1212117639134 414.04401458513166 873.4848484428139 338.9871943209931 900.000000693582 303.98719334997924 " transform="rotate(8, 400, 400)"></path><path d="M-37.49999696558163 447.2387377410519C-14.299238746159546 393.6449862541869 -4.356056652121509 244.6961184854972 42.04545978672263 263.48873264322907C88.4469762255668 282.28134680096093 75.18940010018275 496.7060686588911 121.59091653902689 511.6705577104184C167.9924329778711 526.6350467619457 154.73485685248704 346.11657584468514 201.1363732913312 314.7955522484653C247.53788973017538 283.4745286522455 234.2803136047914 401.15208873518566 280.68183004363544 404.2841910948076C327.08334648247956 407.4162934544296 313.82577035709556 300.8253814063419 360.2272867959397 325.5341889100264C406.6288032347838 350.2429964137109 393.3712271093998 476.12368172423237 439.7727435482441 489.0001025360117C486.17425998708813 501.8765233477909 472.9166838617041 355.4134511026107 519.3182003005483 369.68191740755526C565.7197167393924 383.95038371249984 552.4621406140083 544.8807859045055 598.8636570528524 537.9205584386789C645.2651734916967 530.9603309728521 632.0075973663127 379.92339496441446 678.4091138051568 345.818280381864C724.8106302440011 311.7131657993135 711.5530541186168 429.6890213450748 757.9545705574611 420.9887370127915C804.3560869963052 412.28845268050827 814.2992690903432 346.61373494938704 837.5000273097653 315.9887340997499 " transform="rotate(7, 400, 400)"></path><path d="M25.00000260093003 440.49036189397646C44.886366789006104 394.55286061952074 53.40909429818156 266.8824025320724 93.18182267433369 282.990357524414C132.9545510504858 299.0983125167556 121.5909143715852 482.8909312521243 161.36364274773734 495.7176361534334C201.1363711238895 508.5443410547424 189.77273444498886 353.814223125662 229.54546282114097 326.9676314717593C269.3181911972931 300.1210398178566 257.95455451839257 400.9875198889482 297.7272828945447 403.67217905433847C337.50001127069675 406.35683821972873 326.1363745917962 314.9931993213678 365.9091029679483 336.1721771816688C405.6818313441004 357.35115504196983 394.3181946651998 465.2488853081311 434.09092304135197 476.28581743251334C473.8636514175041 487.3227495568956 462.5000147386035 361.7829733467411 502.2727431147556 374.01308732240784C542.0454714909077 386.2432012980746 530.6818348120071 524.1835460340794 570.4545631881592 518.2176367776566C610.2272915643114 512.2517275212338 598.8636548854108 382.7914966568586 638.636383261563 353.55854130038676C678.4091116377151 324.325585943915 667.0454749588145 425.44774784028175 706.8182033349666 417.99036126975324C746.5909317111189 410.5329746992247 755.1136592202942 354.2403595011208 775.0000234083702 327.9903587728604 " transform="rotate(6, 400, 400)"></path><path d="M87.50000216744169 433.7419784175064C104.07197232417175 395.46072735546 111.17424524848464 289.068678949253 144.31818556194474 302.49197477620436C177.46212587540487 315.9152706031557 167.99242864298768 469.075786215963 201.13636895644777 479.7647069670539C234.2803092699079 490.45362771814473 224.81061203749073 361.5118627772444 257.95455235095085 339.1397030656588C291.09849266441097 316.76754335407327 281.6287954319938 400.8229434133162 314.7727357454539 403.0601593844748C347.916676058914 405.29737535563333 338.44697882649683 329.16100960699924 371.5909191399569 346.8101578239167C404.734859453417 364.45930604083424 395.26516222099985 454.3740812626353 428.40910253446 463.57152469962045C461.5530428479201 472.7689681366057 452.08334561550294 368.15248796147694 485.22728592896306 378.3442496078659C518.3712262424232 388.5360112542549 508.90152901000596 503.4862985342589 542.045469323466 498.5147074872399C575.1894096369263 493.54311644022084 565.719712404509 385.6595907199082 598.8636527179691 361.298794589515C632.0075930314293 336.93799845912184 622.5378957990121 421.20646670609415 655.6818361124722 414.9919778973204C688.8257764259323 408.77748908854664 695.9280493502451 361.86697642346 712.5000195069751 339.99197581657637 " transform="rotate(5, 400, 400)"></path><path d="M149.9999864751643 426.99357205285276C163.25756260054834 396.36857120321565 168.93938093999864 311.25493247825005 195.45453319076674 321.99356913981114C221.9696854415348 332.73220580137223 214.3939276556011 455.260618291618 240.90907990636916 463.81175489249074C267.4242321571372 472.36289149336346 259.8484743712035 369.2094795406432 286.3636266219716 351.3117517713747C312.8787788727397 333.41402400210626 305.303021086806 400.6583440495006 331.8181733375741 402.44811682642745C358.3333255883422 404.23788960335435 350.7575678024084 343.32879700444704 377.2727200531765 357.44811557798107C403.78787230394454 371.56743415151504 396.2121145180108 443.4992543289559 422.7272667687789 450.8572090785441C449.242419019547 458.21516382813223 441.6666612336133 374.5219796880292 468.1818134843814 382.6753890051404C494.6969657351495 390.8287983222516 487.12120794921566 482.7890281462548 513.6363601999838 478.8117553086396C540.1515124507519 474.83448247102433 532.5757546648182 388.5276618947742 559.0909069155863 369.03902499045967C585.6060591663543 349.5503880861451 578.0303013804206 416.965162683723 604.5454536311887 411.99357163670396C631.0606058819567 407.021980589685 636.742424221407 369.4935704576157 650.000000346791 351.99356997210873 " transform="rotate(4, 400, 400)"></path><path d="M212.49998604167595 420.24517713229096C222.443168135714 397.2764264950631 226.70453189030172 333.4411974513389 246.5908960783778 341.4951749475097C266.47726026645387 349.54915244368055 260.79544192700354 441.4454618113649 280.6818061150796 447.85881426201945C300.5681703031557 454.27216671267394 294.88635196370535 376.90710774813374 314.7727161517814 363.4838119211824C334.6590803398575 350.06051609423105 328.9772620004072 400.49375612977684 348.8636261884833 401.83608571247197C368.7499903765593 403.1784152951671 363.06817203710904 357.49659584598663 382.95453622518505 368.08608477613717C402.8409004132611 378.67557370628765 397.15908207381085 432.6244388393683 417.0454462618869 438.1429049015594C436.931810449963 443.6613709637505 431.2499921105127 380.89148285867327 451.13635629858874 387.00653984650666C471.0227204866648 393.12159683434004 465.3409021472145 462.09176920234245 485.22726633529055 459.10881457413103C505.1136305233666 456.1258599459196 499.43181218391635 391.39574451373204 519.3181763719924 376.7792668354961C539.2045405600685 362.1627891572602 533.5227222206181 412.7238701054436 553.4090864086943 408.9951768201794C573.2954505967704 405.2664835349151 577.5568143513581 377.12017593586313 587.499996445396 363.99517557173294 " transform="rotate(3, 400, 400)"></path><path d="M274.9999856081876 413.49680128521544C281.62877367087964 398.1843008603969 284.4696828406048 355.6274814979141 297.7272589659888 360.99679982869463C310.9848350913729 366.36611815947515 307.19695619840604 427.63032440459807 320.45453232379003 431.90589270503443C333.7121084491741 436.1814610054708 329.92422955620725 384.60475502911066 343.1818056815913 375.6558911444764C356.43938180697535 366.7070272598422 352.65150291400846 400.3291872835394 365.9090790393925 401.2240736720028C379.16665516477656 402.11896006046624 375.37877627180967 371.6644137610126 388.6363523971937 378.7240730477796C401.89392852257777 385.7837323345466 398.1060496296109 421.749642423267 411.3636257549949 425.4286197980611C424.621201880379 429.1075971728552 420.8333229874121 387.26100510280367 434.09089911279614 391.3377097613593C447.3484752381802 395.41441441991486 443.5605963452133 441.3945293319165 456.81817247059735 439.40589291310886C470.0757485959814 437.4172564943012 466.28786970301456 394.2638462061762 479.5454458283986 384.5195277540189C492.8030219537826 374.77520930186165 489.0151430608158 408.48259660065054 502.2727191861998 405.9968010771411C515.5302953115838 403.51100555363155 518.371204481309 384.74680048759694 524.999992544001 375.9968002448434 " transform="rotate(2, 400, 400)"></path><path d="M337.4999966187911 406.74839492056185C340.81439065013706 399.09214470815255 342.2348452349997 377.81373502691116 348.86363329769165 380.4983941923014C355.4924213603837 383.1830533576917 353.5984819139003 413.81515648025317 360.2272699765923 415.95294063047135C366.85605803928433 418.09072478068947 364.9621185928009 392.30237179250946 371.5909066554929 387.8279398501923C378.21969471818494 383.3535079078752 376.3257552717015 400.1645879197238 382.9545433343935 400.6120311139555C389.58333139708554 401.0594743081872 387.6893919506021 385.8322011584604 394.3181800132941 389.3620308018439C400.94696807598615 392.8918604452274 399.0530286295027 410.8748154895876 405.68181669219473 412.7143041769847C412.31060475488675 414.5537928643817 410.4166653084033 393.63049682935593 417.04545337109533 395.66884915863375C423.67424143378736 397.70720148791156 421.7803019873039 420.69725894391235 428.40909004999594 419.7029407345085C435.03787811268796 418.7086225251047 433.1439386662046 397.1319173810422 439.7727267288966 392.25975815496355C446.40151479158857 387.3875989288849 444.5075753451051 404.2412925782794 451.13636340779715 402.99839481652464C457.7651514704892 401.7554970547699 459.18560605535174 392.3733945217526 462.50000008669775 387.9983944003758 " transform="rotate(1, 400, 400)"></path></g></svg>