<svg xmlns="http://www.w3.org/2000/svg" version="1.1" xmlns:xlink="http://www.w3.org/1999/xlink" xmlns:svgjs="http://svgjs.dev/svgjs" viewBox="0 0 800 800"><defs><filter id="bbburst-blur-1" x="-100%" y="-100%" width="400%" height="400%"><feGaussianBlur in="SourceGraphic" stdDeviation="1"></feGaussianBlur></filter><filter id="bbburst-blur-2" x="-100%" y="-100%" width="400%" height="400%"><feGaussianBlur in="SourceGraphic" stdDeviation="2"></feGaussianBlur></filter><filter id="bbburst-blur-3" x="-100%" y="-100%" width="400%" height="400%"><feGaussianBlur in="SourceGraphic" stdDeviation="4"></feGaussianBlur></filter><filter id="bbburst-blur-4" x="-100%" y="-100%" width="400%" height="400%"><feGaussianBlur in="SourceGraphic" stdDeviation="12"></feGaussianBlur></filter><symbol id="bbburst-shape-1" viewBox="0 0 194 167"><path d="m97 0 96.129 166.5H.871L97 0Z"></path></symbol><symbol id="bbburst-shape-4" viewBox="0 0 149 143"><path d="M71.647 2.781c.898-2.764 4.808-2.764 5.706 0l15.445 47.534a3 3 0 0 0 2.853 2.073h49.98c2.906 0 4.115 3.719 1.764 5.427L106.96 87.193a2.999 2.999 0 0 0-1.09 3.354l15.445 47.534c.898 2.764-2.266 5.062-4.617 3.354l-40.435-29.378a3 3 0 0 0-3.526 0l-40.435 29.378c-2.351 1.708-5.515-.59-4.617-3.354L43.13 90.547a3 3 0 0 0-1.09-3.354L1.605 57.815c-2.35-1.708-1.142-5.427 1.764-5.427h49.98a3 3 0 0 0 2.853-2.073L71.647 2.781Z"></path></symbol><symbol id="bbburst-shape-6" viewBox="0 0 133 116"><path d="M59.7487 10.2513c-13.6683-13.66839-35.8291-13.66839-49.4974 0-13.66839 13.6683-13.66839 35.8291 0 49.4974l49.4974-49.4974ZM66.5 66.5 41.7513 91.2487 66.5 115.997l24.7487-24.7483L66.5 66.5Zm56.249-6.7513c13.668-13.6683 13.668-35.8291 0-49.4974-13.669-13.66839-35.8294-13.66839-49.4977 0l49.4977 49.4974Zm-112.4977 0 31.5 31.5 49.4974-49.4974-31.5-31.5-49.4974 49.4974Zm80.9974 31.5 31.5003-31.5-49.4977-49.4974-31.5 31.5 49.4974 49.4974Z"></path></symbol><symbol id="bbburst-shape-8" viewBox="0 0 87 168"><path d="m12 12 31.2546 18.0749c16.4102 9.4902 20.014 31.6325 7.4603 45.8369L36.3296 92.1884c-12.5684 14.2206-8.9394 36.3916 7.5068 45.8636L75 156" stroke-width="14" stroke-linecap="round" stroke-linejoin="round"></path></symbol><symbol id="bbburst-shape-10" viewBox="0 0 145 145"><circle cx="72.5" cy="72.5" r="61.5" fill="none" stroke-width="22"></circle></symbol></defs><use xlink:href="#bbburst-shape-6" width="37.07697048994034" opacity="0.29124153996575375" transform="matrix(1.1197362100383295,-0.5555995139747677,0.5555995139747677,1.1197362100383295,10.648746875000313,245.78596169949913)" fill="#ffa6d5" filter="url(#bbburst-blur-3)"></use><use xlink:href="#bbburst-shape-6" width="34.40155985953315" opacity="0.05812407384945961" transform="matrix(1.4951474062763936,-0.9094142254797715,0.9094142254797715,1.4951474062763936,230.08497152157076,-544.9536700100323)" fill="#ffa6d5" filter="url(#bbburst-blur-4)"></use><use xlink:href="#bbburst-shape-4" width="15.059861155063615" opacity="0.8763152911018116" transform="matrix(0.9963474973048294,0.08539124436616981,-0.08539124436616981,0.9963474973048294,471.88491149319987,33.26444924087099)" fill="#ffbd9b"></use><use xlink:href="#bbburst-shape-4" width="32.093416674410854" opacity="0.20209907638372282" transform="matrix(1.243752002956605,0.12482369623366132,-0.12482369623366132,1.243752002956605,141.9122677506393,-313.8151482672435)" fill="#00a19d" filter="url(#bbburst-blur-3)"></use><use xlink:href="#bbburst-shape-8" width="57.2027895977229" opacity="-0.076052712147753" transform="matrix(1.5827655670159955,0.7465608882526156,-0.7465608882526156,1.5827655670159955,310.4799472398455,87.4610765933902)" fill="none" stroke="#00a19d" filter="url(#bbburst-blur-4)"></use><use xlink:href="#bbburst-shape-4" width="36.38736480390352" opacity="0.37669672473699833" transform="matrix(0.933950461962965,-0.3574024826426981,0.3574024826426981,0.933950461962965,432.1911884464794,-171.3940598498084)" fill="#ff5c58" filter="url(#bbburst-blur-2)"></use><use xlink:href="#bbburst-shape-6" width="17.215043844650477" opacity="0.7820584105560596" transform="matrix(0.9580875020042857,0.28647572061727644,-0.28647572061727644,0.9580875020042857,604.2072008703703,7.884652855659226)" fill="#00a19d"></use><use xlink:href="#bbburst-shape-4" width="21.720842452866528" opacity="0.7056816936580699" transform="matrix(0.7833286868256709,-0.6216077287131894,0.6216077287131894,0.7833286868256709,134.24353867380495,225.59743193374516)" fill="#2c2891" filter="url(#bbburst-blur-1)"></use><use xlink:href="#bbburst-shape-6" width="44.13326394750966" opacity="0.3613259254560489" transform="matrix(0.7502689093866356,0.6611327881808529,-0.6611327881808529,0.7502689093866356,361.69845644997537,111.59343500979253)" fill="#2c2891" filter="url(#bbburst-blur-2)"></use><use xlink:href="#bbburst-shape-4" width="25.445847673490107" opacity="0.5549704292574718" transform="matrix(0.9193507720896092,0.39343888706918556,-0.39343888706918556,0.9193507720896092,481.55011807039443,-162.44583036063213)" fill="#ffa6d5" filter="url(#bbburst-blur-2)"></use><use xlink:href="#bbburst-shape-10" width="37.57896940972364" opacity="0.27481271568194376" transform="matrix(1.1865053007679949,0.3933257825892553,-0.3933257825892553,1.1865053007679949,225.62873396460412,-185.72732813266924)" fill="none" stroke="#2c2891" filter="url(#bbburst-blur-3)"></use><use xlink:href="#bbburst-shape-8" width="39.575370773166874" opacity="0.07968654292536115" transform="matrix(1.7481996161997433,0.07936058164523793,-0.07936058164523793,1.7481996161997433,31.7742514247672,-495.8178151723268)" fill="none" stroke="#00a19d" filter="url(#bbburst-blur-4)"></use><use xlink:href="#bbburst-shape-4" width="12.128553556873525" opacity="0.89916163081524" transform="matrix(0.8162619238971794,-0.5776819813666298,0.5776819813666298,0.8162619238971794,173.62787258103737,32.66694333045649)" fill="#2c2891"></use><use xlink:href="#bbburst-shape-6" width="43.35745706479557" opacity="-0.079991614393081" transform="matrix(1.6012348797685285,-0.7060785082500854,0.7060785082500854,1.6012348797685285,426.3914309147363,-568.9534268933849)" fill="#ff5c58" filter="url(#bbburst-blur-4)"></use><use xlink:href="#bbburst-shape-4" width="35.69537950708512" opacity="0.1757324477756287" transform="matrix(1.2012560392622769,-0.34566447334938416,0.34566447334938416,1.2012560392622769,-22.309742204776086,187.65063346590125)" fill="#2c2891" filter="url(#bbburst-blur-3)"></use><use xlink:href="#bbburst-shape-6" width="10.581315261929577" opacity="0.9451306978130938" transform="matrix(0.9302499594421156,-0.3669264407997088,0.3669264407997088,0.9302499594421156,271.66184467395465,37.856719586065196)" fill="#ffbd9b"></use><use xlink:href="#bbburst-shape-8" width="37.53595325603701" opacity="0.2236489334653352" transform="matrix(1.2479535941270827,-0.07149704123455894,0.07149704123455894,1.2479535941270827,628.5884412464383,-305.94933974159153)" fill="none" stroke="#00a19d" filter="url(#bbburst-blur-3)"></use><use xlink:href="#bbburst-shape-1" width="34.108365298331115" opacity="0.42572002600175496" transform="matrix(0.8050931471760966,0.5931483999557683,-0.5931483999557683,0.8050931471760966,680.543454359871,-184.1698981743003)" fill="#2c2891" filter="url(#bbburst-blur-2)"></use><use xlink:href="#bbburst-shape-4" width="45.00112371601915" opacity="0.18165124665869636" transform="matrix(1.2293314628601728,-0.2263717173634271,0.2263717173634271,1.2293314628601728,627.6066645991968,-213.20172307102803)" fill="#2c2891" filter="url(#bbburst-blur-3)"></use><use xlink:href="#bbburst-shape-6" width="26.100461697250495" opacity="0.6607451663302317" transform="matrix(0.8846006299527202,-0.46634935990869625,0.46634935990869625,0.8846006299527202,111.5268831893859,-70.78363731523604)" fill="#ff5c58" filter="url(#bbburst-blur-1)"></use><use xlink:href="#bbburst-shape-8" width="19.391882216632624" opacity="0.7224447045484379" transform="matrix(0.7409766577678085,-0.6715307830943031,0.6715307830943031,0.7409766577678085,17.64497042722394,44.964334886703284)" fill="none" stroke="#2c2891" filter="url(#bbburst-blur-1)"></use><use xlink:href="#bbburst-shape-4" width="39.33176650762908" opacity="0.18703394246473526" transform="matrix(1.2464961110626684,-0.09352777718754729,0.09352777718754729,1.2464961110626684,697.1585213072518,-26.7380602763522)" fill="#00a19d" filter="url(#bbburst-blur-3)"></use><use xlink:href="#bbburst-shape-10" width="26.222305983901418" opacity="0.5139582064769104" transform="matrix(0.8646346720266624,0.5024011185590115,-0.5024011185590115,0.8646346720266624,806.9966898762361,71.7886143084778)" fill="none" stroke="#00a19d" filter="url(#bbburst-blur-2)"></use><use xlink:href="#bbburst-shape-6" width="19.069010651233874" opacity="0.6908257282404057" transform="matrix(0.8612283822370672,-0.5082181358721116,0.5082181358721116,0.8612283822370672,318.0586135561865,9.642851014548853)" fill="#ffa6d5" filter="url(#bbburst-blur-1)"></use><use xlink:href="#bbburst-shape-6" width="20.06677583026581" opacity="0.6756930733556665" transform="matrix(0.7685010555206703,-0.6398485193103253,0.6398485193103253,0.7685010555206703,107.5206918291928,-44.04261978003086)" fill="#00a19d" filter="url(#bbburst-blur-1)"></use><use xlink:href="#bbburst-shape-10" width="20.41720804138537" opacity="0.7380566118256561" transform="matrix(0.9772247699035459,0.2122068544768566,-0.2122068544768566,0.9772247699035459,581.8046675067924,56.614838701923816)" fill="none" stroke="#ff5c58" filter="url(#bbburst-blur-1)"></use><use xlink:href="#bbburst-shape-1" width="37.305707411770655" opacity="0.35826998574962265" transform="matrix(0.9767863367071439,0.21421590142246263,-0.21421590142246263,0.9767863367071439,675.9201352070695,205.17616487503557)" fill="#ffbd9b" filter="url(#bbburst-blur-2)"></use><use xlink:href="#bbburst-shape-10" width="21.31303240621954" opacity="0.8119987672207909" transform="matrix(0.9855861238538147,0.16917444389390768,-0.16917444389390768,0.9855861238538147,431.2153377992762,84.48461191700017)" fill="none" stroke="#ffbd9b"></use><use xlink:href="#bbburst-shape-8" width="14.680628899611015" opacity="0.9006398832848985" transform="matrix(0.9912409307441759,0.13206595782948732,-0.13206595782948732,0.9912409307441759,483.3059745880412,-21.41744635585843)" fill="none" stroke="#ff5c58"></use><use xlink:href="#bbburst-shape-8" width="28.68453172106518" opacity="0.4758088193573021" transform="matrix(0.9531349083759367,-0.30254561050392814,0.30254561050392814,0.9531349083759367,389.77644636107556,223.461706613653)" fill="none" stroke="#ffbd9b" filter="url(#bbburst-blur-2)"></use><use xlink:href="#bbburst-shape-8" width="29.10634391389383" opacity="0.18492192150877806" transform="matrix(1.0062792399938993,-0.7415538356433069,0.7415538356433069,1.0062792399938993,43.014281295192745,-355.64426133693235)" fill="none" stroke="#00a19d" filter="url(#bbburst-blur-3)"></use><use xlink:href="#bbburst-shape-1" width="43.25297538587616" opacity="0.28647043010170814" transform="matrix(1.0714209321622428,-0.6438611543839174,0.6438611543839174,1.0714209321622428,-165.94836462306964,132.7910619870056)" fill="#ffa6d5" filter="url(#bbburst-blur-3)"></use><use xlink:href="#bbburst-shape-6" width="23.487837620482722" opacity="0.5609028763687208" transform="matrix(0.8619740856080123,-0.5069523406990356,0.5069523406990356,0.8619740856080123,-6.393361962862031,101.22713522894531)" fill="#ffa6d5" filter="url(#bbburst-blur-1)"></use><use xlink:href="#bbburst-shape-4" width="32.12822113169564" opacity="0.6262023496764484" transform="matrix(0.9668478642459679,-0.2553531033745438,0.2553531033745438,0.9668478642459679,348.35238113756685,172.10340130700058)" fill="#00a19d" filter="url(#bbburst-blur-1)"></use><use xlink:href="#bbburst-shape-10" width="27.63078061580951" opacity="0.4918431291744433" transform="matrix(0.8294537526385163,0.5585753952994018,-0.5585753952994018,0.8294537526385163,718.7543051308365,-141.7051417900022)" fill="none" stroke="#ffa6d5" filter="url(#bbburst-blur-2)"></use><use xlink:href="#bbburst-shape-10" width="38.29914988578874" opacity="0.42104173723866123" transform="matrix(0.8288171419744965,-0.5595195663864019,0.5595195663864019,0.8288171419744965,111.9028816366179,335.18032877944927)" fill="none" stroke="#ffa6d5" filter="url(#bbburst-blur-2)"></use><use xlink:href="#bbburst-shape-4" width="40.439109583146276" opacity="0.17802782829552122" transform="matrix(1.1791059696019208,0.4149808579309583,-0.4149808579309583,1.1791059696019208,453.8745184015978,279.21294522352684)" fill="#ff5c58" filter="url(#bbburst-blur-3)"></use><use xlink:href="#bbburst-shape-8" width="28.811035478661342" opacity="0.4763551038533286" transform="matrix(0.9902317789573993,-0.13943107237220906,0.13943107237220906,0.9902317789573993,536.3962094939968,119.54485160754041)" fill="none" stroke="#ffa6d5" filter="url(#bbburst-blur-2)"></use><use xlink:href="#bbburst-shape-1" width="13.443467032701774" opacity="0.773174438043459" transform="matrix(0.8133858539458377,0.581724550453907,-0.581724550453907,0.8133858539458377,609.3646175460535,-29.74945312840191)" fill="#ffa6d5" filter="url(#bbburst-blur-1)"></use><use xlink:href="#bbburst-shape-10" width="17.49968311762149" opacity="0.8055808086309966" transform="matrix(0.734509953370483,0.6785979136423061,-0.6785979136423061,0.734509953370483,726.358917768498,162.63511186519685)" fill="none" stroke="#ffa6d5"></use><use xlink:href="#bbburst-shape-4" width="31.261140690815115" opacity="0.17419671468729747" transform="matrix(1.1130068129228974,-0.5689603100280495,0.5689603100280495,1.1130068129228974,246.55069606657884,323.8886526782187)" fill="#00a19d" filter="url(#bbburst-blur-3)"></use><use xlink:href="#bbburst-shape-1" width="41.79897293616808" opacity="0.29085284756342866" transform="matrix(1.1875530717792442,-0.3901508704433214,0.3901508704433214,1.1875530717792442,363.2147500114925,-351.5453475535746)" fill="#00a19d" filter="url(#bbburst-blur-3)"></use><use xlink:href="#bbburst-shape-6" width="32.9833430105906" opacity="0.5321005715198932" transform="matrix(0.9583824836835655,0.28548732891061956,-0.28548732891061956,0.9583824836835655,356.79294501014243,-143.89311537983582)" fill="#ffa6d5" filter="url(#bbburst-blur-2)"></use><use xlink:href="#bbburst-shape-1" width="16.061485000920353" opacity="0.6590257919379598" transform="matrix(0.7428635314550491,-0.669442883025978,0.669442883025978,0.7428635314550491,243.545125428247,9.301113856915265)" fill="#ffa6d5" filter="url(#bbburst-blur-1)"></use><use xlink:href="#bbburst-shape-1" width="20.582509868947724" opacity="0.7728408341408365" transform="matrix(0.9454733115790381,-0.3256995810432784,0.3256995810432784,0.9454733115790381,202.85212669713098,-59.568099229315806)" fill="#2c2891" filter="url(#bbburst-blur-1)"></use><use xlink:href="#bbburst-shape-1" width="16.45416559717563" opacity="0.908343318808774" transform="matrix(0.8035521031397631,0.5952344223410332,-0.5952344223410332,0.8035521031397631,591.1221443243634,65.14210400076325)" fill="#00a19d"></use><use xlink:href="#bbburst-shape-6" width="20.748433828497397" opacity="0.7919533321841221" transform="matrix(0.8981066117116703,0.43977780071279526,-0.43977780071279526,0.8981066117116703,494.62088812193264,96.06827124100903)" fill="#2c2891"></use><use xlink:href="#bbburst-shape-10" width="22.665120148526505" opacity="0.720906332581927" transform="matrix(0.8862317693375775,0.4632421084236478,-0.4632421084236478,0.8862317693375775,600.0940149185323,-82.85351379429272)" fill="none" stroke="#2c2891" filter="url(#bbburst-blur-1)"></use><use xlink:href="#bbburst-shape-10" width="37.30046179841223" opacity="0.2549957973145628" transform="matrix(1.2329544092496842,0.20572657755322274,-0.20572657755322274,1.2329544092496842,460.6566650918081,238.230513107565)" fill="none" stroke="#2c2891" filter="url(#bbburst-blur-3)"></use><use xlink:href="#bbburst-shape-1" width="30.284768685395754" opacity="0.21389945096569118" transform="matrix(1.1375361936436532,-0.5181808643231713,0.5181808643231713,1.1375361936436532,48.976241987872186,-377.4592663603823)" fill="#ffa6d5" filter="url(#bbburst-blur-3)"></use><use xlink:href="#bbburst-shape-4" width="29.656092067613045" opacity="0.04937067964744557" transform="matrix(1.3387247450649091,1.1270829858315201,-1.1270829858315201,1.3387247450649091,1191.541406983331,-382.32679624479175)" fill="#00a19d" filter="url(#bbburst-blur-4)"></use><use xlink:href="#bbburst-shape-4" width="22.03832492624308" opacity="0.6408825739431193" transform="matrix(0.8231882858876504,0.5677684792037614,-0.5677684792037614,0.8231882858876504,457.2724347936718,47.93077510705422)" fill="#00a19d" filter="url(#bbburst-blur-1)"></use><use xlink:href="#bbburst-shape-6" width="24.89324630367411" opacity="0.571943209725235" transform="matrix(0.9318043773869225,-0.36296088257905945,0.36296088257905945,0.9318043773869225,258.2438806603443,-160.24247166017582)" fill="#ffa6d5" filter="url(#bbburst-blur-1)"></use><use xlink:href="#bbburst-shape-1" width="30.13096091682683" opacity="0.5550313205605114" transform="matrix(0.988059388638533,0.15407350363786862,-0.15407350363786862,0.988059388638533,464.7406273195419,201.91836971823085)" fill="#ffa6d5" filter="url(#bbburst-blur-2)"></use><use xlink:href="#bbburst-shape-6" width="27.984949415209005" opacity="0.3992179362789655" transform="matrix(0.7954293109185989,0.6060463772118129,-0.6060463772118129,0.7954293109185989,508.5042493910981,-167.51297574466847)" fill="#ffa6d5" filter="url(#bbburst-blur-2)"></use><use xlink:href="#bbburst-shape-1" width="31.528053487645554" opacity="0.17548219578474789" transform="matrix(1.1722540325148016,-0.43395908015939294,0.43395908015939294,1.1722540325148016,-27.202256292641067,-349.0091614870529)" fill="#ffa6d5" filter="url(#bbburst-blur-3)"></use><use xlink:href="#bbburst-shape-6" width="28.677384278308296" opacity="0.6957427687954633" transform="matrix(0.917547359269338,0.3976265125690998,-0.3976265125690998,0.917547359269338,419.7470529608155,80.50453291034057)" fill="#2c2891" filter="url(#bbburst-blur-1)"></use><use xlink:href="#bbburst-shape-6" width="38.08452325093728" opacity="0.19410555868885482" transform="matrix(1.141034728422202,-0.510430943942931,0.510430943942931,1.141034728422202,535.0717277033189,-81.5680866422988)" fill="#ffa6d5" filter="url(#bbburst-blur-3)"></use><use xlink:href="#bbburst-shape-6" width="34.376167729778494" opacity="0.16167670953178803" transform="matrix(1.135093250915494,0.5235105650568052,-0.5235105650568052,1.135093250915494,692.4811290444738,-426.0639705493335)" fill="#00a19d" filter="url(#bbburst-blur-3)"></use><use xlink:href="#bbburst-shape-6" width="31.235428185444324" opacity="0.42318849626204114" transform="matrix(0.8186318174738574,0.5743186810643103,-0.5743186810643103,0.8186318174738574,389.9258253427181,-62.269825148774714)" fill="#ff5c58" filter="url(#bbburst-blur-2)"></use><use xlink:href="#bbburst-shape-8" width="11.815969772307874" opacity="0.851225217414905" transform="matrix(0.8821429092556543,0.4709818336729884,-0.4709818336729884,0.8821429092556543,649.5847881186362,52.88455682152028)" fill="none" stroke="#00a19d"></use><use xlink:href="#bbburst-shape-1" width="28.182338674083425" opacity="0.05496334863758989" transform="matrix(1.6583539963868743,0.5588935700718723,-0.5588935700718723,1.6583539963868743,382.61849252590685,-636.5653110533348)" fill="#ffa6d5" filter="url(#bbburst-blur-4)"></use><use xlink:href="#bbburst-shape-4" width="34.32493590212392" opacity="0.17963047879323413" transform="matrix(0.9618454321008768,-0.798344139295002,0.798344139295002,0.9618454321008768,-295.14407187081343,113.6709173554259)" fill="#ffa6d5" filter="url(#bbburst-blur-3)"></use><use xlink:href="#bbburst-shape-6" width="14.906144087799811" opacity="0.8106765292787689" transform="matrix(0.7528050193750621,0.6582435740694417,-0.6582435740694417,0.7528050193750621,731.6404887730566,51.674325684595715)" fill="#2c2891"></use><use xlink:href="#bbburst-shape-4" width="10.423022525434416" opacity="0.9729566106171327" transform="matrix(0.9749197837220155,-0.22255654406783565,0.22255654406783565,0.9749197837220155,296.45993337285523,18.882796942413393)" fill="#ffbd9b"></use><use xlink:href="#bbburst-shape-6" width="30.602047090797647" opacity="0.6002826797154264" transform="matrix(0.9298098230508753,-0.3680403414818814,0.3680403414818814,0.9298098230508753,188.57545887602424,206.4968747967152)" fill="#00a19d" filter="url(#bbburst-blur-1)"></use><use xlink:href="#bbburst-shape-6" width="24.457910402172825" opacity="0.5531006763586019" transform="matrix(0.9183105251603512,0.39586080808753993,-0.39586080808753993,0.9183105251603512,744.8587692206709,-8.773664355776532)" fill="#00a19d" filter="url(#bbburst-blur-2)"></use><use xlink:href="#bbburst-shape-4" width="27.745393782704056" opacity="0.36413500160953893" transform="matrix(0.9248164812282698,-0.3804135592333183,0.3804135592333183,0.9248164812282698,37.49363401804118,-171.65542355628975)" fill="#00a19d" filter="url(#bbburst-blur-2)"></use><use xlink:href="#bbburst-shape-1" width="11.604062766428877" opacity="0.9521302619295294" transform="matrix(0.9908533349900397,0.13494320486455136,-0.13494320486455136,0.9908533349900397,443.0993830099178,-18.0318454886347)" fill="#ffa6d5"></use><use xlink:href="#bbburst-shape-6" width="35.5849160741388" opacity="0.15225096423833417" transform="matrix(1.2302108922794246,0.22154268328487392,-0.22154268328487392,1.2302108922794246,743.1204851183736,166.91894455244767)" fill="#00a19d" filter="url(#bbburst-blur-3)"></use><use xlink:href="#bbburst-shape-6" width="28.586385828844474" opacity="0.37373830853588985" transform="matrix(0.890862763227047,0.4542725361448459,-0.4542725361448459,0.890862763227047,848.5950491383769,2.030874672943753)" fill="#ffa6d5" filter="url(#bbburst-blur-2)"></use><use xlink:href="#bbburst-shape-6" width="26.34523622193017" opacity="0.4937224533300165" transform="matrix(0.9846034068847815,-0.17480312111310092,0.17480312111310092,0.9846034068847815,202.79007746393137,205.5284495338994)" fill="#2c2891" filter="url(#bbburst-blur-2)"></use><use xlink:href="#bbburst-shape-8" width="29.27410854704221" opacity="0.6202272457390298" transform="matrix(0.8855469620561263,0.464549865991979,-0.464549865991979,0.8855469620561263,733.7868211745454,96.49679790429138)" fill="none" stroke="#00a19d" filter="url(#bbburst-blur-1)"></use><use xlink:href="#bbburst-shape-4" width="25.29780038045923" opacity="0.5868433463930447" transform="matrix(0.9007519878727367,-0.434333807506753,0.434333807506753,0.9007519878727367,351.55273448871174,171.26050972668833)" fill="#2c2891" filter="url(#bbburst-blur-1)"></use><use xlink:href="#bbburst-shape-10" width="19.528211297819226" opacity="0.7096190398726436" transform="matrix(0.8572993872763538,-0.5148181820561395,0.5148181820561395,0.8572993872763538,270.55737865589276,161.47791662836187)" fill="none" stroke="#ff5c58" filter="url(#bbburst-blur-1)"></use><use xlink:href="#bbburst-shape-8" width="30.843329704640137" opacity="0.3841428825233989" transform="matrix(0.9419501268826678,0.33575282346649915,-0.33575282346649915,0.9419501268826678,322.8421877579776,213.0338349102281)" fill="none" stroke="#ffbd9b" filter="url(#bbburst-blur-2)"></use><use xlink:href="#bbburst-shape-1" width="16.900512428466836" opacity="0.748062731769119" transform="matrix(0.9955700139575133,0.09402312113856169,-0.09402312113856169,0.9955700139575133,500.88303848250746,-86.82963180999639)" fill="#00a19d" filter="url(#bbburst-blur-1)"></use><use xlink:href="#bbburst-shape-1" width="19.215438606226805" opacity="0.8679832783040525" transform="matrix(0.9513681742911408,0.3080561587534674,-0.3080561587534674,0.9513681742911408,482.03811319063874,-33.512731490896385)" fill="#ff5c58"></use><use xlink:href="#bbburst-shape-10" width="31.952835201359385" opacity="0.5828065482767064" transform="matrix(0.9983166025193414,-0.05799966494937044,0.05799966494937044,0.9983166025193414,218.0563173020521,123.48101671491611)" fill="none" stroke="#00a19d" filter="url(#bbburst-blur-1)"></use><use xlink:href="#bbburst-shape-1" width="39.82673101726736" opacity="0.07352763246286131" transform="matrix(1.4261522714131347,-1.0141941129503547,1.0141941129503547,1.4261522714131347,-250.49943551608547,206.11564947708803)" fill="#2c2891" filter="url(#bbburst-blur-4)"></use><use xlink:href="#bbburst-shape-4" width="47.582797137289624" opacity="-0.07977669574894497" transform="matrix(1.3811059466828353,-1.0747308332960905,1.0747308332960905,1.3811059466828353,284.11818519347537,213.49891389908817)" fill="#ffa6d5" filter="url(#bbburst-blur-4)"></use><use xlink:href="#bbburst-shape-6" width="33.86091401653349" opacity="0.3792065362430973" transform="matrix(0.8221897220450846,0.569213546011887,-0.569213546011887,0.8221897220450846,863.4214777952704,-63.860487570092516)" fill="#00a19d" filter="url(#bbburst-blur-2)"></use><use xlink:href="#bbburst-shape-6" width="34.734344846669345" opacity="0.2720151694571292" transform="matrix(1.23364739241647,-0.20152943006926832,0.20152943006926832,1.23364739241647,455.87843661012533,197.0608740994985)" fill="#ffa6d5" filter="url(#bbburst-blur-3)"></use><use xlink:href="#bbburst-shape-4" width="19.206635197884943" opacity="0.6790497457516034" transform="matrix(0.9918483802633331,0.12742366565517754,-0.12742366565517754,0.9918483802633331,585.8612010162701,3.6314005515716303)" fill="#00a19d" filter="url(#bbburst-blur-1)"></use><use xlink:href="#bbburst-shape-6" width="35.82383751360727" opacity="0.4028942356429762" transform="matrix(0.89991853862879,0.43605805098888273,-0.43605805098888273,0.89991853862879,621.5002642742313,293.3824243387179)" fill="#00a19d" filter="url(#bbburst-blur-2)"></use><use xlink:href="#bbburst-shape-6" width="33.84851730152887" opacity="0.07756674921220907" transform="matrix(1.6175048826435978,0.667965534009144,-0.667965534009144,1.6175048826435978,1001.9269277280312,-55.38791104109259)" fill="#00a19d" filter="url(#bbburst-blur-4)"></use><use xlink:href="#bbburst-shape-1" width="26.506713128238573" opacity="0.5937052992463944" transform="matrix(0.8624556472999039,0.5061326470802923,-0.5061326470802923,0.8624556472999039,428.8281530555265,-36.0783106756175)" fill="#ffa6d5" filter="url(#bbburst-blur-1)"></use><use xlink:href="#bbburst-shape-1" width="37.034607492752905" opacity="0.2688169227211" transform="matrix(1.1285425993036666,-0.5374863733685938,0.5374863733685938,1.1285425993036666,192.20395134025986,-369.2432063708144)" fill="#ffa6d5" filter="url(#bbburst-blur-3)"></use><use xlink:href="#bbburst-shape-8" width="46.106787597164214" opacity="-0.06670815729668478" transform="matrix(1.7220578317621333,0.3114752382882146,-0.3114752382882146,1.7220578317621333,141.84525222835236,-631.768006405831)" fill="none" stroke="#00a19d" filter="url(#bbburst-blur-4)"></use><use xlink:href="#bbburst-shape-4" width="27.643324336974327" opacity="0.6962918944702381" transform="matrix(0.8120380978958788,-0.5836044273012699,0.5836044273012699,0.8120380978958788,78.11545628122838,196.0247148628739)" fill="#00a19d" filter="url(#bbburst-blur-1)"></use><use xlink:href="#bbburst-shape-10" width="12.297082699178322" opacity="0.8343929914637214" transform="matrix(0.9465809858120152,0.32246618008584,-0.32246618008584,0.9465809858120152,524.5279677016595,-55.12580791170859)" fill="none" stroke="#2c2891"></use><use xlink:href="#bbburst-shape-10" width="16.811155332794705" opacity="0.8242159802001678" transform="matrix(0.79009742540096,-0.612981287132629,0.612981287132629,0.79009742540096,70.56718060882477,104.46407338163993)" fill="none" stroke="#ff5c58"></use><use xlink:href="#bbburst-shape-1" width="37.76958538917238" opacity="0.18917604437675584" transform="matrix(1.236071859006434,0.1860815933196474,-0.1860815933196474,1.236071859006434,88.35771071209706,-137.4147495812785)" fill="#ff5c58" filter="url(#bbburst-blur-3)"></use><use xlink:href="#bbburst-shape-6" width="20.025392194800848" opacity="0.827458570291976" transform="matrix(0.8437760031709708,0.5366954969746084,-0.5366954969746084,0.8437760031709708,536.3673864398634,23.23672747654382)" fill="#ff5c58"></use><use xlink:href="#bbburst-shape-1" width="13.287309661539643" opacity="0.8236958748849639" transform="matrix(0.9430653232797584,-0.3326075706102382,0.3326075706102382,0.9430653232797584,297.7094387794606,-45.17458240221197)" fill="#ffa6d5"></use><use xlink:href="#bbburst-shape-8" width="11.372874287504047" opacity="0.9132263844694819" transform="matrix(0.9505810997317586,0.3104763643705592,-0.3104763643705592,0.9505810997317586,515.6545306638519,56.92448326503086)" fill="none" stroke="#ffa6d5"></use><use xlink:href="#bbburst-shape-10" width="35.62675560495788" opacity="0.06482649449614819" transform="matrix(1.3316253466415704,1.1354619923985643,-1.1354619923985643,1.3316253466415704,1053.0219047737023,204.28481511357597)" fill="none" stroke="#ffbd9b" filter="url(#bbburst-blur-4)"></use><use xlink:href="#bbburst-shape-1" width="24.30827264463114" opacity="0.7612265005557018" transform="matrix(0.7698694707907902,0.6382013772660701,-0.6382013772660701,0.7698694707907902,675.3930795445312,187.64160502953678)" fill="#2c2891" filter="url(#bbburst-blur-1)"></use><use xlink:href="#bbburst-shape-4" width="28.97255908370906" opacity="0.537736917392277" transform="matrix(0.7072919120509865,-0.7069216018394541,0.7069216018394541,0.7072919120509865,254.2678645087472,-19.575687444818925)" fill="#2c2891" filter="url(#bbburst-blur-2)"></use><use xlink:href="#bbburst-shape-4" width="14.443753462925962" opacity="0.8889880229753174" transform="matrix(0.7321681959216378,-0.6811238748427881,0.6811238748427881,0.7321681959216378,84.11146260187485,144.30007584574804)" fill="#00a19d"></use><use xlink:href="#bbburst-shape-8" width="39.48058984472779" opacity="0.07446475873466907" transform="matrix(1.612257535440723,0.6805333492302973,-0.6805333492302973,1.612257535440723,283.52325880672345,-43.59761038423903)" fill="none" stroke="#ffbd9b" filter="url(#bbburst-blur-4)"></use><use xlink:href="#bbburst-shape-6" width="24.924994536983146" opacity="0.6380109912805165" transform="matrix(0.9496489471397388,-0.3133159383057071,0.3133159383057071,0.9496489471397388,334.5899305624969,-122.19606583985848)" fill="#ff5c58" filter="url(#bbburst-blur-1)"></use><use xlink:href="#bbburst-shape-6" width="39.88969174179824" opacity="0.4049622727524984" transform="matrix(0.8446006477260778,-0.535396811589955,0.535396811589955,0.8446006477260778,132.15862659087082,-192.38243304002555)" fill="#ff5c58" filter="url(#bbburst-blur-2)"></use><use xlink:href="#bbburst-shape-10" width="35.72326766178458" opacity="0.15801868752952486" transform="matrix(0.9340648173043302,0.8306761806349261,-0.8306761806349261,0.9340648173043302,964.5992987732268,-274.0353718640444)" fill="none" stroke="#00a19d" filter="url(#bbburst-blur-3)"></use><use xlink:href="#bbburst-shape-4" width="25.05575580650859" opacity="0.5341309547768249" transform="matrix(0.9998906569933929,-0.01478763190376296,0.01478763190376296,0.9998906569933929,568.2992225770739,-95.02345985258717)" fill="#2c2891" filter="url(#bbburst-blur-2)"></use><use xlink:href="#bbburst-shape-10" width="27.568010272394446" opacity="0.4613278905800354" transform="matrix(0.8963446221554385,-0.4433580024461316,0.4433580024461316,0.8963446221554385,-9.209160166808005,150.4032589732994)" fill="none" stroke="#00a19d" filter="url(#bbburst-blur-2)"></use><use xlink:href="#bbburst-shape-8" width="29.02282866407544" opacity="0.37143213824697174" transform="matrix(0.932609935856841,-0.3608860035261811,0.3608860035261811,0.932609935856841,518.3247601623184,93.1342234249127)" fill="none" stroke="#00a19d" filter="url(#bbburst-blur-2)"></use><use xlink:href="#bbburst-shape-6" width="34.13831936919516" opacity="0.27288120396810667" transform="matrix(1.0654904691438412,0.6536283807819525,-0.6536283807819525,1.0654904691438412,934.4609116667875,111.86700897518836)" fill="#00a19d" filter="url(#bbburst-blur-3)"></use><use xlink:href="#bbburst-shape-4" width="16.455627569295345" opacity="0.8564757782991226" transform="matrix(0.8108440816365832,0.5852622277876184,-0.5852622277876184,0.8108440816365832,646.0438232113858,132.7029243783752)" fill="#ffa6d5"></use><use xlink:href="#bbburst-shape-1" width="22.53256368240851" opacity="0.7509211988539599" transform="matrix(0.9914177306639067,-0.13073210518166317,0.13073210518166317,0.9914177306639067,224.8398547669797,-4.335162792545873)" fill="#ffa6d5" filter="url(#bbburst-blur-1)"></use><use xlink:href="#bbburst-shape-6" width="39.65762719568944" opacity="0.47531750893203883" transform="matrix(0.918905189915906,-0.3944784556165429,0.3944784556165429,0.918905189915906,-9.102579562290288,2.6391987424823355)" fill="#2c2891" filter="url(#bbburst-blur-2)"></use></svg>